{
.appVersion = "1230";
copyright = "Copyright 2014 The ComicNeue Project Authors (https://github.com/crozynski/comicneue)";
customParameters = (
{
name = fsType;
value = (
);
},
{
name = license;
value = "This Font Software is licensed under the SIL Open Font License, Version 1.1. This license is available with a FAQ at: http://scripts.sil.org/OFL\012";
},
{
name = licenseURL;
value = "http://scripts.sil.org/OFL";
},
{
name = macintoshFONDName;
value = "Comic Neue";
},
{
name = note;
value = "";
},
{
name = openTypeNameUniqueID;
value = "2.003;;Comic Neue Bold Oblique";
},
{
name = openTypeNameVersion;
value = "Version 2.003";
},
{
name = codePageRanges;
value = (
1252,
1250
);
},
{
name = openTypeOS2FamilyClass;
value = (
0,
0
);
},
{
name = openTypeOS2Panose;
value = (
2,
0,
0,
0,
0,
0,
0,
0,
0,
0
);
},
{
name = openTypeOS2StrikeoutPosition;
value = 300;
},
{
name = openTypeOS2StrikeoutSize;
value = 50;
},
{
name = openTypeOS2SubscriptXOffset;
value = -16;
},
{
name = openTypeOS2SubscriptXSize;
value = 650;
},
{
name = openTypeOS2SubscriptYOffset;
value = 75;
},
{
name = openTypeOS2SubscriptYSize;
value = 600;
},
{
name = openTypeOS2SuperscriptXOffset;
value = 74;
},
{
name = openTypeOS2SuperscriptXSize;
value = 650;
},
{
name = openTypeOS2SuperscriptYOffset;
value = 350;
},
{
name = openTypeOS2SuperscriptYSize;
value = 600;
},
{
name = unicodeRanges;
value = (
0,
1,
2
);
},
{
name = vendorID;
value = "    ";
},
{
name = blueFuzz;
value = 1;
},
{
name = blueScale;
value = 0.03963;
},
{
name = blueShift;
value = 7;
},
{
name = postscriptForceBold;
value = 1;
},
{
name = trademark;
value = "-";
}
);
date = "2019-10-16 00:33:27 +0000";
designer = "Craig Rozynski";
designerURL = "http://www.craigrozynski.com";
disablesNiceNames = 1;
familyName = "Comic Neue";
featurePrefixes = (
{
code = "languagesystem DFLT dflt;\012languagesystem latn dflt;\012";
name = Languagesystems;
},
{

glyphs = (
{
glyphname = A;
layers = (
{
layerId = master01;
paths = (
{
closed = 1;
nodes = (
"537 67 LINE",
"537 61 OFFCURVE",
"537 53 OFFCURVE",
"536 48 CURVE SMOOTH",
"530 22 OFFCURVE",
"505 -1 OFFCURVE",
"475 -1 CURVE SMOOTH",
"451 -1 OFFCURVE",
"439 8 OFFCURVE",
"436 33 CURVE SMOOTH",
"408 241 LINE",
"194 196 LINE",
"94 32 LINE SMOOTH",
"84 15 OFFCURVE",
"66 0 OFFCURVE",
"42 0 CURVE SMOOTH",
"15.81 0 OFFCURVE",
"1.052 19.052 OFFCURVE",
"1.052 39.86 CURVE SMOOTH",
"1.052 42.887 OFFCURVE",
"1.365 45.952 OFFCURVE",
"2 49 CURVE SMOOTH",
"3 56 OFFCURVE",
"6 62 OFFCURVE",
"9 67 CURVE SMOOTH",
"76 177 LINE",
"60.095 182.86 OFFCURVE",
"49.796 195.727 OFFCURVE",
"49.796 213.843 CURVE SMOOTH",
"49.796 217.367 OFFCURVE",
"50.186 221.091 OFFCURVE",
"51 225 CURVE SMOOTH",
"56 249 OFFCURVE",
"76 268 OFFCURVE",
"100 273 CURVE SMOOTH",
"138 281 LINE",
"366 657 LINE SMOOTH",
"378 677 OFFCURVE",
"400 688 OFFCURVE",
"420 688 CURVE SMOOTH",
"440 688 OFFCURVE",
"456 679 OFFCURVE",
"459 655 CURVE SMOOTH"
);
},
{
closed = 1;
nodes = (
"394 334 LINE",
"375 495 LINE",
"260 306 LINE"
);
}
);
userData = {
com.fontlab.hintData = {
hhints = (
{
position = 0;
width = 20;
},
{
position = 668;
width = 20;
}
);
vhints = (
{
position = 436;
width = 100;
}
);
};
};
width = 650;
}
);
unicode = 0041;
},
{
glyphname = Aacute;
layers = (
{
layerId = master01;
paths = (
{
closed = 1;
nodes = (
"537 67 LINE",
"537 61 OFFCURVE",
"537 53 OFFCURVE",
"536 48 CURVE SMOOTH",
"530 22 OFFCURVE",
"505 -1 OFFCURVE",
"475 -1 CURVE SMOOTH",
"451 -1 OFFCURVE",
"439 8 OFFCURVE",
"436 33 CURVE SMOOTH",
"408 241 LINE",
"194 196 LINE",
"94 32 LINE SMOOTH",
"84 15 OFFCURVE",
"66 0 OFFCURVE",
"42 0 CURVE SMOOTH",
"15.81 0 OFFCURVE",
"1.052 19.052 OFFCURVE",
"1.052 39.86 CURVE SMOOTH",
"1.052 42.887 OFFCURVE",
"1.365 45.952 OFFCURVE",
"2 49 CURVE SMOOTH",
"3 56 OFFCURVE",
"6 62 OFFCURVE",
"9 67 CURVE SMOOTH",
"76 177 LINE",
"60.095 182.86 OFFCURVE",
"49.796 195.727 OFFCURVE",
"49.796 213.843 CURVE SMOOTH",
"49.796 217.367 OFFCURVE",
"50.186 221.091 OFFCURVE",
"51 225 CURVE SMOOTH",
"56 249 OFFCURVE",
"76 268 OFFCURVE",
"100 273 CURVE SMOOTH",
"138 281 LINE",
"366 657 LINE SMOOTH",
"378 677 OFFCURVE",
"400 688 OFFCURVE",
"420 688 CURVE SMOOTH",
"440 688 OFFCURVE",
"456 679 OFFCURVE",
"459 655 CURVE SMOOTH"
);
},
{
closed = 1;
nodes = (
"394 334 LINE",
"375 495 LINE",
"260 306 LINE"
);
},
{
closed = 1;
nodes = (
"470 883 LINE SMOOTH",
"482 891 OFFCURVE",
"498 902 OFFCURVE",
"515 902 CURVE SMOOTH",
"541.125 902 OFFCURVE",
"558.15 883.8 OFFCURVE",
"558.15 858.626 CURVE SMOOTH",
"558.15 854.892 OFFCURVE",
"557.775 851.004 OFFCURVE",
"557 847 CURVE",
"553 832 OFFCURVE",
"545 817 OFFCURVE",
"529 807 CURVE SMOOTH",
"387 722 LINE SMOOTH",
"375 715 OFFCURVE",
"362 709 OFFCURVE",
"351 709 CURVE SMOOTH",
"329.842 709 OFFCURVE",
"314.124 725.321 OFFCURVE",
"314.124 747.686 CURVE SMOOTH",
"314.124 750.69 OFFCURVE",
"314.408 753.803 OFFCURVE",
"315 757 CURVE",
"318 768 OFFCURVE",
"323 781 OFFCURVE",
"335 790 CURVE SMOOTH"
);
}
);
userData = {
com.fontlab.hintData = {
hhints = (
{
position = 0;
width = 20;
},
{
position = 668;
width = 20;
}
);
vhints = (
{
position = 436;
width = 100;
}
);
};
};
width = 650;
}
);
unicode = 00C1;
},
{
glyphname = Abreve;
layers = (
{
layerId = master01;
paths = (
{
closed = 1;
nodes = (
"537 67 LINE",
"537 61 OFFCURVE",
"537 53 OFFCURVE",
"536 48 CURVE SMOOTH",
"530 22 OFFCURVE",
"505 -1 OFFCURVE",
"475 -1 CURVE SMOOTH",
"451 -1 OFFCURVE",
"439 8 OFFCURVE",
"436 33 CURVE SMOOTH",
"408 241 LINE",
"194 196 LINE",
"94 32 LINE SMOOTH",
"84 15 OFFCURVE",
"66 0 OFFCURVE",
"42 0 CURVE SMOOTH",
"15.81 0 OFFCURVE",
"1.052 19.052 OFFCURVE",
"1.052 39.86 CURVE SMOOTH",
"1.052 42.887 OFFCURVE",
"1.365 45.952 OFFCURVE",
"2 49 CURVE SMOOTH",
"3 56 OFFCURVE",
"6 62 OFFCURVE",
"9 67 CURVE SMOOTH",
"76 177 LINE",
"60.095 182.86 OFFCURVE",
"49.796 195.727 OFFCURVE",
"49.796 213.843 CURVE SMOOTH",
"49.796 217.367 OFFCURVE",
"50.186 221.091 OFFCURVE",
"51 225 CURVE SMOOTH",
"56 249 OFFCURVE",
"76 268 OFFCURVE",
"100 273 CURVE SMOOTH",
"138 281 LINE",
"366 657 LINE SMOOTH",
"378 677 OFFCURVE",
"400 688 OFFCURVE",
"420 688 CURVE SMOOTH",
"440 688 OFFCURVE",
"456 679 OFFCURVE",
"459 655 CURVE SMOOTH"
);
},
{
closed = 1;
nodes = (
"394 334 LINE",
"375 495 LINE",
"260 306 LINE"
);
},
{
closed = 1;
nodes = (
"281 851 OFFCURVE",
"288 873 OFFCURVE",
"325 873 CURVE SMOOTH",
"346 873 OFFCURVE",
"355 856 OFFCURVE",
"359 844 CURVE",
"368 808 OFFCURVE",
"410 796 OFFCURVE",
"438 796 CURVE SMOOTH",
"474 796 OFFCURVE",
"502 810 OFFCURVE",
"523 844 CURVE SMOOTH",
"535 863 OFFCURVE",
"546 878 OFFCURVE",
"572 878 CURVE SMOOTH",
"589.689 878 OFFCURVE",
"602.684 863.92 OFFCURVE",
"602.684 846.829 CURVE SMOOTH",
"602.684 844.596 OFFCURVE",
"602.462 842.311 OFFCURVE",
"602 840 CURVE SMOOTH",
"592 791 OFFCURVE",
"518 709 OFFCURVE",
"417 709 CURVE SMOOTH",
"303.889 709 OFFCURVE",
"277.315 793.04 OFFCURVE",
"277.315 827.534 CURVE SMOOTH",
"277.315 830.855 OFFCURVE",
"277.561 833.717 OFFCURVE",
"278 836 CURVE SMOOTH"
);
}
);
userData = {
com.fontlab.hintData = {
hhints = (
{
position = 0;
width = 20;
},
{
position = 668;
width = 20;
},
{
position = 709;
width = 87;
}
);
vhints = (
{
position = 278;
width = 81;
},
{
position = 436;
width = 100;
}
);
};
};
width = 650;
}
);
unicode = 0102;
},
{
glyphname = Acircumflex;
layers = (
{
layerId = master01;
paths = (
{
closed = 1;
nodes = (
"537 67 LINE",
"537 61 OFFCURVE",
"537 53 OFFCURVE",
"536 48 CURVE SMOOTH",
"530 22 OFFCURVE",
"505 -1 OFFCURVE",
"475 -1 CURVE SMOOTH",
"451 -1 OFFCURVE",
"439 8 OFFCURVE",
"436 33 CURVE SMOOTH",
"408 241 LINE",
"194 196 LINE",
"94 32 LINE SMOOTH",
"84 15 OFFCURVE",
"66 0 OFFCURVE",
"42 0 CURVE SMOOTH",
"15.81 0 OFFCURVE",
"1.052 19.052 OFFCURVE",
"1.052 39.86 CURVE SMOOTH",
"1.052 42.887 OFFCURVE",
"1.365 45.952 OFFCURVE",
"2 49 CURVE SMOOTH",
"3 56 OFFCURVE",
"6 62 OFFCURVE",
"9 67 CURVE SMOOTH",
"76 177 LINE",
"60.095 182.86 OFFCURVE",
"49.796 195.727 OFFCURVE",
"49.796 213.843 CURVE SMOOTH",
"49.796 217.367 OFFCURVE",
"50.186 221.091 OFFCURVE",
"51 225 CURVE SMOOTH",
"56 249 OFFCURVE",
"76 268 OFFCURVE",
"100 273 CURVE SMOOTH",
"138 281 LINE",
"366 657 LINE SMOOTH",
"378 677 OFFCURVE",
"400 688 OFFCURVE",
"420 688 CURVE SMOOTH",
"440 688 OFFCURVE",
"456 679 OFFCURVE",
"459 655 CURVE SMOOTH"
);
},
{
closed = 1;
nodes = (
"394 334 LINE",
"375 495 LINE",
"260 306 LINE"
);
},
{
closed = 1;
nodes = (
"438 886 LINE SMOOTH",
"451 895 OFFCURVE",
"463 898 OFFCURVE",
"472 898 CURVE SMOOTH",
"484 898 OFFCURVE",
"497 892 OFFCURVE",
"507 880 CURVE SMOOTH",
"582 784 LINE SMOOTH",
"587.668 776.915 OFFCURVE",
"590.324 769.328 OFFCURVE",
"590.324 760.884 CURVE SMOOTH",
"590.324 757.409 OFFCURVE",
"589.875 753.79 OFFCURVE",
"589 750 CURVE SMOOTH",
"584 725 OFFCURVE",
"558 703 OFFCURVE",
"533 703 CURVE SMOOTH",
"521 703 OFFCURVE",
"511 705 OFFCURVE",
"502 715 CURVE SMOOTH",
"444 781 LINE",
"340 712 LINE SMOOTH",
"327 704 OFFCURVE",
"319 703 OFFCURVE",
"309 703 CURVE SMOOTH",
"287.277 703 OFFCURVE",
"270.839 718.1 OFFCURVE",
"270.839 739.772 CURVE SMOOTH",
"270.839 743.042 OFFCURVE",
"271.213 746.461 OFFCURVE",
"272 750 CURVE SMOOTH",
"275 763 OFFCURVE",
"283 776 OFFCURVE",
"298 786 CURVE SMOOTH"
);
}
);
userData = {
com.fontlab.hintData = {
hhints = (
{
position = 0;
width = 20;
},
{
position = 668;
width = 20;
}
);
vhints = (
{
position = 436;
width = 100;
}
);
};
};
width = 650;
}
);
unicode = 00C2;
},
{
glyphname = Adieresis;
layers = (
{
layerId = master01;
paths = (
{
closed = 1;
nodes = (
"401 732 OFFCURVE",
"364 703 OFFCURVE",
"324 703 CURVE SMOOTH",
"292.216 703 OFFCURVE",
"269.786 721.708 OFFCURVE",
"269.786 750.177 CURVE SMOOTH",
"269.786 753.953 OFFCURVE",
"270.18 757.901 OFFCURVE",
"271 762 CURVE",
"279 796 OFFCURVE",
"316 827 OFFCURVE",
"356 827 CURVE SMOOTH",
"385.445 827 OFFCURVE",
"410.114 806.3 OFFCURVE",
"410.114 777.686 CURVE SMOOTH",
"410.114 774.232 OFFCURVE",
"409.754 770.662 OFFCURVE",
"409 767 CURVE SMOOTH"
);
},
{
closed = 1;
nodes = (
"589 732 OFFCURVE",
"552 703 OFFCURVE",
"512 703 CURVE SMOOTH",
"480.216 703 OFFCURVE",
"457.786 721.708 OFFCURVE",
"457.786 750.177 CURVE SMOOTH",
"457.786 753.953 OFFCURVE",
"458.18 757.901 OFFCURVE",
"459 762 CURVE",
"467 796 OFFCURVE",
"505 827 OFFCURVE",
"544 827 CURVE SMOOTH",
"573.445 827 OFFCURVE",
"598.114 806.3 OFFCURVE",
"598.114 777.686 CURVE SMOOTH",
"598.114 774.232 OFFCURVE",
"597.754 770.662 OFFCURVE",
"597 767 CURVE SMOOTH"
);
},
{
closed = 1;
nodes = (
"537 67 LINE",
"537 61 OFFCURVE",
"537 53 OFFCURVE",
"536 48 CURVE SMOOTH",
"530 22 OFFCURVE",
"505 -1 OFFCURVE",
"475 -1 CURVE SMOOTH",
"451 -1 OFFCURVE",
"439 8 OFFCURVE",
"436 33 CURVE SMOOTH",
"408 241 LINE",
"194 196 LINE",
"94 32 LINE SMOOTH",
"84 15 OFFCURVE",
"66 0 OFFCURVE",
"42 0 CURVE SMOOTH",
"15.81 0 OFFCURVE",
"1.052 19.052 OFFCURVE",
"1.052 39.86 CURVE SMOOTH",
"1.052 42.887 OFFCURVE",
"1.365 45.952 OFFCURVE",
"2 49 CURVE SMOOTH",
"3 56 OFFCURVE",
"6 62 OFFCURVE",
"9 67 CURVE SMOOTH",
"76 177 LINE",
"60.095 182.86 OFFCURVE",
"49.796 195.727 OFFCURVE",
"49.796 213.843 CURVE SMOOTH",
"49.796 217.367 OFFCURVE",
"50.186 221.091 OFFCURVE",
"51 225 CURVE SMOOTH",
"56 249 OFFCURVE",
"76 268 OFFCURVE",
"100 273 CURVE SMOOTH",
"138 281 LINE",
"366 657 LINE SMOOTH",
"378 677 OFFCURVE",
"400 688 OFFCURVE",
"420 688 CURVE SMOOTH",
"440 688 OFFCURVE",
"456 679 OFFCURVE",
"459 655 CURVE SMOOTH"
);
},
{
closed = 1;
nodes = (
"394 334 LINE",
"375 495 LINE",
"260 306 LINE"
);
}
);
userData = {
com.fontlab.hintData = {
hhints = (
{
position = 0;
width = 20;
},
{
position = 668;
width = 20;
},
{
position = 703;
width = 124;
}
);
vhints = (
{
position = 270;
width = 140;
},
{
position = 436;
width = 100;
},
{
position = 458;
width = 140;
}
);
};
};
width = 650;
}
);
unicode = 00C4;
},
{
glyphname = Agrave;
layers = (
{
layerId = master01;
paths = (
{
closed = 1;
nodes = (
"537 67 LINE",
"537 61 OFFCURVE",
"537 53 OFFCURVE",
"536 48 CURVE SMOOTH",
"530 22 OFFCURVE",
"505 -1 OFFCURVE",
"475 -1 CURVE SMOOTH",
"451 -1 OFFCURVE",
"439 8 OFFCURVE",
"436 33 CURVE SMOOTH",
"408 241 LINE",
"194 196 LINE",
"94 32 LINE SMOOTH",
"84 15 OFFCURVE",
"66 0 OFFCURVE",
"42 0 CURVE SMOOTH",
"15.81 0 OFFCURVE",
"1.052 19.052 OFFCURVE",
"1.052 39.86 CURVE SMOOTH",
"1.052 42.887 OFFCURVE",
"1.365 45.952 OFFCURVE",
"2 49 CURVE SMOOTH",
"3 56 OFFCURVE",
"6 62 OFFCURVE",
"9 67 CURVE SMOOTH",
"76 177 LINE",
"60.095 182.86 OFFCURVE",
"49.796 195.727 OFFCURVE",
"49.796 213.843 CURVE SMOOTH",
"49.796 217.367 OFFCURVE",
"50.186 221.091 OFFCURVE",
"51 225 CURVE SMOOTH",
"56 249 OFFCURVE",
"76 268 OFFCURVE",
"100 273 CURVE SMOOTH",
"138 281 LINE",
"366 657 LINE SMOOTH",
"378 677 OFFCURVE",
"400 688 OFFCURVE",
"420 688 CURVE SMOOTH",
"440 688 OFFCURVE",
"456 679 OFFCURVE",
"459 655 CURVE SMOOTH"
);
},
{
closed = 1;
nodes = (
"394 334 LINE",
"375 495 LINE",
"260 306 LINE"
);
},
{
closed = 1;
nodes = (
"358 824 LINE SMOOTH",
"352.144 831.321 OFFCURVE",
"348.431 839.713 OFFCURVE",
"348.431 849.962 CURVE SMOOTH",
"348.431 853.713 OFFCURVE",
"348.928 857.713 OFFCURVE",
"350 862 CURVE SMOOTH",
"356 890 OFFCURVE",
"387 916 OFFCURVE",
"415 916 CURVE SMOOTH",
"433 916 OFFCURVE",
"447 906 OFFCURVE",
"455 894 CURVE",
"524 775 LINE SMOOTH",
"528.963 766.492 OFFCURVE",
"530.91 759.995 OFFCURVE",
"530.91 753.37 CURVE SMOOTH",
"530.91 750.651 OFFCURVE",
"530.582 747.91 OFFCURVE",
"530 745 CURVE SMOOTH",
"524 718 OFFCURVE",
"496 698 OFFCURVE",
"472 698 CURVE SMOOTH",
"457 698 OFFCURVE",
"447 704 OFFCURVE",
"441 713 CURVE SMOOTH"
);
}
);
userData = {
com.fontlab.hintData = {
hhints = (
{
position = 0;
width = 20;
},
{
position = 668;
width = 20;
}
);
vhints = (
{
position = 436;
width = 100;
}
);
};
};
width = 650;
}
);
unicode = 00C0;
},
{
glyphname = Aogonek;
layers = (
{
layerId = master01;
paths = (
{
closed = 1;
nodes = (
"368.447 -196 OFFCURVE",
"329.913 -159.669 OFFCURVE",
"329.913 -106.16 CURVE SMOOTH",
"329.913 -97.527 OFFCURVE",
"330.916 -88.447 OFFCURVE",
"333 -79 CURVE SMOOTH",
"344 -26 OFFCURVE",
"388 18 OFFCURVE",
"433 46 CURVE",
"408 241 LINE",
"194 196 LINE",
"94 32 LINE SMOOTH",
"84 15 OFFCURVE",
"66 0 OFFCURVE",
"42 0 CURVE SMOOTH",
"15.81 0 OFFCURVE",
"1.052 19.052 OFFCURVE",
"1.052 39.86 CURVE SMOOTH",
"1.052 42.887 OFFCURVE",
"1.365 45.952 OFFCURVE",
"2 49 CURVE SMOOTH",
"3 56 OFFCURVE",
"6 62 OFFCURVE",
"9 67 CURVE SMOOTH",
"76 177 LINE",
"60.095 182.86 OFFCURVE",
"49.796 195.727 OFFCURVE",
"49.796 213.843 CURVE SMOOTH",
"49.796 217.367 OFFCURVE",
"50.186 221.091 OFFCURVE",
"51 225 CURVE SMOOTH",
"56 249 OFFCURVE",
"76 268 OFFCURVE",
"100 273 CURVE SMOOTH",
"138 281 LINE",
"366 657 LINE SMOOTH",
"378 677 OFFCURVE",
"400 688 OFFCURVE",
"420 688 CURVE SMOOTH",
"440 688 OFFCURVE",
"456 679 OFFCURVE",
"459 655 CURVE SMOOTH",
"537 67 LINE",
"537.37 63.666 OFFCURVE",
"537.549 60.452 OFFCURVE",
"537.549 57.352 CURVE SMOOTH",
"537.549 18.608 OFFCURVE",
"509.703 -2.482 OFFCURVE",
"481 -21 CURVE SMOOTH",
"460.186 -34.245 OFFCURVE",
"422.505 -55.733 OFFCURVE",
"422.505 -84.793 CURVE SMOOTH",
"422.505 -96.897 OFFCURVE",
"432.674 -104 OFFCURVE",
"446 -104 CURVE SMOOTH",
"459 -104 OFFCURVE",
"475 -100 OFFCURVE",
"489 -90 CURVE SMOOTH",
"502 -82 OFFCURVE",
"510 -80 OFFCURVE",
"520 -80 CURVE SMOOTH",
"538.697 -80 OFFCURVE",
"555.808 -97.439 OFFCURVE",
"555.808 -118.202 CURVE SMOOTH",
"555.808 -120.759 OFFCURVE",
"555.548 -123.368 OFFCURVE",
"555 -126 CURVE SMOOTH",
"546 -168 OFFCURVE",
"466 -196 OFFCURVE",
"427 -196 CURVE SMOOTH"
);
},
{
closed = 1;
nodes = (
"394 334 LINE",
"375 495 LINE",
"260 306 LINE"
);
}
);
userData = {
com.fontlab.hintData = {
hhints = (
{
position = -196;
width = 92;
},
{
position = 0;
width = 21;
},
{
position = 668;
width = 20;
}
);
vhints = (
{
position = 330;
width = 93;
}
);
};
};
width = 650;
}
);
unicode = 0104;
},
{
glyphname = Aring;
layers = (
{
layerId = master01;
paths = (
{
closed = 1;
nodes = (
"357.074 712 OFFCURVE",
"310.644 744.991 OFFCURVE",
"310.644 798.441 CURVE SMOOTH",
"310.644 805.299 OFFCURVE",
"311.408 812.495 OFFCURVE",
"313 820 CURVE SMOOTH",
"329 897 OFFCURVE",
"414 942 OFFCURVE",
"489 942 CURVE SMOOTH",
"549.472 942 OFFCURVE",
"597.291 908.784 OFFCURVE",
"597.291 854.309 CURVE SMOOTH",
"597.291 847.528 OFFCURVE",
"596.55 840.417 OFFCURVE",
"595 833 CURVE SMOOTH",
"578 755 OFFCURVE",
"493 712 OFFCURVE",
"420 712 CURVE SMOOTH"
);
},
{
closed = 1;
nodes = (
"432 862 OFFCURVE",
"403 838 OFFCURVE",
"399 820 CURVE SMOOTH",
"398.658 818.462 OFFCURVE",
"398.492 816.974 OFFCURVE",
"398.492 815.541 CURVE SMOOTH",
"398.492 800.2 OFFCURVE",
"417.564 791 OFFCURVE",
"445 791 CURVE SMOOTH",
"466.922 791 OFFCURVE",
"508.359 806.608 OFFCURVE",
"508.359 834.624 CURVE SMOOTH",
"508.359 848.467 OFFCURVE",
"492.832 862 OFFCURVE",
"468 862 CURVE SMOOTH"
);
},
{
closed = 1;
nodes = (
"537 67 LINE",
"537 61 OFFCURVE",
"537 53 OFFCURVE",
"536 48 CURVE SMOOTH",
"530 22 OFFCURVE",
"505 -1 OFFCURVE",
"475 -1 CURVE SMOOTH",
"451 -1 OFFCURVE",
"439 8 OFFCURVE",
"436 33 CURVE SMOOTH",
"408 241 LINE",
"194 196 LINE",
"94 32 LINE SMOOTH",
"84 15 OFFCURVE",
"66 0 OFFCURVE",
"42 0 CURVE SMOOTH",
"15.81 0 OFFCURVE",
"1.052 19.052 OFFCURVE",
"1.052 39.86 CURVE SMOOTH",
"1.052 42.887 OFFCURVE",
"1.365 45.952 OFFCURVE",
"2 49 CURVE SMOOTH",
"3 56 OFFCURVE",
"6 62 OFFCURVE",
"9 67 CURVE SMOOTH",
"76 177 LINE",
"60.095 182.86 OFFCURVE",
"49.796 195.727 OFFCURVE",
"49.796 213.843 CURVE SMOOTH",
"49.796 217.367 OFFCURVE",
"50.186 221.091 OFFCURVE",
"51 225 CURVE SMOOTH",
"56 249 OFFCURVE",
"76 268 OFFCURVE",
"100 273 CURVE SMOOTH",
"138 281 LINE",
"366 657 LINE SMOOTH",
"378 677 OFFCURVE",
"400 688 OFFCURVE",
"420 688 CURVE SMOOTH",
"440 688 OFFCURVE",
"456 679 OFFCURVE",
"459 655 CURVE SMOOTH"
);
},
{
closed = 1;
nodes = (
"394 334 LINE",
"375 495 LINE",
"260 306 LINE"
);
}
);
userData = {
com.fontlab.hintData = {
hhints = (
{
position = 0;
width = 20;
},
{
position = 668;
width = 20;
},
{
position = 712;
width = 79;
},
{
position = 862;
width = 80;
}
);
vhints = (
{
position = 311;
width = 88;
},
{
position = 436;
width = 100;
},
{
position = 508;
width = 89;
}
);
};
};
width = 650;
}
);
unicode = 00C5;
},
{
glyphname = Atilde;
layers = (
{
layerId = master01;
paths = (
{
closed = 1;
nodes = (
"596 886 OFFCURVE",
"609 893 OFFCURVE",
"624 893 CURVE SMOOTH",
"640.815 893 OFFCURVE",
"656.846 885.168 OFFCURVE",
"656.846 867.425 CURVE SMOOTH",
"656.846 865.119 OFFCURVE",
"656.575 862.646 OFFCURVE",
"656 860 CURVE SMOOTH",
"655 856 OFFCURVE",
"654 849 OFFCURVE",
"649 838 CURVE",
"632 807 OFFCURVE",
"575 705 OFFCURVE",
"474 705 CURVE SMOOTH",
"442 705 OFFCURVE",
"419 722 OFFCURVE",
"404 753 CURVE SMOOTH",
"392 776 OFFCURVE",
"384 788 OFFCURVE",
"369 788 CURVE SMOOTH",
"334 788 OFFCURVE",
"306 736 OFFCURVE",
"298 720 CURVE",
"289 705 OFFCURVE",
"279 698 OFFCURVE",
"264 698 CURVE SMOOTH",
"247.185 698 OFFCURVE",
"231.154 705.832 OFFCURVE",
"231.154 723.575 CURVE SMOOTH",
"231.154 725.881 OFFCURVE",
"231.425 728.354 OFFCURVE",
"232 731 CURVE SMOOTH",
"233 735 OFFCURVE",
"234 742 OFFCURVE",
"240 753 CURVE SMOOTH",
"269 810 OFFCURVE",
"322 877 OFFCURVE",
"400 877 CURVE SMOOTH",
"439 877 OFFCURVE",
"461 860 OFFCURVE",
"477 829 CURVE SMOOTH",
"488 807 OFFCURVE",
"496 793 OFFCURVE",
"511 793 CURVE SMOOTH",
"532 793 OFFCURVE",
"563 817 OFFCURVE",
"589 871 CURVE SMOOTH"
);
},
{
closed = 1;
nodes = (
"537 67 LINE",
"537 61 OFFCURVE",
"537 53 OFFCURVE",
"536 48 CURVE SMOOTH",
"530 22 OFFCURVE",
"505 -1 OFFCURVE",
"475 -1 CURVE SMOOTH",
"451 -1 OFFCURVE",
"439 8 OFFCURVE",
"436 33 CURVE SMOOTH",
"408 241 LINE",
"194 196 LINE",
"94 32 LINE SMOOTH",
"84 15 OFFCURVE",
"66 0 OFFCURVE",
"42 0 CURVE SMOOTH",
"15.81 0 OFFCURVE",
"1.052 19.052 OFFCURVE",
"1.052 39.86 CURVE SMOOTH",
"1.052 42.887 OFFCURVE",
"1.365 45.952 OFFCURVE",
"2 49 CURVE SMOOTH",
"3 56 OFFCURVE",
"6 62 OFFCURVE",
"9 67 CURVE SMOOTH",
"76 177 LINE",
"60.095 182.86 OFFCURVE",
"49.796 195.727 OFFCURVE",
"49.796 213.843 CURVE SMOOTH",
"49.796 217.367 OFFCURVE",
"50.186 221.091 OFFCURVE",
"51 225 CURVE SMOOTH",
"56 249 OFFCURVE",
"76 268 OFFCURVE",
"100 273 CURVE SMOOTH",
"138 281 LINE",
"366 657 LINE SMOOTH",
"378 677 OFFCURVE",
"400 688 OFFCURVE",
"420 688 CURVE SMOOTH",
"440 688 OFFCURVE",
"456 679 OFFCURVE",
"459 655 CURVE SMOOTH"
);
},
{
closed = 1;
nodes = (
"394 334 LINE",
"375 495 LINE",
"260 306 LINE"
);
}
);
userData = {
com.fontlab.hintData = {
hhints = (
{
position = 0;
width = 20;
},
{
position = 668;
width = 20;
},
{
position = 705;
width = 88;
},
{
position = 788;
width = 89;
}
);
vhints = (
{
position = 436;
width = 100;
},
{
position = 589;
width = 68;
}
);
};
};
width = 650;
}
);
unicode = 00C3;
},
{
glyphname = AE;
layers = (
{
layerId = master01;
paths = (
{
closed = 1;
nodes = (
"565 660 LINE SMOOTH",
"572 668 OFFCURVE",
"586 681 OFFCURVE",
"605 681 CURVE SMOOTH",
"1007 681 LINE SMOOTH",
"1031.93 681 OFFCURVE",
"1047.25 666.222 OFFCURVE",
"1047.25 643.652 CURVE SMOOTH",
"1047.25 639.966 OFFCURVE",
"1046.84 636.071 OFFCURVE",
"1046 632 CURVE SMOOTH",
"1041 607 OFFCURVE",
"1016 584 OFFCURVE",
"987 584 CURVE SMOOTH",
"636 584 LINE",
"594 386 LINE",
"899 386 LINE SMOOTH",
"922.536 386 OFFCURVE",
"936.954 367.763 OFFCURVE",
"936.954 346.524 CURVE SMOOTH",
"936.954 343.398 OFFCURVE",
"936.641 340.207 OFFCURVE",
"936 337 CURVE SMOOTH",
"930 309 OFFCURVE",
"905 288 OFFCURVE",
"878 288 CURVE SMOOTH",
"573 289 LINE",
"532 97 LINE",
"883 97 LINE SMOOTH",
"907.929 97 OFFCURVE",
"923.251 82.222 OFFCURVE",
"923.251 59.652 CURVE SMOOTH",
"923.251 55.965 OFFCURVE",
"922.842 52.072 OFFCURVE",
"922 48 CURVE SMOOTH",
"916 21 OFFCURVE",
"892 0 OFFCURVE",
"863 0 CURVE SMOOTH",
"464 0 LINE SMOOTH",
"440.518 0 OFFCURVE",
"423.844 15.884 OFFCURVE",
"423.844 37.784 CURVE SMOOTH",
"423.844 41.065 OFFCURVE",
"424.218 44.482 OFFCURVE",
"425 48 CURVE SMOOTH",
"474 279 LINE",
"297 243 LINE",
"89 17 LINE SMOOTH",
"76 3 OFFCURVE",
"60 -3 OFFCURVE",
"46 -3 CURVE SMOOTH",
"23.829 -3 OFFCURVE",
"7.163 15.09 OFFCURVE",
"7.163 36.621 CURVE SMOOTH",
"7.163 39.368 OFFCURVE",
"7.434 42.171 OFFCURVE",
"8 45 CURVE SMOOTH",
"10 55 OFFCURVE",
"13 62 OFFCURVE",
"23 73 CURVE SMOOTH",
"166 229 LINE",
"156.302 236.273 OFFCURVE",
"149.87 248.118 OFFCURVE",
"149.87 261.896 CURVE SMOOTH",
"149.87 265.167 OFFCURVE",
"150.233 268.547 OFFCURVE",
"151 272 CURVE SMOOTH",
"156 295 OFFCURVE",
"176 314 OFFCURVE",
"201 319 CURVE SMOOTH",
"261 331 LINE"
);
},
{
closed = 1;
nodes = (
"494 376 LINE",
"517 481 LINE",
"405 359 LINE"
);
}
);
userData = {
com.fontlab.hintData = {
hhints = (
{
position = 0;
width = 97;
},
{
position = 289;
width = 97;
},
{
position = 584;
width = 97;
}
);
};
};
width = 1066;
}
);
unicode = 00C6;
},
{
glyphname = B;
layers = (
{
layerId = master01;
paths = (
{
closed = 1;
nodes = (
"34.749 -2 OFFCURVE",
"14.578 4.286 OFFCURVE",
"14.578 33.203 CURVE SMOOTH",
"14.578 38.886 OFFCURVE",
"15.357 45.444 OFFCURVE",
"17 53 CURVE SMOOTH",
"140 632 LINE SMOOTH",
"145 658 OFFCURVE",
"173 681 OFFCURVE",
"199 681 CURVE SMOOTH",
"369 681 LINE SMOOTH",
"535.048 681 OFFCURVE",
"560.639 582.945 OFFCURVE",
"560.639 529.204 CURVE SMOOTH",
"560.639 516.921 OFFCURVE",
"559.302 506.953 OFFCURVE",
"558 501 CURVE SMOOTH",
"546 443 OFFCURVE",
"517 402 OFFCURVE",
"485 374 CURVE",
"533.193 348.718 OFFCURVE",
"557.043 310.953 OFFCURVE",
"557.043 258.238 CURVE SMOOTH",
"557.043 244.23 OFFCURVE",
"555.359 229.166 OFFCURVE",
"552 213 CURVE SMOOTH",
"523 77 OFFCURVE",
"363 -2 OFFCURVE",
"64 -2 CURVE SMOOTH"
);
},
{
closed = 1;
nodes = (
"126 97 LINE",
"291 100 OFFCURVE",
"436 135 OFFCURVE",
"453 213 CURVE SMOOTH",
"454.272 219.087 OFFCURVE",
"454.875 224.844 OFFCURVE",
"454.875 230.281 CURVE SMOOTH",
"454.875 284.683 OFFCURVE",
"394.458 307 OFFCURVE",
"339 307 CURVE SMOOTH",
"171 307 LINE"
);
},
{
closed = 1;
nodes = (
"192 407 LINE",
"351 407 LINE SMOOTH",
"402 407 OFFCURVE",
"449 453 OFFCURVE",
"458 498 CURVE SMOOTH",
"458.555 500.404 OFFCURVE",
"459.246 504.757 OFFCURVE",
"459.246 510.256 CURVE SMOOTH",
"459.246 534.494 OFFCURVE",
"445.81 581 OFFCURVE",
"348 581 CURVE SMOOTH",
"229 581 LINE"
);
}
);
userData = {
com.fontlab.hintData = {
hhints = (
{
position = -2;
width = 99;
},
{
position = 307;
width = 100;
},
{
position = 581;
width = 100;
}
);
vhints = (
{
position = 455;
width = 102;
}
);
};
};
width = 629;
}
);
unicode = 0042;
},
{
glyphname = C;
layers = (
{
layerId = master01;
paths = (
{
closed = 1;
nodes = (
"474 41 OFFCURVE",
"380 -2 OFFCURVE",
"283 -2 CURVE SMOOTH",
"144.433 -2 OFFCURVE",
"47.867 95.504 OFFCURVE",
"47.867 232.702 CURVE SMOOTH",
"47.867 253.923 OFFCURVE",
"50.178 276.094 OFFCURVE",
"55 299 CURVE SMOOTH",
"98 501 OFFCURVE",
"296 684 OFFCURVE",
"436 684 CURVE SMOOTH",
"494 684 OFFCURVE",
"536 669 OFFCURVE",
"562 653 CURVE",
"573 659 OFFCURVE",
"580 660 OFFCURVE",
"590 660 CURVE SMOOTH",
"614.214 660 OFFCURVE",
"630.202 644.295 OFFCURVE",
"630.202 621.939 CURVE SMOOTH",
"630.202 618.443 OFFCURVE",
"629.811 614.786 OFFCURVE",
"629 611 CURVE SMOOTH",
"617 551 LINE SMOOTH",
"611 524 OFFCURVE",
"584 501 OFFCURVE",
"556 501 CURVE SMOOTH",
"531.639 501 OFFCURVE",
"515.419 517.281 OFFCURVE",
"515.419 539.561 CURVE SMOOTH",
"515.419 541.975 OFFCURVE",
"515.609 544.459 OFFCURVE",
"516 547 CURVE",
"501 564 OFFCURVE",
"477 584 OFFCURVE",
"415 584 CURVE SMOOTH",
"322 584 OFFCURVE",
"185 441 OFFCURVE",
"155 299 CURVE SMOOTH",
"151.375 281.723 OFFCURVE",
"149.707 265.687 OFFCURVE",
"149.707 250.844 CURVE SMOOTH",
"149.707 142.832 OFFCURVE",
"238.061 98 OFFCURVE",
"304 98 CURVE SMOOTH",
"364 98 OFFCURVE",
"425 119 OFFCURVE",
"481 177 CURVE SMOOTH",
"497 193 OFFCURVE",
"509 197 OFFCURVE",
"524 197 CURVE SMOOTH",
"546.563 197 OFFCURVE",
"565.361 183.444 OFFCURVE",
"565.361 158.946 CURVE SMOOTH",
"565.361 155.215 OFFCURVE",
"564.925 151.23 OFFCURVE",
"564 147 CURVE SMOOTH",
"562 137 OFFCURVE",
"557 127 OFFCURVE",
"548 117 CURVE SMOOTH"
);
}
);
userData = {
com.fontlab.hintData = {
hhints = (
{
position = -2;
width = 100;
},
{
position = 584;
width = 100;
}
);
vhints = (
{
position = 48;
width = 102;
}
);
};
};
width = 658;
}
);
unicode = 0043;
},
{
glyphname = Cacute;
layers = (
{
layerId = master01;
paths = (
{
closed = 1;
nodes = (
"474 41 OFFCURVE",
"380 -2 OFFCURVE",
"283 -2 CURVE SMOOTH",
"144.433 -2 OFFCURVE",
"47.867 95.504 OFFCURVE",
"47.867 232.702 CURVE SMOOTH",
"47.867 253.923 OFFCURVE",
"50.178 276.094 OFFCURVE",
"55 299 CURVE SMOOTH",
"98 501 OFFCURVE",
"296 684 OFFCURVE",
"436 684 CURVE SMOOTH",
"494 684 OFFCURVE",
"536 669 OFFCURVE",
"562 653 CURVE",
"573 659 OFFCURVE",
"580 660 OFFCURVE",
"590 660 CURVE SMOOTH",
"614.214 660 OFFCURVE",
"630.202 644.295 OFFCURVE",
"630.202 621.939 CURVE SMOOTH",
"630.202 618.443 OFFCURVE",
"629.811 614.786 OFFCURVE",
"629 611 CURVE SMOOTH",
"617 551 LINE SMOOTH",
"611 524 OFFCURVE",
"584 501 OFFCURVE",
"556 501 CURVE SMOOTH",
"531.639 501 OFFCURVE",
"515.419 517.281 OFFCURVE",
"515.419 539.561 CURVE SMOOTH",
"515.419 541.975 OFFCURVE",
"515.609 544.459 OFFCURVE",
"516 547 CURVE",
"501 564 OFFCURVE",
"477 584 OFFCURVE",
"415 584 CURVE SMOOTH",
"322 584 OFFCURVE",
"185 441 OFFCURVE",
"155 299 CURVE SMOOTH",
"151.375 281.723 OFFCURVE",
"149.707 265.687 OFFCURVE",
"149.707 250.844 CURVE SMOOTH",
"149.707 142.832 OFFCURVE",
"238.061 98 OFFCURVE",
"304 98 CURVE SMOOTH",
"364 98 OFFCURVE",
"425 119 OFFCURVE",
"481 177 CURVE SMOOTH",
"497 193 OFFCURVE",
"509 197 OFFCURVE",
"524 197 CURVE SMOOTH",
"546.563 197 OFFCURVE",
"565.361 183.444 OFFCURVE",
"565.361 158.946 CURVE SMOOTH",
"565.361 155.215 OFFCURVE",
"564.925 151.23 OFFCURVE",
"564 147 CURVE SMOOTH",
"562 137 OFFCURVE",
"557 127 OFFCURVE",
"548 117 CURVE SMOOTH"
);
},
{
closed = 1;
nodes = (
"497 883 LINE SMOOTH",
"509 891 OFFCURVE",
"525 902 OFFCURVE",
"542 902 CURVE SMOOTH",
"568.125 902 OFFCURVE",
"585.15 883.8 OFFCURVE",
"585.15 858.626 CURVE SMOOTH",
"585.15 854.892 OFFCURVE",
"584.775 851.004 OFFCURVE",
"584 847 CURVE",
"580 832 OFFCURVE",
"572 817 OFFCURVE",
"556 807 CURVE SMOOTH",
"414 722 LINE SMOOTH",
"402 715 OFFCURVE",
"389 709 OFFCURVE",
"378 709 CURVE SMOOTH",
"356.842 709 OFFCURVE",
"341.124 725.321 OFFCURVE",
"341.124 747.686 CURVE SMOOTH",
"341.124 750.69 OFFCURVE",
"341.408 753.803 OFFCURVE",
"342 757 CURVE",
"345 768 OFFCURVE",
"350 781 OFFCURVE",
"362 790 CURVE SMOOTH"
);
}
);
userData = {
com.fontlab.hintData = {
hhints = (
{
position = -2;
width = 100;
},
{
position = 584;
width = 100;
}
);
vhints = (
{
position = 48;
width = 102;
}
);
};
};
width = 658;
}
);
unicode = 0106;
},
{
glyphname = Ccaron;
layers = (
{
layerId = master01;
paths = (
{
closed = 1;
nodes = (
"474 41 OFFCURVE",
"380 -2 OFFCURVE",
"283 -2 CURVE SMOOTH",
"144.433 -2 OFFCURVE",
"47.867 95.504 OFFCURVE",
"47.867 232.702 CURVE SMOOTH",
"47.867 253.923 OFFCURVE",
"50.178 276.094 OFFCURVE",
"55 299 CURVE SMOOTH",
"98 501 OFFCURVE",
"296 684 OFFCURVE",
"436 684 CURVE SMOOTH",
"494 684 OFFCURVE",
"536 669 OFFCURVE",
"562 653 CURVE",
"573 659 OFFCURVE",
"580 660 OFFCURVE",
"590 660 CURVE SMOOTH",
"614.214 660 OFFCURVE",
"630.202 644.295 OFFCURVE",
"630.202 621.939 CURVE SMOOTH",
"630.202 618.443 OFFCURVE",
"629.811 614.786 OFFCURVE",
"629 611 CURVE SMOOTH",
"617 551 LINE SMOOTH",
"611 524 OFFCURVE",
"584 501 OFFCURVE",
"556 501 CURVE SMOOTH",
"531.639 501 OFFCURVE",
"515.419 517.281 OFFCURVE",
"515.419 539.561 CURVE SMOOTH",
"515.419 541.975 OFFCURVE",
"515.609 544.459 OFFCURVE",
"516 547 CURVE",
"501 564 OFFCURVE",
"477 584 OFFCURVE",
"415 584 CURVE SMOOTH",
"322 584 OFFCURVE",
"185 441 OFFCURVE",
"155 299 CURVE SMOOTH",
"151.375 281.723 OFFCURVE",
"149.707 265.687 OFFCURVE",
"149.707 250.844 CURVE SMOOTH",
"149.707 142.832 OFFCURVE",
"238.061 98 OFFCURVE",
"304 98 CURVE SMOOTH",
"364 98 OFFCURVE",
"425 119 OFFCURVE",
"481 177 CURVE SMOOTH",
"497 193 OFFCURVE",
"509 197 OFFCURVE",
"524 197 CURVE SMOOTH",
"546.563 197 OFFCURVE",
"565.361 183.444 OFFCURVE",
"565.361 158.946 CURVE SMOOTH",
"565.361 155.215 OFFCURVE",
"564.925 151.23 OFFCURVE",
"564 147 CURVE SMOOTH",
"562 137 OFFCURVE",
"557 127 OFFCURVE",
"548 117 CURVE SMOOTH"
);
},
{
closed = 1;
nodes = (
"482 721 LINE SMOOTH",
"469 712 OFFCURVE",
"456 709 OFFCURVE",
"447 709 CURVE SMOOTH",
"435 709 OFFCURVE",
"422 715 OFFCURVE",
"413 727 CURVE SMOOTH",
"337 823 LINE SMOOTH",
"332.1 830 OFFCURVE",
"329.65 837.49 OFFCURVE",
"329.65 845.813 CURVE SMOOTH",
"329.65 849.38 OFFCURVE",
"330.1 853.1 OFFCURVE",
"331 857 CURVE SMOOTH",
"336 882 OFFCURVE",
"362 904 OFFCURVE",
"387 904 CURVE SMOOTH",
"399 904 OFFCURVE",
"408 902 OFFCURVE",
"417 892 CURVE SMOOTH",
"476 826 LINE",
"580 895 LINE SMOOTH",
"592 903 OFFCURVE",
"601 904 OFFCURVE",
"611 904 CURVE SMOOTH",
"633.048 904 OFFCURVE",
"648.874 888.444 OFFCURVE",
"648.874 866.25 CURVE SMOOTH",
"648.874 863.278 OFFCURVE",
"648.59 860.188 OFFCURVE",
"648 857 CURVE SMOOTH",
"645 844 OFFCURVE",
"636 831 OFFCURVE",
"622 821 CURVE SMOOTH"
);
}
);
userData = {
com.fontlab.hintData = {
hhints = (
{
position = -2;
width = 100;
},
{
position = 584;
width = 100;
}
);
vhints = (
{
position = 48;
width = 102;
}
);
};
};
width = 658;
}
);
unicode = 010C;
},
{
glyphname = Ccedilla;
layers = (
{
layerId = master01;
paths = (
{
closed = 1;
nodes = (
"282 -11 OFFCURVE",
"281 -18 OFFCURVE",
"279 -27 CURVE",
"328.29 -35.498 OFFCURVE",
"354.469 -54.107 OFFCURVE",
"354.469 -89.579 CURVE SMOOTH",
"354.469 -95.847 OFFCURVE",
"353.652 -102.642 OFFCURVE",
"352 -110 CURVE SMOOTH",
"340 -168 OFFCURVE",
"287 -196 OFFCURVE",
"229 -196 CURVE SMOOTH",
"194.08 -196 OFFCURVE",
"159.161 -182.489 OFFCURVE",
"159.161 -155.467 CURVE SMOOTH",
"159.161 -153.083 OFFCURVE",
"159.433 -150.594 OFFCURVE",
"160 -148 CURVE SMOOTH",
"164 -131 OFFCURVE",
"181 -109 OFFCURVE",
"204 -109 CURVE SMOOTH",
"221 -109 OFFCURVE",
"226 -118 OFFCURVE",
"235 -126 CURVE SMOOTH",
"239 -130 OFFCURVE",
"244 -132 OFFCURVE",
"253 -132 CURVE SMOOTH",
"269 -132 OFFCURVE",
"279 -118 OFFCURVE",
"282 -106 CURVE SMOOTH",
"282.457 -104.172 OFFCURVE",
"282.682 -102.437 OFFCURVE",
"282.682 -100.798 CURVE SMOOTH",
"282.682 -91.679 OFFCURVE",
"275.715 -85.543 OFFCURVE",
"263 -83 CURVE SMOOTH",
"216 -73 LINE SMOOTH",
"205.801 -70.734 OFFCURVE",
"201.702 -64.614 OFFCURVE",
"201.702 -56.462 CURVE SMOOTH",
"201.702 -50.226 OFFCURVE",
"204.1 -42.801 OFFCURVE",
"208 -35 CURVE SMOOTH",
"215 -20 OFFCURVE",
"221 -7 OFFCURVE",
"227 3 CURVE",
"119.448 25.865 OFFCURVE",
"47.755 113.994 OFFCURVE",
"47.755 232.159 CURVE SMOOTH",
"47.755 253.527 OFFCURVE",
"50.1 275.877 OFFCURVE",
"55 299 CURVE SMOOTH",
"98 501 OFFCURVE",
"296 684 OFFCURVE",
"436 684 CURVE SMOOTH",
"494 684 OFFCURVE",
"536 669 OFFCURVE",
"562 653 CURVE",
"573 659 OFFCURVE",
"580 660 OFFCURVE",
"590 660 CURVE SMOOTH",
"614.214 660 OFFCURVE",
"630.202 644.295 OFFCURVE",
"630.202 621.939 CURVE SMOOTH",
"630.202 618.443 OFFCURVE",
"629.811 614.786 OFFCURVE",
"629 611 CURVE SMOOTH",
"617 551 LINE SMOOTH",
"611 524 OFFCURVE",
"584 501 OFFCURVE",
"556 501 CURVE SMOOTH",
"531.639 501 OFFCURVE",
"515.419 517.281 OFFCURVE",
"515.419 539.561 CURVE SMOOTH",
"515.419 541.975 OFFCURVE",
"515.609 544.459 OFFCURVE",
"516 547 CURVE",
"501 564 OFFCURVE",
"477 584 OFFCURVE",
"415 584 CURVE SMOOTH",
"322 584 OFFCURVE",
"185 441 OFFCURVE",
"155 299 CURVE SMOOTH",
"151.375 281.723 OFFCURVE",
"149.707 265.687 OFFCURVE",
"149.707 250.844 CURVE SMOOTH",
"149.707 142.832 OFFCURVE",
"238.061 98 OFFCURVE",
"304 98 CURVE SMOOTH",
"364 98 OFFCURVE",
"425 119 OFFCURVE",
"481 177 CURVE SMOOTH",
"497 193 OFFCURVE",
"509 197 OFFCURVE",
"524 197 CURVE SMOOTH",
"546.563 197 OFFCURVE",
"565.361 183.444 OFFCURVE",
"565.361 158.946 CURVE SMOOTH",
"565.361 155.215 OFFCURVE",
"564.925 151.23 OFFCURVE",
"564 147 CURVE SMOOTH",
"562 137 OFFCURVE",
"557 127 OFFCURVE",
"548 117 CURVE SMOOTH",
"474 41 OFFCURVE",
"380 -2 OFFCURVE",
"283 -2 CURVE"
);
}
);
userData = {
com.fontlab.hintData = {
hhints = (
{
position = -196;
width = 64;
},
{
position = -2;
width = 100;
},
{
position = 584;
width = 100;
}
);
vhints = (
{
position = 48;
width = 102;
},
{
position = 283;
width = 72;
}
);
};
};
width = 658;
}
);
unicode = 00C7;
},
{
glyphname = Ccircumflex;
layers = (
{
layerId = master01;
paths = (
{
closed = 1;
nodes = (
"474 41 OFFCURVE",
"380 -2 OFFCURVE",
"283 -2 CURVE SMOOTH",
"144.433 -2 OFFCURVE",
"47.867 95.504 OFFCURVE",
"47.867 232.702 CURVE SMOOTH",
"47.867 253.923 OFFCURVE",
"50.178 276.094 OFFCURVE",
"55 299 CURVE SMOOTH",
"98 501 OFFCURVE",
"296 684 OFFCURVE",
"436 684 CURVE SMOOTH",
"494 684 OFFCURVE",
"536 669 OFFCURVE",
"562 653 CURVE",
"573 659 OFFCURVE",
"580 660 OFFCURVE",
"590 660 CURVE SMOOTH",
"614.214 660 OFFCURVE",
"630.202 644.295 OFFCURVE",
"630.202 621.939 CURVE SMOOTH",
"630.202 618.443 OFFCURVE",
"629.811 614.786 OFFCURVE",
"629 611 CURVE SMOOTH",
"617 551 LINE SMOOTH",
"611 524 OFFCURVE",
"584 501 OFFCURVE",
"556 501 CURVE SMOOTH",
"531.639 501 OFFCURVE",
"515.419 517.281 OFFCURVE",
"515.419 539.561 CURVE SMOOTH",
"515.419 541.975 OFFCURVE",
"515.609 544.459 OFFCURVE",
"516 547 CURVE",
"501 564 OFFCURVE",
"477 584 OFFCURVE",
"415 584 CURVE SMOOTH",
"322 584 OFFCURVE",
"185 441 OFFCURVE",
"155 299 CURVE SMOOTH",
"151.375 281.723 OFFCURVE",
"149.707 265.687 OFFCURVE",
"149.707 250.844 CURVE SMOOTH",
"149.707 142.832 OFFCURVE",
"238.061 98 OFFCURVE",
"304 98 CURVE SMOOTH",
"364 98 OFFCURVE",
"425 119 OFFCURVE",
"481 177 CURVE SMOOTH",
"497 193 OFFCURVE",
"509 197 OFFCURVE",
"524 197 CURVE SMOOTH",
"546.563 197 OFFCURVE",
"565.361 183.444 OFFCURVE",
"565.361 158.946 CURVE SMOOTH",
"565.361 155.215 OFFCURVE",
"564.925 151.23 OFFCURVE",
"564 147 CURVE SMOOTH",
"562 137 OFFCURVE",
"557 127 OFFCURVE",
"548 117 CURVE SMOOTH"
);
},
{
closed = 1;
nodes = (
"458 886 LINE SMOOTH",
"471 895 OFFCURVE",
"483 898 OFFCURVE",
"492 898 CURVE SMOOTH",
"504 898 OFFCURVE",
"517 892 OFFCURVE",
"527 880 CURVE SMOOTH",
"602 784 LINE SMOOTH",
"607.668 776.915 OFFCURVE",
"610.324 769.328 OFFCURVE",
"610.324 760.884 CURVE SMOOTH",
"610.324 757.409 OFFCURVE",
"609.875 753.79 OFFCURVE",
"609 750 CURVE SMOOTH",
"604 725 OFFCURVE",
"578 703 OFFCURVE",
"553 703 CURVE SMOOTH",
"541 703 OFFCURVE",
"531 705 OFFCURVE",
"522 715 CURVE SMOOTH",
"464 781 LINE",
"360 712 LINE SMOOTH",
"347 704 OFFCURVE",
"339 703 OFFCURVE",
"329 703 CURVE SMOOTH",
"307.277 703 OFFCURVE",
"290.839 718.1 OFFCURVE",
"290.839 739.772 CURVE SMOOTH",
"290.839 743.042 OFFCURVE",
"291.213 746.461 OFFCURVE",
"292 750 CURVE SMOOTH",
"295 763 OFFCURVE",
"303 776 OFFCURVE",
"318 786 CURVE SMOOTH"
);
}
);
userData = {
com.fontlab.hintData = {
hhints = (
{
position = -2;
width = 100;
},
{
position = 584;
width = 100;
}
);
vhints = (
{
position = 48;
width = 102;
}
);
};
};
width = 658;
}
);
unicode = 0108;
},
{
glyphname = D;
layers = (
{
layerId = master01;
paths = (
{
closed = 1;
nodes = (
"104 -19 OFFCURVE",
"51 -5 OFFCURVE",
"43 -2 CURVE SMOOTH",
"25.583 3.225 OFFCURVE",
"14.234 19.825 OFFCURVE",
"14.234 38.555 CURVE SMOOTH",
"14.234 41.333 OFFCURVE",
"14.483 44.158 OFFCURVE",
"15 47 CURVE",
"140 632 LINE SMOOTH",
"146 660 OFFCURVE",
"172 681 OFFCURVE",
"200 681 CURVE SMOOTH",
"343.314 681 OFFCURVE",
"588.52 636.874 OFFCURVE",
"588.52 395.552 CURVE SMOOTH",
"588.52 367.455 OFFCURVE",
"585.196 336.685 OFFCURVE",
"578 303 CURVE SMOOTH",
"530 79 OFFCURVE",
"352 -19 OFFCURVE",
"159 -19 CURVE SMOOTH"
);
},
{
closed = 1;
nodes = (
"124 87 LINE",
"140 84 OFFCURVE",
"161 81 OFFCURVE",
"181 81 CURVE SMOOTH",
"333 81 OFFCURVE",
"446 154 OFFCURVE",
"478 303 CURVE SMOOTH",
"483.297 327.678 OFFCURVE",
"485.807 350.369 OFFCURVE",
"485.807 371.203 CURVE SMOOTH",
"485.807 511.62 OFFCURVE",
"371.811 567.68 OFFCURVE",
"229 579 CURVE"
);
}
);
userData = {
com.fontlab.hintData = {
hhints = (
{
position = -19;
width = 100;
},
{
position = 661;
width = 20;
}
);
vhints = (
{
position = 486;
width = 103;
}
);
};
};
width = 646;
}
);
unicode = 0044;
},
{
glyphname = Eth;
layers = (
{
layerId = master01;
paths = (
{
closed = 1;
nodes = (
"161 -19 OFFCURVE",
"108 -5 OFFCURVE",
"100 -2 CURVE SMOOTH",
"82.583 3.225 OFFCURVE",
"71.234 19.825 OFFCURVE",
"71.234 38.555 CURVE SMOOTH",
"71.234 41.333 OFFCURVE",
"71.483 44.158 OFFCURVE",
"72 47 CURVE",
"118 262 LINE",
"83 262 LINE SMOOTH",
"60.268 262 OFFCURVE",
"42.887 279.582 OFFCURVE",
"42.887 301.378 CURVE SMOOTH",
"42.887 304.512 OFFCURVE",
"43.246 307.732 OFFCURVE",
"44 311 CURVE SMOOTH",
"50 339 OFFCURVE",
"78 361 OFFCURVE",
"104 361 CURVE SMOOTH",
"139 361 LINE",
"197 632 LINE SMOOTH",
"203 660 OFFCURVE",
"229 681 OFFCURVE",
"257 681 CURVE SMOOTH",
"400.314 681 OFFCURVE",
"645.52 636.874 OFFCURVE",
"645.52 395.552 CURVE SMOOTH",
"645.52 367.455 OFFCURVE",
"642.196 336.685 OFFCURVE",
"635 303 CURVE SMOOTH",
"587 79 OFFCURVE",
"409 -19 OFFCURVE",
"216 -19 CURVE SMOOTH"
);
},
{
closed = 1;
nodes = (
"239 361 LINE",
"309 361 LINE SMOOTH",
"332.616 361 OFFCURVE",
"350.111 344.169 OFFCURVE",
"350.111 321.214 CURVE SMOOTH",
"350.111 317.925 OFFCURVE",
"349.752 314.51 OFFCURVE",
"349 311 CURVE SMOOTH",
"343 285 OFFCURVE",
"315 262 OFFCURVE",
"288 262 CURVE SMOOTH",
"218 262 LINE",
"181 87 LINE",
"197 84 OFFCURVE",
"218 81 OFFCURVE",
"238 81 CURVE SMOOTH",
"390 81 OFFCURVE",
"503 154 OFFCURVE",
"535 303 CURVE SMOOTH",
"540.297 327.678 OFFCURVE",
"542.807 350.369 OFFCURVE",
"542.807 371.203 CURVE SMOOTH",
"542.807 511.62 OFFCURVE",
"428.811 567.68 OFFCURVE",
"286 579 CURVE"
);
}
);
userData = {
com.fontlab.hintData = {
hhints = (
{
position = -19;
width = 100;
},
{
position = 262;
width = 99;
},
{
position = 661;
width = 20;
}
);
vhints = (
{
position = 543;
width = 103;
}
);
};
};
width = 681;
}
);
unicode = 00D0;
},
{
glyphname = Dcaron;
layers = (
{
layerId = master01;
paths = (
{
closed = 1;
nodes = (
"402 721 LINE SMOOTH",
"389 712 OFFCURVE",
"376 709 OFFCURVE",
"367 709 CURVE SMOOTH",
"355 709 OFFCURVE",
"342 715 OFFCURVE",
"333 727 CURVE SMOOTH",
"257 823 LINE SMOOTH",
"252.1 830 OFFCURVE",
"249.65 837.49 OFFCURVE",
"249.65 845.813 CURVE SMOOTH",
"249.65 849.38 OFFCURVE",
"250.1 853.1 OFFCURVE",
"251 857 CURVE SMOOTH",
"256 882 OFFCURVE",
"282 904 OFFCURVE",
"307 904 CURVE SMOOTH",
"319 904 OFFCURVE",
"328 902 OFFCURVE",
"337 892 CURVE SMOOTH",
"396 826 LINE",
"500 895 LINE SMOOTH",
"512 903 OFFCURVE",
"521 904 OFFCURVE",
"531 904 CURVE SMOOTH",
"553.048 904 OFFCURVE",
"568.874 888.444 OFFCURVE",
"568.874 866.25 CURVE SMOOTH",
"568.874 863.278 OFFCURVE",
"568.59 860.188 OFFCURVE",
"568 857 CURVE SMOOTH",
"565 844 OFFCURVE",
"556 831 OFFCURVE",
"542 821 CURVE SMOOTH"
);
},
{
closed = 1;
nodes = (
"104 -19 OFFCURVE",
"51 -5 OFFCURVE",
"43 -2 CURVE SMOOTH",
"25.583 3.225 OFFCURVE",
"14.234 19.825 OFFCURVE",
"14.234 38.555 CURVE SMOOTH",
"14.234 41.333 OFFCURVE",
"14.483 44.158 OFFCURVE",
"15 47 CURVE",
"140 632 LINE SMOOTH",
"146 660 OFFCURVE",
"172 681 OFFCURVE",
"200 681 CURVE SMOOTH",
"343.314 681 OFFCURVE",
"588.52 636.874 OFFCURVE",
"588.52 395.552 CURVE SMOOTH",
"588.52 367.455 OFFCURVE",
"585.196 336.685 OFFCURVE",
"578 303 CURVE SMOOTH",
"530 79 OFFCURVE",
"352 -19 OFFCURVE",
"159 -19 CURVE SMOOTH"
);
},
{
closed = 1;
nodes = (
"124 87 LINE",
"140 84 OFFCURVE",
"161 81 OFFCURVE",
"181 81 CURVE SMOOTH",
"333 81 OFFCURVE",
"446 154 OFFCURVE",
"478 303 CURVE SMOOTH",
"483.297 327.678 OFFCURVE",
"485.807 350.369 OFFCURVE",
"485.807 371.203 CURVE SMOOTH",
"485.807 511.62 OFFCURVE",
"371.811 567.68 OFFCURVE",
"229 579 CURVE"
);
}
);
userData = {
com.fontlab.hintData = {
hhints = (
{
position = -19;
width = 100;
},
{
position = 661;
width = 20;
}
);
vhints = (
{
position = 486;
width = 103;
}
);
};
};
width = 646;
}
);
unicode = 010E;
},
{
glyphname = Dcroat;
layers = (
{
layerId = master01;
paths = (
{
closed = 1;
nodes = (
"161 -19 OFFCURVE",
"108 -5 OFFCURVE",
"100 -2 CURVE SMOOTH",
"82.583 3.225 OFFCURVE",
"71.234 19.825 OFFCURVE",
"71.234 38.555 CURVE SMOOTH",
"71.234 41.333 OFFCURVE",
"71.483 44.158 OFFCURVE",
"72 47 CURVE",
"118 262 LINE",
"83 262 LINE SMOOTH",
"60.268 262 OFFCURVE",
"42.887 279.582 OFFCURVE",
"42.887 301.378 CURVE SMOOTH",
"42.887 304.512 OFFCURVE",
"43.246 307.732 OFFCURVE",
"44 311 CURVE SMOOTH",
"50 339 OFFCURVE",
"78 361 OFFCURVE",
"104 361 CURVE SMOOTH",
"139 361 LINE",
"197 632 LINE SMOOTH",
"203 660 OFFCURVE",
"229 681 OFFCURVE",
"257 681 CURVE SMOOTH",
"400.314 681 OFFCURVE",
"645.52 636.874 OFFCURVE",
"645.52 395.552 CURVE SMOOTH",
"645.52 367.455 OFFCURVE",
"642.196 336.685 OFFCURVE",
"635 303 CURVE SMOOTH",
"587 79 OFFCURVE",
"409 -19 OFFCURVE",
"216 -19 CURVE SMOOTH"
);
},
{
closed = 1;
nodes = (
"239 361 LINE",
"309 361 LINE SMOOTH",
"332.616 361 OFFCURVE",
"350.111 344.169 OFFCURVE",
"350.111 321.214 CURVE SMOOTH",
"350.111 317.925 OFFCURVE",
"349.752 314.51 OFFCURVE",
"349 311 CURVE SMOOTH",
"343 285 OFFCURVE",
"315 262 OFFCURVE",
"288 262 CURVE SMOOTH",
"218 262 LINE",
"181 87 LINE",
"197 84 OFFCURVE",
"218 81 OFFCURVE",
"238 81 CURVE SMOOTH",
"390 81 OFFCURVE",
"503 154 OFFCURVE",
"535 303 CURVE SMOOTH",
"540.297 327.678 OFFCURVE",
"542.807 350.369 OFFCURVE",
"542.807 371.203 CURVE SMOOTH",
"542.807 511.62 OFFCURVE",
"428.811 567.68 OFFCURVE",
"286 579 CURVE"
);
}
);
userData = {
com.fontlab.hintData = {
hhints = (
{
position = -19;
width = 100;
},
{
position = 262;
width = 99;
},
{
position = 661;
width = 20;
}
);
vhints = (
{
position = 543;
width = 103;
}
);
};
};
width = 681;
}
);
unicode = 0110;
},
{
glyphname = E;
layers = (
{
layerId = master01;
paths = (
{
closed = 1;
nodes = (
"474 100 LINE SMOOTH",
"498.056 100 OFFCURVE",
"513.254 83.762 OFFCURVE",
"513.254 61.431 CURVE SMOOTH",
"513.254 57.77 OFFCURVE",
"512.845 53.944 OFFCURVE",
"512 50 CURVE SMOOTH",
"506 22 OFFCURVE",
"481 0 OFFCURVE",
"453 0 CURVE SMOOTH",
"56 0 LINE SMOOTH",
"31.638 0 OFFCURVE",
"14.846 16.655 OFFCURVE",
"14.846 39.425 CURVE SMOOTH",
"14.846 42.826 OFFCURVE",
"15.22 46.362 OFFCURVE",
"16 50 CURVE SMOOTH",
"140 632 LINE SMOOTH",
"146 660 OFFCURVE",
"172 682 OFFCURVE",
"200 682 CURVE SMOOTH",
"599 682 LINE SMOOTH",
"623.214 682 OFFCURVE",
"639.202 665.547 OFFCURVE",
"639.202 642.989 CURVE SMOOTH",
"639.202 639.462 OFFCURVE",
"638.811 635.786 OFFCURVE",
"638 632 CURVE SMOOTH",
"632 605 OFFCURVE",
"606 582 OFFCURVE",
"578 582 CURVE SMOOTH",
"228 582 LINE",
"190 401 LINE",
"494 401 LINE SMOOTH",
"518.056 401 OFFCURVE",
"533.254 385.5 OFFCURVE",
"533.254 363.378 CURVE SMOOTH",
"533.254 359.75 OFFCURVE",
"532.845 355.944 OFFCURVE",
"532 352 CURVE SMOOTH",
"526 324 OFFCURVE",
"501 302 OFFCURVE",
"473 302 CURVE SMOOTH",
"169 302 LINE",
"126 100 LINE"
);
}
);
userData = {
com.fontlab.hintData = {
hhints = (
{
position = 0;
width = 100;
},
{
position = 302;
width = 99;
},
{
position = 582;
width = 100;
}
);
};
};
width = 636;
}
);
unicode = 0045;
},
{
glyphname = Eacute;
layers = (
{
layerId = master01;
paths = (
{
closed = 1;
nodes = (
"474 100 LINE SMOOTH",
"498.056 100 OFFCURVE",
"513.254 83.762 OFFCURVE",
"513.254 61.431 CURVE SMOOTH",
"513.254 57.77 OFFCURVE",
"512.845 53.944 OFFCURVE",
"512 50 CURVE SMOOTH",
"506 22 OFFCURVE",
"481 0 OFFCURVE",
"453 0 CURVE SMOOTH",
"56 0 LINE SMOOTH",
"31.638 0 OFFCURVE",
"14.846 16.655 OFFCURVE",
"14.846 39.425 CURVE SMOOTH",
"14.846 42.826 OFFCURVE",
"15.22 46.362 OFFCURVE",
"16 50 CURVE SMOOTH",
"140 632 LINE SMOOTH",
"146 660 OFFCURVE",
"172 682 OFFCURVE",
"200 682 CURVE SMOOTH",
"599 682 LINE SMOOTH",
"623.214 682 OFFCURVE",
"639.202 665.547 OFFCURVE",
"639.202 642.989 CURVE SMOOTH",
"639.202 639.462 OFFCURVE",
"638.811 635.786 OFFCURVE",
"638 632 CURVE SMOOTH",
"632 605 OFFCURVE",
"606 582 OFFCURVE",
"578 582 CURVE SMOOTH",
"228 582 LINE",
"190 401 LINE",
"494 401 LINE SMOOTH",
"518.056 401 OFFCURVE",
"533.254 385.5 OFFCURVE",
"533.254 363.378 CURVE SMOOTH",
"533.254 359.75 OFFCURVE",
"532.845 355.944 OFFCURVE",
"532 352 CURVE SMOOTH",
"526 324 OFFCURVE",
"501 302 OFFCURVE",
"473 302 CURVE SMOOTH",
"169 302 LINE",
"126 100 LINE"
);
},
{
closed = 1;
nodes = (
"465 883 LINE SMOOTH",
"477 891 OFFCURVE",
"493 902 OFFCURVE",
"510 902 CURVE SMOOTH",
"536.125 902 OFFCURVE",
"553.15 883.8 OFFCURVE",
"553.15 858.626 CURVE SMOOTH",
"553.15 854.892 OFFCURVE",
"552.775 851.004 OFFCURVE",
"552 847 CURVE",
"548 832 OFFCURVE",
"540 817 OFFCURVE",
"524 807 CURVE SMOOTH",
"382 722 LINE SMOOTH",
"370 715 OFFCURVE",
"357 709 OFFCURVE",
"346 709 CURVE SMOOTH",
"324.842 709 OFFCURVE",
"309.124 725.321 OFFCURVE",
"309.124 747.686 CURVE SMOOTH",
"309.124 750.69 OFFCURVE",
"309.408 753.803 OFFCURVE",
"310 757 CURVE",
"313 768 OFFCURVE",
"318 781 OFFCURVE",
"330 790 CURVE SMOOTH"
);
}
);
userData = {
com.fontlab.hintData = {
hhints = (
{
position = 0;
width = 100;
},
{
position = 302;
width = 99;
},
{
position = 582;
width = 100;
}
);
};
};
width = 636;
}
);
unicode = 00C9;
},
{
glyphname = Ecaron;
layers = (
{
layerId = master01;
paths = (
{
closed = 1;
nodes = (
"434 721 LINE SMOOTH",
"421 712 OFFCURVE",
"408 709 OFFCURVE",
"399 709 CURVE SMOOTH",
"387 709 OFFCURVE",
"374 715 OFFCURVE",
"365 727 CURVE SMOOTH",
"289 823 LINE SMOOTH",
"284.1 830 OFFCURVE",
"281.65 837.49 OFFCURVE",
"281.65 845.813 CURVE SMOOTH",
"281.65 849.38 OFFCURVE",
"282.1 853.1 OFFCURVE",
"283 857 CURVE SMOOTH",
"288 882 OFFCURVE",
"314 904 OFFCURVE",
"339 904 CURVE SMOOTH",
"351 904 OFFCURVE",
"360 902 OFFCURVE",
"369 892 CURVE SMOOTH",
"428 826 LINE",
"532 895 LINE SMOOTH",
"544 903 OFFCURVE",
"553 904 OFFCURVE",
"563 904 CURVE SMOOTH",
"585.048 904 OFFCURVE",
"600.874 888.444 OFFCURVE",
"600.874 866.25 CURVE SMOOTH",
"600.874 863.278 OFFCURVE",
"600.59 860.188 OFFCURVE",
"600 857 CURVE SMOOTH",
"597 844 OFFCURVE",
"588 831 OFFCURVE",
"574 821 CURVE SMOOTH"
);
},
{
closed = 1;
nodes = (
"474 100 LINE SMOOTH",
"498.056 100 OFFCURVE",
"513.254 83.762 OFFCURVE",
"513.254 61.431 CURVE SMOOTH",
"513.254 57.77 OFFCURVE",
"512.845 53.944 OFFCURVE",
"512 50 CURVE SMOOTH",
"506 22 OFFCURVE",
"481 0 OFFCURVE",
"453 0 CURVE SMOOTH",
"56 0 LINE SMOOTH",
"31.638 0 OFFCURVE",
"14.846 16.655 OFFCURVE",
"14.846 39.425 CURVE SMOOTH",
"14.846 42.826 OFFCURVE",
"15.22 46.362 OFFCURVE",
"16 50 CURVE SMOOTH",
"140 632 LINE SMOOTH",
"146 660 OFFCURVE",
"172 682 OFFCURVE",
"200 682 CURVE SMOOTH",
"599 682 LINE SMOOTH",
"623.214 682 OFFCURVE",
"639.202 665.547 OFFCURVE",
"639.202 642.989 CURVE SMOOTH",
"639.202 639.462 OFFCURVE",
"638.811 635.786 OFFCURVE",
"638 632 CURVE SMOOTH",
"632 605 OFFCURVE",
"606 582 OFFCURVE",
"578 582 CURVE SMOOTH",
"228 582 LINE",
"190 401 LINE",
"494 401 LINE SMOOTH",
"518.056 401 OFFCURVE",
"533.254 385.5 OFFCURVE",
"533.254 363.378 CURVE SMOOTH",
"533.254 359.75 OFFCURVE",
"532.845 355.944 OFFCURVE",
"532 352 CURVE SMOOTH",
"526 324 OFFCURVE",
"501 302 OFFCURVE",
"473 302 CURVE SMOOTH",
"169 302 LINE",
"126 100 LINE"
);
}
);
userData = {
com.fontlab.hintData = {
hhints = (
{
position = 0;
width = 100;
},
{
position = 302;
width = 99;
},
{
position = 582;
width = 100;
}
);
};
};
width = 636;
}
);
unicode = 011A;
},
{
glyphname = Ecircumflex;
layers = (
{
layerId = master01;
paths = (
{
closed = 1;
nodes = (
"474 100 LINE SMOOTH",
"498.056 100 OFFCURVE",
"513.254 83.762 OFFCURVE",
"513.254 61.431 CURVE SMOOTH",
"513.254 57.77 OFFCURVE",
"512.845 53.944 OFFCURVE",
"512 50 CURVE SMOOTH",
"506 22 OFFCURVE",
"481 0 OFFCURVE",
"453 0 CURVE SMOOTH",
"56 0 LINE SMOOTH",
"31.638 0 OFFCURVE",
"14.846 16.655 OFFCURVE",
"14.846 39.425 CURVE SMOOTH",
"14.846 42.826 OFFCURVE",
"15.22 46.362 OFFCURVE",
"16 50 CURVE SMOOTH",
"140 632 LINE SMOOTH",
"146 660 OFFCURVE",
"172 682 OFFCURVE",
"200 682 CURVE SMOOTH",
"599 682 LINE SMOOTH",
"623.214 682 OFFCURVE",
"639.202 665.547 OFFCURVE",
"639.202 642.989 CURVE SMOOTH",
"639.202 639.462 OFFCURVE",
"638.811 635.786 OFFCURVE",
"638 632 CURVE SMOOTH",
"632 605 OFFCURVE",
"606 582 OFFCURVE",
"578 582 CURVE SMOOTH",
"228 582 LINE",
"190 401 LINE",
"494 401 LINE SMOOTH",
"518.056 401 OFFCURVE",
"533.254 385.5 OFFCURVE",
"533.254 363.378 CURVE SMOOTH",
"533.254 359.75 OFFCURVE",
"532.845 355.944 OFFCURVE",
"532 352 CURVE SMOOTH",
"526 324 OFFCURVE",
"501 302 OFFCURVE",
"473 302 CURVE SMOOTH",
"169 302 LINE",
"126 100 LINE"
);
},
{
closed = 1;
nodes = (
"433 886 LINE SMOOTH",
"446 895 OFFCURVE",
"458 898 OFFCURVE",
"467 898 CURVE SMOOTH",
"479 898 OFFCURVE",
"492 892 OFFCURVE",
"502 880 CURVE SMOOTH",
"577 784 LINE SMOOTH",
"582.668 776.915 OFFCURVE",
"585.324 769.328 OFFCURVE",
"585.324 760.884 CURVE SMOOTH",
"585.324 757.409 OFFCURVE",
"584.875 753.79 OFFCURVE",
"584 750 CURVE SMOOTH",
"579 725 OFFCURVE",
"553 703 OFFCURVE",
"528 703 CURVE SMOOTH",
"516 703 OFFCURVE",
"506 705 OFFCURVE",
"497 715 CURVE SMOOTH",
"439 781 LINE",
"335 712 LINE SMOOTH",
"322 704 OFFCURVE",
"314 703 OFFCURVE",
"304 703 CURVE SMOOTH",
"282.277 703 OFFCURVE",
"265.839 718.1 OFFCURVE",
"265.839 739.772 CURVE SMOOTH",
"265.839 743.042 OFFCURVE",
"266.213 746.461 OFFCURVE",
"267 750 CURVE SMOOTH",
"270 763 OFFCURVE",
"278 776 OFFCURVE",
"293 786 CURVE SMOOTH"
);
}
);
userData = {
com.fontlab.hintData = {
hhints = (
{
position = 0;
width = 100;
},
{
position = 302;
width = 99;
},
{
position = 582;
width = 100;
}
);
};
};
width = 636;
}
);
unicode = 00CA;
},
{
glyphname = Edieresis;
layers = (
{
layerId = master01;
paths = (
{
closed = 1;
nodes = (
"389 732 OFFCURVE",
"352 703 OFFCURVE",
"312 703 CURVE SMOOTH",
"279.46 703 OFFCURVE",
"257.748 721.563 OFFCURVE",
"257.748 749.845 CURVE SMOOTH",
"257.748 753.722 OFFCURVE",
"258.156 757.781 OFFCURVE",
"259 762 CURVE",
"267 796 OFFCURVE",
"304 827 OFFCURVE",
"343 827 CURVE SMOOTH",
"373.344 827 OFFCURVE",
"398.112 806.291 OFFCURVE",
"398.112 777.668 CURVE SMOOTH",
"398.112 774.22 OFFCURVE",
"397.753 770.656 OFFCURVE",
"397 767 CURVE SMOOTH"
);
},
{
closed = 1;
nodes = (
"577 732 OFFCURVE",
"540 703 OFFCURVE",
"500 703 CURVE SMOOTH",
"468.216 703 OFFCURVE",
"445.786 721.708 OFFCURVE",
"445.786 750.177 CURVE SMOOTH",
"445.786 753.953 OFFCURVE",
"446.18 757.901 OFFCURVE",
"447 762 CURVE",
"455 796 OFFCURVE",
"492 827 OFFCURVE",
"531 827 CURVE SMOOTH",
"561.344 827 OFFCURVE",
"586.112 806.291 OFFCURVE",
"586.112 777.668 CURVE SMOOTH",
"586.112 774.22 OFFCURVE",
"585.753 770.656 OFFCURVE",
"585 767 CURVE SMOOTH"
);
},
{
closed = 1;
nodes = (
"474 100 LINE SMOOTH",
"498.056 100 OFFCURVE",
"513.254 83.762 OFFCURVE",
"513.254 61.431 CURVE SMOOTH",
"513.254 57.77 OFFCURVE",
"512.845 53.944 OFFCURVE",
"512 50 CURVE SMOOTH",
"506 22 OFFCURVE",
"481 0 OFFCURVE",
"453 0 CURVE SMOOTH",
"56 0 LINE SMOOTH",
"31.638 0 OFFCURVE",
"14.846 16.655 OFFCURVE",
"14.846 39.425 CURVE SMOOTH",
"14.846 42.826 OFFCURVE",
"15.22 46.362 OFFCURVE",
"16 50 CURVE SMOOTH",
"140 632 LINE SMOOTH",
"146 660 OFFCURVE",
"172 682 OFFCURVE",
"200 682 CURVE SMOOTH",
"599 682 LINE SMOOTH",
"623.214 682 OFFCURVE",
"639.202 665.547 OFFCURVE",
"639.202 642.989 CURVE SMOOTH",
"639.202 639.462 OFFCURVE",
"638.811 635.786 OFFCURVE",
"638 632 CURVE SMOOTH",
"632 605 OFFCURVE",
"606 582 OFFCURVE",
"578 582 CURVE SMOOTH",
"228 582 LINE",
"190 401 LINE",
"494 401 LINE SMOOTH",
"518.056 401 OFFCURVE",
"533.254 385.5 OFFCURVE",
"533.254 363.378 CURVE SMOOTH",
"533.254 359.75 OFFCURVE",
"532.845 355.944 OFFCURVE",
"532 352 CURVE SMOOTH",
"526 324 OFFCURVE",
"501 302 OFFCURVE",
"473 302 CURVE SMOOTH",
"169 302 LINE",
"126 100 LINE"
);
}
);
userData = {
com.fontlab.hintData = {
hhints = (
{
position = 0;
width = 100;
},
{
position = 302;
width = 99;
},
{
position = 582;
width = 100;
},
{
position = 703;
width = 124;
}
);
vhints = (
{
position = 258;
width = 140;
},
{
position = 446;
width = 140;
}
);
};
};
width = 636;
}
);
unicode = 00CB;
},
{
glyphname = Egrave;
layers = (
{
layerId = master01;
paths = (
{
closed = 1;
nodes = (
"474 100 LINE SMOOTH",
"498.056 100 OFFCURVE",
"513.254 83.762 OFFCURVE",
"513.254 61.431 CURVE SMOOTH",
"513.254 57.77 OFFCURVE",
"512.845 53.944 OFFCURVE",
"512 50 CURVE SMOOTH",
"506 22 OFFCURVE",
"481 0 OFFCURVE",
"453 0 CURVE SMOOTH",
"56 0 LINE SMOOTH",
"31.638 0 OFFCURVE",
"14.846 16.655 OFFCURVE",
"14.846 39.425 CURVE SMOOTH",
"14.846 42.826 OFFCURVE",
"15.22 46.362 OFFCURVE",
"16 50 CURVE SMOOTH",
"140 632 LINE SMOOTH",
"146 660 OFFCURVE",
"172 682 OFFCURVE",
"200 682 CURVE SMOOTH",
"599 682 LINE SMOOTH",
"623.214 682 OFFCURVE",
"639.202 665.547 OFFCURVE",
"639.202 642.989 CURVE SMOOTH",
"639.202 639.462 OFFCURVE",
"638.811 635.786 OFFCURVE",
"638 632 CURVE SMOOTH",
"632 605 OFFCURVE",
"606 582 OFFCURVE",
"578 582 CURVE SMOOTH",
"228 582 LINE",
"190 401 LINE",
"494 401 LINE SMOOTH",
"518.056 401 OFFCURVE",
"533.254 385.5 OFFCURVE",
"533.254 363.378 CURVE SMOOTH",
"533.254 359.75 OFFCURVE",
"532.845 355.944 OFFCURVE",
"532 352 CURVE SMOOTH",
"526 324 OFFCURVE",
"501 302 OFFCURVE",
"473 302 CURVE SMOOTH",
"169 302 LINE",
"126 100 LINE"
);
},
{
closed = 1;
nodes = (
"318 824 LINE SMOOTH",
"312.144 831.321 OFFCURVE",
"308.431 839.713 OFFCURVE",
"308.431 849.962 CURVE SMOOTH",
"308.431 853.713 OFFCURVE",
"308.928 857.713 OFFCURVE",
"310 862 CURVE SMOOTH",
"316 890 OFFCURVE",
"347 916 OFFCURVE",
"375 916 CURVE SMOOTH",
"393 916 OFFCURVE",
"407 906 OFFCURVE",
"415 894 CURVE",
"484 775 LINE SMOOTH",
"488.963 766.492 OFFCURVE",
"490.91 759.995 OFFCURVE",
"490.91 753.37 CURVE SMOOTH",
"490.91 750.651 OFFCURVE",
"490.582 747.91 OFFCURVE",
"490 745 CURVE SMOOTH",
"484 718 OFFCURVE",
"456 698 OFFCURVE",
"432 698 CURVE SMOOTH",
"417 698 OFFCURVE",
"407 704 OFFCURVE",
"401 713 CURVE SMOOTH"
);
}
);
userData = {
com.fontlab.hintData = {
hhints = (
{
position = 0;
width = 100;
},
{
position = 302;
width = 99;
},
{
position = 582;
width = 100;
}
);
};
};
width = 636;
}
);
unicode = 00C8;
},
{
glyphname = Eogonek;
layers = (
{
layerId = master01;
paths = (
{
closed = 1;
nodes = (
"305.447 -196 OFFCURVE",
"266.913 -159.669 OFFCURVE",
"266.913 -106.16 CURVE SMOOTH",
"266.913 -97.527 OFFCURVE",
"267.916 -88.447 OFFCURVE",
"270 -79 CURVE SMOOTH",
"276 -49 OFFCURVE",
"293 -22 OFFCURVE",
"314 0 CURVE",
"56 0 LINE SMOOTH",
"31.638 0 OFFCURVE",
"14.846 16.655 OFFCURVE",
"14.846 39.425 CURVE SMOOTH",
"14.846 42.826 OFFCURVE",
"15.22 46.362 OFFCURVE",
"16 50 CURVE SMOOTH",
"140 632 LINE SMOOTH",
"146 660 OFFCURVE",
"172 682 OFFCURVE",
"200 682 CURVE SMOOTH",
"599 682 LINE SMOOTH",
"623.214 682 OFFCURVE",
"639.202 665.547 OFFCURVE",
"639.202 642.989 CURVE SMOOTH",
"639.202 639.462 OFFCURVE",
"638.811 635.786 OFFCURVE",
"638 632 CURVE SMOOTH",
"632 605 OFFCURVE",
"606 582 OFFCURVE",
"578 582 CURVE SMOOTH",
"228 582 LINE",
"190 401 LINE",
"494 401 LINE SMOOTH",
"518.056 401 OFFCURVE",
"533.254 385.5 OFFCURVE",
"533.254 363.378 CURVE SMOOTH",
"533.254 359.75 OFFCURVE",
"532.845 355.944 OFFCURVE",
"532 352 CURVE SMOOTH",
"526 324 OFFCURVE",
"501 302 OFFCURVE",
"473 302 CURVE SMOOTH",
"169 302 LINE",
"126 100 LINE",
"474 100 LINE SMOOTH",
"498.056 100 OFFCURVE",
"513.254 83.762 OFFCURVE",
"513.254 61.431 CURVE SMOOTH",
"513.254 57.77 OFFCURVE",
"512.845 53.944 OFFCURVE",
"512 50 CURVE SMOOTH",
"502 4 OFFCURVE",
"471 8 OFFCURVE",
"418 -21 CURVE SMOOTH",
"389 -37 OFFCURVE",
"367 -51 OFFCURVE",
"361 -76 CURVE SMOOTH",
"360.438 -78.671 OFFCURVE",
"360.172 -81.144 OFFCURVE",
"360.172 -83.423 CURVE SMOOTH",
"360.172 -97.353 OFFCURVE",
"370.109 -104 OFFCURVE",
"383 -104 CURVE SMOOTH",
"396 -104 OFFCURVE",
"412 -100 OFFCURVE",
"426 -90 CURVE SMOOTH",
"439 -82 OFFCURVE",
"447 -80 OFFCURVE",
"457 -80 CURVE SMOOTH",
"475.697 -80 OFFCURVE",
"492.808 -97.439 OFFCURVE",
"492.808 -118.202 CURVE SMOOTH",
"492.808 -120.759 OFFCURVE",
"492.548 -123.368 OFFCURVE",
"492 -126 CURVE SMOOTH",
"483 -168 OFFCURVE",
"403 -196 OFFCURVE",
"364 -196 CURVE SMOOTH"
);
}
);
userData = {
com.fontlab.hintData = {
hhints = (
{
position = -196;
width = 92;
},
{
position = 0;
width = 100;
},
{
position = 302;
width = 99;
},
{
position = 582;
width = 100;
}
);
vhints = (
{
position = 267;
width = 93;
}
);
};
};
width = 636;
}
);
unicode = 0118;
},
{
glyphname = F;
layers = (
{
layerId = master01;
paths = (
{
closed = 1;
nodes = (
"111 49 LINE SMOOTH",
"105 21 OFFCURVE",
"78 -1 OFFCURVE",
"50 -1 CURVE SMOOTH",
"25.786 -1 OFFCURVE",
"9.798 15.453 OFFCURVE",
"9.798 38.011 CURVE SMOOTH",
"9.798 41.538 OFFCURVE",
"10.189 45.214 OFFCURVE",
"11 49 CURVE SMOOTH",
"135 631 LINE SMOOTH",
"141 659 OFFCURVE",
"167 681 OFFCURVE",
"195 681 CURVE SMOOTH",
"594 681 LINE SMOOTH",
"618.214 681 OFFCURVE",
"634.202 664.547 OFFCURVE",
"634.202 641.989 CURVE SMOOTH",
"634.202 638.462 OFFCURVE",
"633.811 634.786 OFFCURVE",
"633 631 CURVE SMOOTH",
"627 605 OFFCURVE",
"601 581 OFFCURVE",
"573 581 CURVE SMOOTH",
"224 581 LINE",
"186 401 LINE",
"452 401 LINE SMOOTH",
"476.056 401 OFFCURVE",
"491.254 384.024 OFFCURVE",
"491.254 361.485 CURVE SMOOTH",
"491.254 357.79 OFFCURVE",
"490.845 353.944 OFFCURVE",
"490 350 CURVE SMOOTH",
"484 324 OFFCURVE",
"458 301 OFFCURVE",
"430 301 CURVE SMOOTH",
"164 301 LINE"
);
}
);
userData = {
com.fontlab.hintData = {
hhints = (
{
position = -1;
width = 21;
},
{
position = 301;
width = 100;
},
{
position = 581;
width = 100;
}
);
};
};
width = 571;
}
);
unicode = 0046;
},
{
glyphname = G;
layers = (
{
layerId = master01;
paths = (
{
closed = 1;
nodes = (
"685.912 299.619 OFFCURVE",
"692.778 287.147 OFFCURVE",
"692.778 272.126 CURVE SMOOTH",
"692.778 267.607 OFFCURVE",
"692.156 262.857 OFFCURVE",
"691 258 CURVE SMOOTH",
"685 229 OFFCURVE",
"658 210 OFFCURVE",
"634 209 CURVE",
"573 90 OFFCURVE",
"453 -1 OFFCURVE",
"306 -1 CURVE SMOOTH",
"147.769 -1 OFFCURVE",
"64.716 115.704 OFFCURVE",
"64.716 254.604 CURVE SMOOTH",
"64.716 279.858 OFFCURVE",
"67.462 305.846 OFFCURVE",
"73 332 CURVE SMOOTH",
"108 498 OFFCURVE",
"271 683 OFFCURVE",
"467 683 CURVE SMOOTH",
"643.14 683 OFFCURVE",
"694.343 553.065 OFFCURVE",
"694.343 497.677 CURVE SMOOTH",
"694.343 492.375 OFFCURVE",
"693.874 487.756 OFFCURVE",
"693 484 CURVE SMOOTH",
"687 456 OFFCURVE",
"665 438 OFFCURVE",
"636 438 CURVE SMOOTH",
"613 438 OFFCURVE",
"599 448 OFFCURVE",
"594 470 CURVE",
"586 524 OFFCURVE",
"549 583 OFFCURVE",
"445 583 CURVE SMOOTH",
"283 583 OFFCURVE",
"189 409 OFFCURVE",
"173 332 CURVE SMOOTH",
"169.429 314.824 OFFCURVE",
"167.535 296.75 OFFCURVE",
"167.535 278.583 CURVE SMOOTH",
"167.535 189.921 OFFCURVE",
"212.639 99 OFFCURVE",
"328 99 CURVE SMOOTH",
"414 99 OFFCURVE",
"490 145 OFFCURVE",
"537 223 CURVE",
"493 222 OFFCURVE",
"462 215 OFFCURVE",
"442 210 CURVE SMOOTH",
"433 208 OFFCURVE",
"425 206 OFFCURVE",
"416 206 CURVE SMOOTH",
"394.433 206 OFFCURVE",
"376.587 219.396 OFFCURVE",
"376.587 243.62 CURVE SMOOTH",
"376.587 247.476 OFFCURVE",
"377.039 251.606 OFFCURVE",
"378 256 CURVE SMOOTH",
"382 277 OFFCURVE",
"398 296 OFFCURVE",
"423 304 CURVE",
"445 314 OFFCURVE",
"507 322 OFFCURVE",
"562 322 CURVE SMOOTH",
"598 322 OFFCURVE",
"634 317 OFFCURVE",
"669 305 CURVE SMOOTH"
);
}
);
userData = {
com.fontlab.hintData = {
hhints = (
{
position = -1;
width = 100;
},
{
position = 206;
width = 98;
},
{
position = 223;
width = 99;
},
{
position = 583;
width = 100;
}
);
vhints = (
{
position = 65;
width = 103;
},
{
position = 594;
width = 99;
}
);
};
};
width = 777;
}
);
unicode = 0047;
},
{
glyphname = Gcircumflex;
layers = (
{
layerId = master01;
paths = (
{
closed = 1;
nodes = (
"685.912 299.619 OFFCURVE",
"692.778 287.147 OFFCURVE",
"692.778 272.126 CURVE SMOOTH",
"692.778 267.607 OFFCURVE",
"692.156 262.857 OFFCURVE",
"691 258 CURVE SMOOTH",
"685 229 OFFCURVE",
"658 210 OFFCURVE",
"634 209 CURVE",
"573 90 OFFCURVE",
"453 -1 OFFCURVE",
"306 -1 CURVE SMOOTH",
"147.769 -1 OFFCURVE",
"64.716 115.704 OFFCURVE",
"64.716 254.604 CURVE SMOOTH",
"64.716 279.858 OFFCURVE",
"67.462 305.846 OFFCURVE",
"73 332 CURVE SMOOTH",
"108 498 OFFCURVE",
"271 683 OFFCURVE",
"467 683 CURVE SMOOTH",
"643.14 683 OFFCURVE",
"694.343 553.065 OFFCURVE",
"694.343 497.677 CURVE SMOOTH",
"694.343 492.375 OFFCURVE",
"693.874 487.756 OFFCURVE",
"693 484 CURVE SMOOTH",
"687 456 OFFCURVE",
"665 438 OFFCURVE",
"636 438 CURVE SMOOTH",
"613 438 OFFCURVE",
"599 448 OFFCURVE",
"594 470 CURVE SMOOTH",
"586 524 OFFCURVE",
"549 583 OFFCURVE",
"445 583 CURVE SMOOTH",
"283 583 OFFCURVE",
"189 409 OFFCURVE",
"173 332 CURVE SMOOTH",
"169.429 314.824 OFFCURVE",
"167.535 296.75 OFFCURVE",
"167.535 278.583 CURVE SMOOTH",
"167.535 189.921 OFFCURVE",
"212.639 99 OFFCURVE",
"328 99 CURVE SMOOTH",
"414 99 OFFCURVE",
"490 145 OFFCURVE",
"537 223 CURVE",
"493 222 OFFCURVE",
"462 215 OFFCURVE",
"442 210 CURVE SMOOTH",
"433 208 OFFCURVE",
"425 206 OFFCURVE",
"416 206 CURVE SMOOTH",
"394.433 206 OFFCURVE",
"376.587 219.396 OFFCURVE",
"376.587 243.62 CURVE SMOOTH",
"376.587 247.476 OFFCURVE",
"377.039 251.606 OFFCURVE",
"378 256 CURVE SMOOTH",
"382 277 OFFCURVE",
"398 296 OFFCURVE",
"423 304 CURVE SMOOTH",
"445 314 OFFCURVE",
"507 322 OFFCURVE",
"562 322 CURVE SMOOTH",
"598 322 OFFCURVE",
"634 317 OFFCURVE",
"669 305 CURVE SMOOTH"
);
},
{
closed = 1;
nodes = (
"488 886 LINE SMOOTH",
"501 895 OFFCURVE",
"513 898 OFFCURVE",
"522 898 CURVE SMOOTH",
"534 898 OFFCURVE",
"547 892 OFFCURVE",
"557 880 CURVE SMOOTH",
"632 784 LINE SMOOTH",
"637.668 776.915 OFFCURVE",
"640.324 769.328 OFFCURVE",
"640.324 760.884 CURVE SMOOTH",
"640.324 757.409 OFFCURVE",
"639.875 753.79 OFFCURVE",
"639 750 CURVE SMOOTH",
"634 725 OFFCURVE",
"608 703 OFFCURVE",
"583 703 CURVE SMOOTH",
"571 703 OFFCURVE",
"561 705 OFFCURVE",
"552 715 CURVE SMOOTH",
"494 781 LINE",
"390 712 LINE SMOOTH",
"377 704 OFFCURVE",
"369 703 OFFCURVE",
"359 703 CURVE SMOOTH",
"337.277 703 OFFCURVE",
"320.839 718.1 OFFCURVE",
"320.839 739.772 CURVE SMOOTH",
"320.839 743.042 OFFCURVE",
"321.213 746.461 OFFCURVE",
"322 750 CURVE SMOOTH",
"325 763 OFFCURVE",
"333 776 OFFCURVE",
"348 786 CURVE SMOOTH"
);
}
);
userData = {
com.fontlab.hintData = {
hhints = (
{
position = -1;
width = 100;
},
{
position = 206;
width = 98;
},
{
position = 223;
width = 99;
},
{
position = 583;
width = 100;
}
);
vhints = (
{
position = 65;
width = 103;
},
{
position = 594;
width = 99;
}
);
};
};
width = 777;
}
);
unicode = 011C;
},
{
glyphname = H;
layers = (
{
layerId = master01;
paths = (
{
closed = 1;
nodes = (
"687.854 681 OFFCURVE",
"706.071 664.775 OFFCURVE",
"706.071 641.833 CURVE SMOOTH",
"706.071 638.674 OFFCURVE",
"705.726 635.388 OFFCURVE",
"705 632 CURVE SMOOTH",
"581 49 LINE SMOOTH",
"575 23 OFFCURVE",
"547 0 OFFCURVE",
"521 0 CURVE SMOOTH",
"496.638 0 OFFCURVE",
"479.846 17.412 OFFCURVE",
"479.846 39.062 CURVE SMOOTH",
"479.846 42.295 OFFCURVE",
"480.22 45.622 OFFCURVE",
"481 49 CURVE SMOOTH",
"539 322 LINE",
"164 271 LINE",
"117 49 LINE SMOOTH",
"111 23 OFFCURVE",
"84 0 OFFCURVE",
"56 0 CURVE SMOOTH",
"31.786 0 OFFCURVE",
"15.798 17.201 OFFCURVE",
"15.798 38.668 CURVE SMOOTH",
"15.798 42.024 OFFCURVE",
"16.189 45.485 OFFCURVE",
"17 49 CURVE SMOOTH",
"141 632 LINE SMOOTH",
"147 660 OFFCURVE",
"172 681 OFFCURVE",
"200 681 CURVE SMOOTH",
"224.5 681 OFFCURVE",
"242.109 664.922 OFFCURVE",
"242.109 642.145 CURVE SMOOTH",
"242.109 638.891 OFFCURVE",
"241.75 635.5 OFFCURVE",
"241 632 CURVE SMOOTH",
"186 372 LINE",
"560 423 LINE",
"605 632 LINE SMOOTH",
"611 660 OFFCURVE",
"637 681 OFFCURVE",
"665 681 CURVE SMOOTH"
);
}
);
userData = {
com.fontlab.hintData = {
hhints = (
{
position = 0;
width = 21;
},
{
position = 661;
width = 20;
}
);
};
};
width = 711;
}
);
unicode = 0048;
},
{
glyphname = Hcircumflex;
layers = (
{
layerId = master01;
paths = (
{
closed = 1;
nodes = (
"687.854 681 OFFCURVE",
"706.071 664.775 OFFCURVE",
"706.071 641.833 CURVE SMOOTH",
"706.071 638.674 OFFCURVE",
"705.726 635.388 OFFCURVE",
"705 632 CURVE SMOOTH",
"581 49 LINE SMOOTH",
"575 23 OFFCURVE",
"547 0 OFFCURVE",
"521 0 CURVE SMOOTH",
"496.638 0 OFFCURVE",
"479.846 17.412 OFFCURVE",
"479.846 39.062 CURVE SMOOTH",
"479.846 42.295 OFFCURVE",
"480.22 45.622 OFFCURVE",
"481 49 CURVE SMOOTH",
"539 322 LINE",
"164 271 LINE",
"117 49 LINE SMOOTH",
"111 23 OFFCURVE",
"84 0 OFFCURVE",
"56 0 CURVE SMOOTH",
"31.786 0 OFFCURVE",
"15.798 17.201 OFFCURVE",
"15.798 38.668 CURVE SMOOTH",
"15.798 42.024 OFFCURVE",
"16.189 45.485 OFFCURVE",
"17 49 CURVE SMOOTH",
"141 632 LINE SMOOTH",
"147 660 OFFCURVE",
"172 681 OFFCURVE",
"200 681 CURVE SMOOTH",
"224.5 681 OFFCURVE",
"242.109 664.922 OFFCURVE",
"242.109 642.145 CURVE SMOOTH",
"242.109 638.891 OFFCURVE",
"241.75 635.5 OFFCURVE",
"241 632 CURVE SMOOTH",
"186 372 LINE",
"560 423 LINE",
"605 632 LINE SMOOTH",
"611 660 OFFCURVE",
"637 681 OFFCURVE",
"665 681 CURVE SMOOTH"
);
},
{
closed = 1;
nodes = (
"445 886 LINE SMOOTH",
"458 895 OFFCURVE",
"470 898 OFFCURVE",
"479 898 CURVE SMOOTH",
"491 898 OFFCURVE",
"504 892 OFFCURVE",
"514 880 CURVE SMOOTH",
"589 784 LINE SMOOTH",
"594.668 776.915 OFFCURVE",
"597.324 769.328 OFFCURVE",
"597.324 760.884 CURVE SMOOTH",
"597.324 757.409 OFFCURVE",
"596.875 753.79 OFFCURVE",
"596 750 CURVE SMOOTH",
"591 725 OFFCURVE",
"565 703 OFFCURVE",
"540 703 CURVE SMOOTH",
"528 703 OFFCURVE",
"518 705 OFFCURVE",
"509 715 CURVE SMOOTH",
"451 781 LINE",
"347 712 LINE SMOOTH",
"334 704 OFFCURVE",
"326 703 OFFCURVE",
"316 703 CURVE SMOOTH",
"294.277 703 OFFCURVE",
"277.839 718.1 OFFCURVE",
"277.839 739.772 CURVE SMOOTH",
"277.839 743.042 OFFCURVE",
"278.213 746.461 OFFCURVE",
"279 750 CURVE SMOOTH",
"282 763 OFFCURVE",
"290 776 OFFCURVE",
"305 786 CURVE SMOOTH"
);
}
);
userData = {
com.fontlab.hintData = {
hhints = (
{
position = 0;
width = 21;
},
{
position = 661;
width = 20;
}
);
};
};
width = 711;
}
);
unicode = 0124;
},
{
glyphname = I;
layers = (
{
layerId = master01;
paths = (
{
closed = 1;
nodes = (
"308 99 LINE SMOOTH",
"333.43 99 OFFCURVE",
"347.364 83.192 OFFCURVE",
"347.364 61.321 CURVE SMOOTH",
"347.364 57.391 OFFCURVE",
"346.914 53.265 OFFCURVE",
"346 49 CURVE SMOOTH",
"340 21 OFFCURVE",
"314 -1 OFFCURVE",
"286 -1 CURVE SMOOTH",
"47 -1 LINE SMOOTH",
"22.786 -1 OFFCURVE",
"6.798 15.453 OFFCURVE",
"6.798 38.011 CURVE SMOOTH",
"6.798 41.538 OFFCURVE",
"7.189 45.214 OFFCURVE",
"8 49 CURVE SMOOTH",
"14 77 OFFCURVE",
"41 99 OFFCURVE",
"69 99 CURVE SMOOTH",
"139 99 LINE",
"241 581 LINE",
"171 581 LINE SMOOTH",
"146.786 581 OFFCURVE",
"130.798 598.201 OFFCURVE",
"130.798 620.962 CURVE SMOOTH",
"130.798 624.52 OFFCURVE",
"131.189 628.214 OFFCURVE",
"132 632 CURVE SMOOTH",
"138 660 OFFCURVE",
"164 681 OFFCURVE",
"192 681 CURVE SMOOTH",
"431 681 LINE SMOOTH",
"455.214 681 OFFCURVE",
"471.202 665.295 OFFCURVE",
"471.202 642.939 CURVE SMOOTH",
"471.202 639.443 OFFCURVE",
"470.811 635.786 OFFCURVE",
"470 632 CURVE SMOOTH",
"464 604 OFFCURVE",
"438 581 OFFCURVE",
"410 581 CURVE SMOOTH",
"341 581 LINE",
"239 99 LINE"
);
}
);
userData = {
com.fontlab.hintData = {
hhints = (
{
position = -1;
width = 100;
},
{
position = 581;
width = 100;
}
);
};
};
width = 459;
}
);
unicode = 0049;
},
{
glyphname = Iacute;
layers = (
{
layerId = master01;
paths = (
{
closed = 1;
nodes = (
"308 99 LINE SMOOTH",
"333.43 99 OFFCURVE",
"347.364 83.192 OFFCURVE",
"347.364 61.321 CURVE SMOOTH",
"347.364 57.391 OFFCURVE",
"346.914 53.265 OFFCURVE",
"346 49 CURVE SMOOTH",
"340 21 OFFCURVE",
"314 -1 OFFCURVE",
"286 -1 CURVE SMOOTH",
"47 -1 LINE SMOOTH",
"22.786 -1 OFFCURVE",
"6.798 15.453 OFFCURVE",
"6.798 38.011 CURVE SMOOTH",
"6.798 41.538 OFFCURVE",
"7.189 45.214 OFFCURVE",
"8 49 CURVE SMOOTH",
"14 77 OFFCURVE",
"41 99 OFFCURVE",
"69 99 CURVE SMOOTH",
"139 99 LINE",
"241 581 LINE",
"171 581 LINE SMOOTH",
"146.786 581 OFFCURVE",
"130.798 598.201 OFFCURVE",
"130.798 620.962 CURVE SMOOTH",
"130.798 624.52 OFFCURVE",
"131.189 628.214 OFFCURVE",
"132 632 CURVE SMOOTH",
"138 660 OFFCURVE",
"164 681 OFFCURVE",
"192 681 CURVE SMOOTH",
"431 681 LINE SMOOTH",
"455.214 681 OFFCURVE",
"471.202 665.295 OFFCURVE",
"471.202 642.939 CURVE SMOOTH",
"471.202 639.443 OFFCURVE",
"470.811 635.786 OFFCURVE",
"470 632 CURVE SMOOTH",
"464 604 OFFCURVE",
"438 581 OFFCURVE",
"410 581 CURVE SMOOTH",
"341 581 LINE",
"239 99 LINE"
);
},
{
closed = 1;
nodes = (
"390 883 LINE SMOOTH",
"402 891 OFFCURVE",
"418 902 OFFCURVE",
"435 902 CURVE SMOOTH",
"461.125 902 OFFCURVE",
"478.15 883.8 OFFCURVE",
"478.15 858.626 CURVE SMOOTH",
"478.15 854.892 OFFCURVE",
"477.775 851.004 OFFCURVE",
"477 847 CURVE",
"473 832 OFFCURVE",
"465 817 OFFCURVE",
"449 807 CURVE SMOOTH",
"307 722 LINE SMOOTH",
"295 715 OFFCURVE",
"282 709 OFFCURVE",
"271 709 CURVE SMOOTH",
"249.842 709 OFFCURVE",
"234.124 725.321 OFFCURVE",
"234.124 747.686 CURVE SMOOTH",
"234.124 750.69 OFFCURVE",
"234.408 753.803 OFFCURVE",
"235 757 CURVE",
"238 768 OFFCURVE",
"243 781 OFFCURVE",
"255 790 CURVE SMOOTH"
);
}
);
userData = {
com.fontlab.hintData = {
hhints = (
{
position = -1;
width = 100;
},
{
position = 581;
width = 100;
}
);
};
};
width = 459;
}
);
unicode = 00CD;
},
{
glyphname = Icircumflex;
layers = (
{
layerId = master01;
paths = (
{
closed = 1;
nodes = (
"308 99 LINE SMOOTH",
"333.43 99 OFFCURVE",
"347.364 83.192 OFFCURVE",
"347.364 61.321 CURVE SMOOTH",
"347.364 57.391 OFFCURVE",
"346.914 53.265 OFFCURVE",
"346 49 CURVE SMOOTH",
"340 21 OFFCURVE",
"314 -1 OFFCURVE",
"286 -1 CURVE SMOOTH",
"47 -1 LINE SMOOTH",
"22.786 -1 OFFCURVE",
"6.798 15.453 OFFCURVE",
"6.798 38.011 CURVE SMOOTH",
"6.798 41.538 OFFCURVE",
"7.189 45.214 OFFCURVE",
"8 49 CURVE SMOOTH",
"14 77 OFFCURVE",
"41 99 OFFCURVE",
"69 99 CURVE SMOOTH",
"139 99 LINE",
"241 581 LINE",
"171 581 LINE SMOOTH",
"146.786 581 OFFCURVE",
"130.798 598.201 OFFCURVE",
"130.798 620.962 CURVE SMOOTH",
"130.798 624.52 OFFCURVE",
"131.189 628.214 OFFCURVE",
"132 632 CURVE SMOOTH",
"138 660 OFFCURVE",
"164 681 OFFCURVE",
"192 681 CURVE SMOOTH",
"431 681 LINE SMOOTH",
"455.214 681 OFFCURVE",
"471.202 665.295 OFFCURVE",
"471.202 642.939 CURVE SMOOTH",
"471.202 639.443 OFFCURVE",
"470.811 635.786 OFFCURVE",
"470 632 CURVE SMOOTH",
"464 604 OFFCURVE",
"438 581 OFFCURVE",
"410 581 CURVE SMOOTH",
"341 581 LINE",
"239 99 LINE"
);
},
{
closed = 1;
nodes = (
"338 886 LINE SMOOTH",
"351 895 OFFCURVE",
"363 898 OFFCURVE",
"372 898 CURVE SMOOTH",
"384 898 OFFCURVE",
"397 892 OFFCURVE",
"407 880 CURVE SMOOTH",
"482 784 LINE SMOOTH",
"487.668 776.915 OFFCURVE",
"490.324 769.328 OFFCURVE",
"490.324 760.884 CURVE SMOOTH",
"490.324 757.409 OFFCURVE",
"489.875 753.79 OFFCURVE",
"489 750 CURVE SMOOTH",
"484 725 OFFCURVE",
"458 703 OFFCURVE",
"433 703 CURVE SMOOTH",
"421 703 OFFCURVE",
"411 705 OFFCURVE",
"402 715 CURVE SMOOTH",
"344 781 LINE",
"240 712 LINE SMOOTH",
"227 704 OFFCURVE",
"219 703 OFFCURVE",
"209 703 CURVE SMOOTH",
"187.277 703 OFFCURVE",
"170.839 718.1 OFFCURVE",
"170.839 739.772 CURVE SMOOTH",
"170.839 743.042 OFFCURVE",
"171.213 746.461 OFFCURVE",
"172 750 CURVE SMOOTH",
"175 763 OFFCURVE",
"183 776 OFFCURVE",
"198 786 CURVE SMOOTH"
);
}
);
userData = {
com.fontlab.hintData = {
hhints = (
{
position = -1;
width = 100;
},
{
position = 581;
width = 100;
}
);
};
};
width = 459;
}
);
unicode = 00CE;
},
{
glyphname = Idieresis;
layers = (
{
layerId = master01;
paths = (
{
closed = 1;
nodes = (
"301 732 OFFCURVE",
"264 703 OFFCURVE",
"224 703 CURVE SMOOTH",
"192.216 703 OFFCURVE",
"169.786 721.708 OFFCURVE",
"169.786 750.177 CURVE SMOOTH",
"169.786 753.953 OFFCURVE",
"170.18 757.901 OFFCURVE",
"171 762 CURVE",
"179 796 OFFCURVE",
"216 827 OFFCURVE",
"255 827 CURVE SMOOTH",
"285.344 827 OFFCURVE",
"310.112 806.291 OFFCURVE",
"310.112 777.668 CURVE SMOOTH",
"310.112 774.22 OFFCURVE",
"309.753 770.656 OFFCURVE",
"309 767 CURVE SMOOTH"
);
},
{
closed = 1;
nodes = (
"489 732 OFFCURVE",
"452 703 OFFCURVE",
"412 703 CURVE SMOOTH",
"380.216 703 OFFCURVE",
"357.786 721.708 OFFCURVE",
"357.786 750.177 CURVE SMOOTH",
"357.786 753.953 OFFCURVE",
"358.18 757.901 OFFCURVE",
"359 762 CURVE",
"367 796 OFFCURVE",
"404 827 OFFCURVE",
"444 827 CURVE SMOOTH",
"473.445 827 OFFCURVE",
"498.114 806.3 OFFCURVE",
"498.114 777.686 CURVE SMOOTH",
"498.114 774.232 OFFCURVE",
"497.754 770.662 OFFCURVE",
"497 767 CURVE SMOOTH"
);
},
{
closed = 1;
nodes = (
"308 99 LINE SMOOTH",
"333.43 99 OFFCURVE",
"347.364 83.192 OFFCURVE",
"347.364 61.321 CURVE SMOOTH",
"347.364 57.391 OFFCURVE",
"346.914 53.265 OFFCURVE",
"346 49 CURVE SMOOTH",
"340 21 OFFCURVE",
"314 -1 OFFCURVE",
"286 -1 CURVE SMOOTH",
"47 -1 LINE SMOOTH",
"22.786 -1 OFFCURVE",
"6.798 15.453 OFFCURVE",
"6.798 38.011 CURVE SMOOTH",
"6.798 41.538 OFFCURVE",
"7.189 45.214 OFFCURVE",
"8 49 CURVE SMOOTH",
"14 77 OFFCURVE",
"41 99 OFFCURVE",
"69 99 CURVE SMOOTH",
"139 99 LINE",
"241 581 LINE",
"171 581 LINE SMOOTH",
"146.786 581 OFFCURVE",
"130.798 598.201 OFFCURVE",
"130.798 620.962 CURVE SMOOTH",
"130.798 624.52 OFFCURVE",
"131.189 628.214 OFFCURVE",
"132 632 CURVE SMOOTH",
"138 660 OFFCURVE",
"164 681 OFFCURVE",
"192 681 CURVE SMOOTH",
"431 681 LINE SMOOTH",
"455.214 681 OFFCURVE",
"471.202 665.295 OFFCURVE",
"471.202 642.939 CURVE SMOOTH",
"471.202 639.443 OFFCURVE",
"470.811 635.786 OFFCURVE",
"470 632 CURVE SMOOTH",
"464 604 OFFCURVE",
"438 581 OFFCURVE",
"410 581 CURVE SMOOTH",
"341 581 LINE",
"239 99 LINE"
);
}
);
userData = {
com.fontlab.hintData = {
hhints = (
{
position = -1;
width = 100;
},
{
position = 581;
width = 100;
},
{
position = 703;
width = 124;
}
);
vhints = (
{
position = 170;
width = 140;
},
{
position = 358;
width = 140;
}
);
};
};
width = 459;
}
);
unicode = 00CF;
},
{
glyphname = Igrave;
layers = (
{
layerId = master01;
paths = (
{
closed = 1;
nodes = (
"308 99 LINE SMOOTH",
"333.43 99 OFFCURVE",
"347.364 83.192 OFFCURVE",
"347.364 61.321 CURVE SMOOTH",
"347.364 57.391 OFFCURVE",
"346.914 53.265 OFFCURVE",
"346 49 CURVE SMOOTH",
"340 21 OFFCURVE",
"314 -1 OFFCURVE",
"286 -1 CURVE SMOOTH",
"47 -1 LINE SMOOTH",
"22.786 -1 OFFCURVE",
"6.798 15.453 OFFCURVE",
"6.798 38.011 CURVE SMOOTH",
"6.798 41.538 OFFCURVE",
"7.189 45.214 OFFCURVE",
"8 49 CURVE SMOOTH",
"14 77 OFFCURVE",
"41 99 OFFCURVE",
"69 99 CURVE SMOOTH",
"139 99 LINE",
"241 581 LINE",
"171 581 LINE SMOOTH",
"146.786 581 OFFCURVE",
"130.798 598.201 OFFCURVE",
"130.798 620.962 CURVE SMOOTH",
"130.798 624.52 OFFCURVE",
"131.189 628.214 OFFCURVE",
"132 632 CURVE SMOOTH",
"138 660 OFFCURVE",
"164 681 OFFCURVE",
"192 681 CURVE SMOOTH",
"431 681 LINE SMOOTH",
"455.214 681 OFFCURVE",
"471.202 665.295 OFFCURVE",
"471.202 642.939 CURVE SMOOTH",
"471.202 639.443 OFFCURVE",
"470.811 635.786 OFFCURVE",
"470 632 CURVE SMOOTH",
"464 604 OFFCURVE",
"438 581 OFFCURVE",
"410 581 CURVE SMOOTH",
"341 581 LINE",
"239 99 LINE"
);
},
{
closed = 1;
nodes = (
"250 824 LINE SMOOTH",
"244.144 831.321 OFFCURVE",
"240.431 839.713 OFFCURVE",
"240.431 849.962 CURVE SMOOTH",
"240.431 853.713 OFFCURVE",
"240.928 857.713 OFFCURVE",
"242 862 CURVE SMOOTH",
"248 890 OFFCURVE",
"279 916 OFFCURVE",
"307 916 CURVE SMOOTH",
"325 916 OFFCURVE",
"339 906 OFFCURVE",
"347 894 CURVE",
"416 775 LINE SMOOTH",
"420.963 766.492 OFFCURVE",
"422.91 759.995 OFFCURVE",
"422.91 753.37 CURVE SMOOTH",
"422.91 750.651 OFFCURVE",
"422.582 747.91 OFFCURVE",
"422 745 CURVE SMOOTH",
"416 718 OFFCURVE",
"388 698 OFFCURVE",
"364 698 CURVE SMOOTH",
"349 698 OFFCURVE",
"339 704 OFFCURVE",
"333 713 CURVE SMOOTH"
);
}
);
userData = {
com.fontlab.hintData = {
hhints = (
{
position = -1;
width = 100;
},
{
position = 581;
width = 100;
}
);
};
};
width = 459;
}
);
unicode = 00CC;
},
{
glyphname = J;
layers = (
{
layerId = master01;
paths = (
{
closed = 1;
nodes = (
"505 677 LINE SMOOTH",
"527.732 677 OFFCURVE",
"545.113 659.418 OFFCURVE",
"545.113 637.622 CURVE SMOOTH",
"545.113 634.488 OFFCURVE",
"544.754 631.268 OFFCURVE",
"544 628 CURVE SMOOTH",
"538 600 OFFCURVE",
"510 578 OFFCURVE",
"484 578 CURVE",
"398 171 LINE SMOOTH",
"381 93 OFFCURVE",
"313 0 OFFCURVE",
"179 0 CURVE SMOOTH",
"48.308 0 OFFCURVE",
"24.181 83.904 OFFCURVE",
"24.181 141.477 CURVE SMOOTH",
"24.181 157.471 OFFCURVE",
"26.043 171.434 OFFCURVE",
"28 181 CURVE SMOOTH",
"34 210 OFFCURVE",
"58 233 OFFCURVE",
"89 233 CURVE SMOOTH",
"113.214 233 OFFCURVE",
"129.202 216.547 OFFCURVE",
"129.202 193.989 CURVE SMOOTH",
"129.202 190.462 OFFCURVE",
"128.811 186.786 OFFCURVE",
"128 183 CURVE SMOOTH",
"126.264 174.466 OFFCURVE",
"125.428 166.664 OFFCURVE",
"125.428 159.562 CURVE SMOOTH",
"125.428 117.559 OFFCURVE",
"154.666 100 OFFCURVE",
"200 100 CURVE SMOOTH",
"274 100 OFFCURVE",
"293 150 OFFCURVE",
"298 171 CURVE SMOOTH",
"384 578 LINE",
"293 578 LINE SMOOTH",
"268.638 578 OFFCURVE",
"251.846 594.655 OFFCURVE",
"251.846 617.425 CURVE SMOOTH",
"251.846 620.826 OFFCURVE",
"252.22 624.362 OFFCURVE",
"253 628 CURVE SMOOTH",
"259 654 OFFCURVE",
"286 677 OFFCURVE",
"314 677 CURVE SMOOTH"
);
}
);
userData = {
com.fontlab.hintData = {
hhints = (
{
position = 0;
width = 100;
},
{
position = 578;
width = 99;
}
);
vhints = (
{
position = 24;
width = 101;
}
);
};
};
width = 498;
}
);
unicode = 004A;
},
{
glyphname = Jcircumflex;
layers = (
{
layerId = master01;
paths = (
{
closed = 1;
nodes = (
"505 677 LINE SMOOTH",
"527.732 677 OFFCURVE",
"545.113 659.418 OFFCURVE",
"545.113 637.622 CURVE SMOOTH",
"545.113 634.488 OFFCURVE",
"544.754 631.268 OFFCURVE",
"544 628 CURVE SMOOTH",
"538 600 OFFCURVE",
"510 578 OFFCURVE",
"484 578 CURVE",
"398 171 LINE SMOOTH",
"381 93 OFFCURVE",
"313 0 OFFCURVE",
"179 0 CURVE SMOOTH",
"48.308 0 OFFCURVE",
"24.181 83.904 OFFCURVE",
"24.181 141.477 CURVE SMOOTH",
"24.181 157.471 OFFCURVE",
"26.043 171.434 OFFCURVE",
"28 181 CURVE SMOOTH",
"34 210 OFFCURVE",
"58 233 OFFCURVE",
"89 233 CURVE SMOOTH",
"113.214 233 OFFCURVE",
"129.202 216.547 OFFCURVE",
"129.202 193.989 CURVE SMOOTH",
"129.202 190.462 OFFCURVE",
"128.811 186.786 OFFCURVE",
"128 183 CURVE SMOOTH",
"126.264 174.466 OFFCURVE",
"125.428 166.664 OFFCURVE",
"125.428 159.562 CURVE SMOOTH",
"125.428 117.559 OFFCURVE",
"154.666 100 OFFCURVE",
"200 100 CURVE SMOOTH",
"274 100 OFFCURVE",
"293 150 OFFCURVE",
"298 171 CURVE SMOOTH",
"384 578 LINE",
"293 578 LINE SMOOTH",
"268.638 578 OFFCURVE",
"251.846 594.655 OFFCURVE",
"251.846 617.425 CURVE SMOOTH",
"251.846 620.826 OFFCURVE",
"252.22 624.362 OFFCURVE",
"253 628 CURVE SMOOTH",
"259 654 OFFCURVE",
"286 677 OFFCURVE",
"314 677 CURVE SMOOTH"
);
},
{
closed = 1;
nodes = (
"438 886 LINE SMOOTH",
"451 895 OFFCURVE",
"463 898 OFFCURVE",
"472 898 CURVE SMOOTH",
"484 898 OFFCURVE",
"497 892 OFFCURVE",
"507 880 CURVE SMOOTH",
"582 784 LINE SMOOTH",
"587.668 776.915 OFFCURVE",
"590.324 769.328 OFFCURVE",
"590.324 760.884 CURVE SMOOTH",
"590.324 757.409 OFFCURVE",
"589.875 753.79 OFFCURVE",
"589 750 CURVE SMOOTH",
"584 725 OFFCURVE",
"558 703 OFFCURVE",
"533 703 CURVE SMOOTH",
"521 703 OFFCURVE",
"511 705 OFFCURVE",
"502 715 CURVE SMOOTH",
"444 781 LINE",
"340 712 LINE SMOOTH",
"327 704 OFFCURVE",
"319 703 OFFCURVE",
"309 703 CURVE SMOOTH",
"287.277 703 OFFCURVE",
"270.839 718.1 OFFCURVE",
"270.839 739.772 CURVE SMOOTH",
"270.839 743.042 OFFCURVE",
"271.213 746.461 OFFCURVE",
"272 750 CURVE SMOOTH",
"275 763 OFFCURVE",
"283 776 OFFCURVE",
"298 786 CURVE SMOOTH"
);
}
);
userData = {
com.fontlab.hintData = {
hhints = (
{
position = 0;
width = 100;
},
{
position = 578;
width = 99;
}
);
vhints = (
{
position = 24;
width = 101;
}
);
};
};
width = 498;
}
);
unicode = 0134;
},
{
glyphname = K;
layers = (
{
layerId = master01;
paths = (
{
closed = 1;
nodes = (
"153 238 LINE",
"113 49 LINE SMOOTH",
"107 23 OFFCURVE",
"80 0 OFFCURVE",
"54 0 CURVE SMOOTH",
"30.518 0 OFFCURVE",
"13.844 17.396 OFFCURVE",
"13.844 39.033 CURVE SMOOTH",
"13.844 42.275 OFFCURVE",
"14.218 45.612 OFFCURVE",
"15 49 CURVE SMOOTH",
"139 632 LINE SMOOTH",
"145 660 OFFCURVE",
"171 681 OFFCURVE",
"198 681 CURVE SMOOTH",
"220.732 681 OFFCURVE",
"238.113 664.947 OFFCURVE",
"238.113 642.198 CURVE SMOOTH",
"238.113 638.928 OFFCURVE",
"237.754 635.519 OFFCURVE",
"237 632 CURVE SMOOTH",
"195 436 LINE",
"518 670 LINE SMOOTH",
"527 677 OFFCURVE",
"539 682 OFFCURVE",
"552 682 CURVE SMOOTH",
"574.171 682 OFFCURVE",
"590.837 662.337 OFFCURVE",
"590.837 640.45 CURVE SMOOTH",
"590.837 637.657 OFFCURVE",
"590.566 634.829 OFFCURVE",
"590 632 CURVE SMOOTH",
"587 618 OFFCURVE",
"580 606 OFFCURVE",
"565 595 CURVE SMOOTH",
"208 336 LINE",
"474 87 LINE SMOOTH",
"483.338 78.381 OFFCURVE",
"485.968 68.73 OFFCURVE",
"485.968 59.158 CURVE SMOOTH",
"485.968 55.404 OFFCURVE",
"485.563 51.663 OFFCURVE",
"485 48 CURVE SMOOTH",
"479 20 OFFCURVE",
"452 -1 OFFCURVE",
"425 -1 CURVE SMOOTH",
"413 -1 OFFCURVE",
"404 3 OFFCURVE",
"397 9 CURVE SMOOTH"
);
}
);
userData = {
com.fontlab.hintData = {
hhints = (
{
position = 0;
width = 21;
},
{
position = 661;
width = 20;
}
);
};
};
width = 596;
}
);
unicode = 004B;
},
{
glyphname = L;
layers = (
{
layerId = master01;
paths = (
{
closed = 1;
nodes = (
"56 0 LINE SMOOTH",
"54.904 -0.078 OFFCURVE",
"53.821 -0.117 OFFCURVE",
"52.75 -0.117 CURVE SMOOTH",
"29.767 -0.117 OFFCURVE",
"12.932 17.613 OFFCURVE",
"12.932 39.418 CURVE SMOOTH",
"12.932 42.542 OFFCURVE",
"13.278 45.749 OFFCURVE",
"14 49 CURVE SMOOTH",
"138 632 LINE SMOOTH",
"143 658 OFFCURVE",
"170 681 OFFCURVE",
"198 681 CURVE SMOOTH",
"221.066 681 OFFCURVE",
"237.836 662.898 OFFCURVE",
"237.836 640.659 CURVE SMOOTH",
"237.836 637.83 OFFCURVE",
"237.564 634.934 OFFCURVE",
"237 632 CURVE SMOOTH",
"124 102 LINE",
"396 121 LINE SMOOTH",
"397.425 121.092 OFFCURVE",
"398.823 121.137 OFFCURVE",
"400.193 121.137 CURVE SMOOTH",
"424.769 121.137 OFFCURVE",
"440.147 106.5 OFFCURVE",
"440.147 83.408 CURVE SMOOTH",
"440.147 79.803 OFFCURVE",
"439.773 75.993 OFFCURVE",
"439 72 CURVE SMOOTH",
"434 48 OFFCURVE",
"409 24 OFFCURVE",
"383 22 CURVE SMOOTH"
);
}
);
userData = {
com.fontlab.hintData = {
hhints = (
{
position = 0;
width = 21;
},
{
position = 661;
width = 20;
}
);
};
};
width = 503;
}
);
unicode = 004C;
},
{
glyphname = Lacute;
layers = (
{
layerId = master01;
paths = (
{
closed = 1;
nodes = (
"56 0 LINE SMOOTH",
"54.904 -0.078 OFFCURVE",
"53.821 -0.117 OFFCURVE",
"52.75 -0.117 CURVE SMOOTH",
"29.767 -0.117 OFFCURVE",
"12.932 17.613 OFFCURVE",
"12.932 39.418 CURVE SMOOTH",
"12.932 42.542 OFFCURVE",
"13.278 45.749 OFFCURVE",
"14 49 CURVE SMOOTH",
"138 632 LINE SMOOTH",
"143 658 OFFCURVE",
"170 681 OFFCURVE",
"198 681 CURVE SMOOTH",
"221.066 681 OFFCURVE",
"237.836 662.898 OFFCURVE",
"237.836 640.659 CURVE SMOOTH",
"237.836 637.83 OFFCURVE",
"237.564 634.934 OFFCURVE",
"237 632 CURVE SMOOTH",
"124 102 LINE",
"396 121 LINE SMOOTH",
"397.425 121.092 OFFCURVE",
"398.823 121.137 OFFCURVE",
"400.193 121.137 CURVE SMOOTH",
"424.769 121.137 OFFCURVE",
"440.147 106.5 OFFCURVE",
"440.147 83.408 CURVE SMOOTH",
"440.147 79.803 OFFCURVE",
"439.773 75.993 OFFCURVE",
"439 72 CURVE SMOOTH",
"434 48 OFFCURVE",
"409 24 OFFCURVE",
"383 22 CURVE SMOOTH"
);
},
{
closed = 1;
nodes = (
"400 883 LINE SMOOTH",
"412 891 OFFCURVE",
"428 902 OFFCURVE",
"445 902 CURVE SMOOTH",
"471.125 902 OFFCURVE",
"488.15 883.8 OFFCURVE",
"488.15 858.626 CURVE SMOOTH",
"488.15 854.892 OFFCURVE",
"487.775 851.004 OFFCURVE",
"487 847 CURVE",
"483 832 OFFCURVE",
"475 817 OFFCURVE",
"459 807 CURVE SMOOTH",
"317 722 LINE SMOOTH",
"305 715 OFFCURVE",
"292 709 OFFCURVE",
"281 709 CURVE SMOOTH",
"259.842 709 OFFCURVE",
"244.124 725.321 OFFCURVE",
"244.124 747.686 CURVE SMOOTH",
"244.124 750.69 OFFCURVE",
"244.408 753.803 OFFCURVE",
"245 757 CURVE",
"248 768 OFFCURVE",
"253 781 OFFCURVE",
"265 790 CURVE SMOOTH"
);
}
);
userData = {
com.fontlab.hintData = {
hhints = (
{
position = 0;
width = 21;
},
{
position = 661;
width = 20;
}
);
};
};
width = 503;
}
);
unicode = 0139;
},
{
glyphname = Lcaron;
layers = (
{
layerId = master01;
paths = (
{
closed = 1;
nodes = (
"290 721 LINE SMOOTH",
"277 712 OFFCURVE",
"264 709 OFFCURVE",
"255 709 CURVE SMOOTH",
"243 709 OFFCURVE",
"230 715 OFFCURVE",
"221 727 CURVE SMOOTH",
"145 823 LINE SMOOTH",
"140.1 830 OFFCURVE",
"137.65 837.49 OFFCURVE",
"137.65 845.813 CURVE SMOOTH",
"137.65 849.38 OFFCURVE",
"138.1 853.1 OFFCURVE",
"139 857 CURVE SMOOTH",
"144 882 OFFCURVE",
"170 904 OFFCURVE",
"195 904 CURVE SMOOTH",
"207 904 OFFCURVE",
"216 902 OFFCURVE",
"225 892 CURVE SMOOTH",
"284 826 LINE",
"388 895 LINE SMOOTH",
"400 903 OFFCURVE",
"409 904 OFFCURVE",
"419 904 CURVE SMOOTH",
"441.048 904 OFFCURVE",
"456.874 888.444 OFFCURVE",
"456.874 866.25 CURVE SMOOTH",
"456.874 863.278 OFFCURVE",
"456.59 860.188 OFFCURVE",
"456 857 CURVE SMOOTH",
"453 844 OFFCURVE",
"444 831 OFFCURVE",
"430 821 CURVE SMOOTH"
);
},
{
closed = 1;
nodes = (
"56 0 LINE SMOOTH",
"54.904 -0.078 OFFCURVE",
"53.821 -0.117 OFFCURVE",
"52.75 -0.117 CURVE SMOOTH",
"29.767 -0.117 OFFCURVE",
"12.932 17.613 OFFCURVE",
"12.932 39.418 CURVE SMOOTH",
"12.932 42.542 OFFCURVE",
"13.278 45.749 OFFCURVE",
"14 49 CURVE SMOOTH",
"138 632 LINE SMOOTH",
"143 658 OFFCURVE",
"170 681 OFFCURVE",
"198 681 CURVE SMOOTH",
"221.066 681 OFFCURVE",
"237.836 662.898 OFFCURVE",
"237.836 640.659 CURVE SMOOTH",
"237.836 637.83 OFFCURVE",
"237.564 634.934 OFFCURVE",
"237 632 CURVE SMOOTH",
"124 102 LINE",
"396 121 LINE SMOOTH",
"397.425 121.092 OFFCURVE",
"398.823 121.137 OFFCURVE",
"400.193 121.137 CURVE SMOOTH",
"424.769 121.137 OFFCURVE",
"440.147 106.5 OFFCURVE",
"440.147 83.408 CURVE SMOOTH",
"440.147 79.803 OFFCURVE",
"439.773 75.993 OFFCURVE",
"439 72 CURVE SMOOTH",
"434 48 OFFCURVE",
"409 24 OFFCURVE",
"383 22 CURVE SMOOTH"
);
}
);
userData = {
com.fontlab.hintData = {
hhints = (
{
position = 0;
width = 21;
},
{
position = 661;
width = 20;
}
);
};
};
width = 503;
}
);
unicode = 013D;
},
{
glyphname = Lslash;
layers = (
{
layerId = master01;
paths = (
{
closed = 1;
nodes = (
"131 373 LINE",
"186 632 LINE SMOOTH",
"191 658 OFFCURVE",
"218 681 OFFCURVE",
"246 681 CURVE SMOOTH",
"269.066 681 OFFCURVE",
"285.836 662.898 OFFCURVE",
"285.836 640.659 CURVE SMOOTH",
"285.836 637.83 OFFCURVE",
"285.564 634.934 OFFCURVE",
"285 632 CURVE SMOOTH",
"243 435 LINE",
"260 445 LINE SMOOTH",
"273 452 OFFCURVE",
"281 453 OFFCURVE",
"289 453 CURVE SMOOTH",
"312.616 453 OFFCURVE",
"330.111 436.934 OFFCURVE",
"330.111 412.833 CURVE SMOOTH",
"330.111 409.379 OFFCURVE",
"329.752 405.76 OFFCURVE",
"329 402 CURVE SMOOTH",
"326 387 OFFCURVE",
"317 373 OFFCURVE",
"297 362 CURVE SMOOTH",
"218 317 LINE",
"172 102 LINE",
"444 121 LINE SMOOTH",
"445.425 121.092 OFFCURVE",
"446.823 121.137 OFFCURVE",
"448.193 121.137 CURVE SMOOTH",
"472.769 121.137 OFFCURVE",
"488.147 106.5 OFFCURVE",
"488.147 83.408 CURVE SMOOTH",
"488.147 79.803 OFFCURVE",
"487.773 75.993 OFFCURVE",
"487 72 CURVE SMOOTH",
"482 48 OFFCURVE",
"457 24 OFFCURVE",
"431 22 CURVE SMOOTH",
"104 0 LINE SMOOTH",
"102.904 -0.078 OFFCURVE",
"101.82 -0.117 OFFCURVE",
"100.75 -0.117 CURVE SMOOTH",
"77.767 -0.117 OFFCURVE",
"60.932 17.613 OFFCURVE",
"60.932 39.418 CURVE SMOOTH",
"60.932 42.542 OFFCURVE",
"61.278 45.749 OFFCURVE",
"62 49 CURVE SMOOTH",
"106 255 LINE",
"88 245 LINE SMOOTH",
"79 240 OFFCURVE",
"69 238 OFFCURVE",
"59 238 CURVE SMOOTH",
"38.861 238 OFFCURVE",
"18.723 249.5 OFFCURVE",
"18.723 274.514 CURVE SMOOTH",
"18.723 278.068 OFFCURVE",
"19.129 281.895 OFFCURVE",
"20 286 CURVE SMOOTH",
"24 304 OFFCURVE",
"34 319 OFFCURVE",
"51 329 CURVE SMOOTH"
);
}
);
userData = {
com.fontlab.hintData = {
hhints = (
{
position = 0;
width = 21;
},
{
position = 661;
width = 20;
}
);
};
};
width = 554;
}
);
unicode = 0141;
},
{
glyphname = M;
layers = (
{
layerId = master01;
paths = (
{
closed = 1;
nodes = (
"758 76 LINE SMOOTH",
"758 62 OFFCURVE",
"758 53 OFFCURVE",
"756 46 CURVE SMOOTH",
"751 22 OFFCURVE",
"727 0 OFFCURVE",
"698 0 CURVE SMOOTH",
"672 0 OFFCURVE",
"658 16 OFFCURVE",
"658 38 CURVE SMOOTH",
"654 456 LINE",
"410 32 LINE SMOOTH",
"399 12 OFFCURVE",
"379 0 OFFCURVE",
"357 0 CURVE SMOOTH",
"337 0 OFFCURVE",
"321 10 OFFCURVE",
"318 34 CURVE SMOOTH",
"274 441 LINE",
"101 39 LINE SMOOTH",
"91 15 OFFCURVE",
"71 0 OFFCURVE",
"44 0 CURVE SMOOTH",
"16.159 0 OFFCURVE",
"4.214 17.41 OFFCURVE",
"4.214 34.449 CURVE SMOOTH",
"4.214 36.994 OFFCURVE",
"4.48 39.531 OFFCURVE",
"5 42 CURVE SMOOTH",
"6 47 OFFCURVE",
"9 58 OFFCURVE",
"16 75 CURVE SMOOTH",
"261 642 LINE",
"271 667 OFFCURVE",
"294 681 OFFCURVE",
"318 681 CURVE SMOOTH",
"342 681 OFFCURVE",
"354 668 OFFCURVE",
"357 647 CURVE",
"404 204 LINE",
"658 649 LINE SMOOTH",
"671 671 OFFCURVE",
"690 681 OFFCURVE",
"715 681 CURVE SMOOTH",
"739 681 OFFCURVE",
"751 665 OFFCURVE",
"751 642 CURVE SMOOTH"
);
}
);
userData = {
com.fontlab.hintData = {
hhints = (
{
position = 0;
width = 21;
},
{
position = 661;
width = 20;
}
);
vhints = (
{
position = 654;
width = 97;
},
{
position = 658;
width = 98;
}
);
};
};
width = 883;
}
);
unicode = 004D;
},
{
glyphname = N;
layers = (
{
layerId = master01;
paths = (
{
closed = 1;
nodes = (
"206 473 LINE",
"115 49 LINE SMOOTH",
"109 21 OFFCURVE",
"83 0 OFFCURVE",
"55 0 CURVE SMOOTH",
"32.268 0 OFFCURVE",
"14.887 17.582 OFFCURVE",
"14.887 39.378 CURVE SMOOTH",
"14.887 42.512 OFFCURVE",
"15.246 45.732 OFFCURVE",
"16 49 CURVE SMOOTH",
"141 632 LINE SMOOTH",
"146 658 OFFCURVE",
"170 681 OFFCURVE",
"199 681 CURVE SMOOTH",
"214 681 OFFCURVE",
"230 673 OFFCURVE",
"236 660 CURVE SMOOTH",
"452 207 LINE",
"543 632 LINE SMOOTH",
"549 659 OFFCURVE",
"575 682 OFFCURVE",
"603 682 CURVE SMOOTH",
"625.732 682 OFFCURVE",
"643.113 664.418 OFFCURVE",
"643.113 641.953 CURVE SMOOTH",
"643.113 638.724 OFFCURVE",
"642.754 635.394 OFFCURVE",
"642 632 CURVE SMOOTH",
"518 49 LINE SMOOTH",
"512 20 OFFCURVE",
"486 0 OFFCURVE",
"459 0 CURVE SMOOTH",
"444 0 OFFCURVE",
"429 8 OFFCURVE",
"422 22 CURVE SMOOTH"
);
}
);
userData = {
com.fontlab.hintData = {
hhints = (
{
position = 0;
width = 21;
},
{
position = 661;
width = 20;
}
);
};
};
width = 645;
}
);
unicode = 004E;
},
{
glyphname = Nacute;
layers = (
{
layerId = master01;
paths = (
{
closed = 1;
nodes = (
"206 473 LINE",
"115 49 LINE SMOOTH",
"109 21 OFFCURVE",
"83 0 OFFCURVE",
"55 0 CURVE SMOOTH",
"32.268 0 OFFCURVE",
"14.887 17.582 OFFCURVE",
"14.887 39.378 CURVE SMOOTH",
"14.887 42.512 OFFCURVE",
"15.246 45.732 OFFCURVE",
"16 49 CURVE SMOOTH",
"141 632 LINE SMOOTH",
"146 658 OFFCURVE",
"170 681 OFFCURVE",
"199 681 CURVE SMOOTH",
"214 681 OFFCURVE",
"230 673 OFFCURVE",
"236 660 CURVE SMOOTH",
"452 207 LINE",
"543 632 LINE SMOOTH",
"549 659 OFFCURVE",
"575 682 OFFCURVE",
"603 682 CURVE SMOOTH",
"625.732 682 OFFCURVE",
"643.113 664.418 OFFCURVE",
"643.113 641.953 CURVE SMOOTH",
"643.113 638.724 OFFCURVE",
"642.754 635.394 OFFCURVE",
"642 632 CURVE SMOOTH",
"518 49 LINE SMOOTH",
"512 20 OFFCURVE",
"486 0 OFFCURVE",
"459 0 CURVE SMOOTH",
"444 0 OFFCURVE",
"429 8 OFFCURVE",
"422 22 CURVE SMOOTH"
);
},
{
closed = 1;
nodes = (
"480 883 LINE SMOOTH",
"492 891 OFFCURVE",
"508 902 OFFCURVE",
"525 902 CURVE SMOOTH",
"551.125 902 OFFCURVE",
"568.15 883.8 OFFCURVE",
"568.15 858.626 CURVE SMOOTH",
"568.15 854.892 OFFCURVE",
"567.775 851.004 OFFCURVE",
"567 847 CURVE",
"563 832 OFFCURVE",
"555 817 OFFCURVE",
"539 807 CURVE SMOOTH",
"397 722 LINE SMOOTH",
"385 715 OFFCURVE",
"372 709 OFFCURVE",
"361 709 CURVE SMOOTH",
"339.842 709 OFFCURVE",
"324.124 725.321 OFFCURVE",
"324.124 747.686 CURVE SMOOTH",
"324.124 750.69 OFFCURVE",
"324.408 753.803 OFFCURVE",
"325 757 CURVE",
"328 768 OFFCURVE",
"333 781 OFFCURVE",
"345 790 CURVE SMOOTH"
);
}
);
userData = {
com.fontlab.hintData = {
hhints = (
{
position = 0;
width = 21;
},
{
position = 661;
width = 20;
}
);
};
};
width = 645;
}
);
unicode = 0143;
},
{
glyphname = Ncaron;
layers = (
{
layerId = master01;
paths = (
{
closed = 1;
nodes = (
"441 721 LINE SMOOTH",
"428 712 OFFCURVE",
"415 709 OFFCURVE",
"406 709 CURVE SMOOTH",
"394 709 OFFCURVE",
"381 715 OFFCURVE",
"372 727 CURVE SMOOTH",
"296 823 LINE SMOOTH",
"291.1 830 OFFCURVE",
"288.65 837.49 OFFCURVE",
"288.65 845.813 CURVE SMOOTH",
"288.65 849.38 OFFCURVE",
"289.1 853.1 OFFCURVE",
"290 857 CURVE SMOOTH",
"295 882 OFFCURVE",
"321 904 OFFCURVE",
"346 904 CURVE SMOOTH",
"358 904 OFFCURVE",
"367 902 OFFCURVE",
"376 892 CURVE SMOOTH",
"435 826 LINE",
"539 895 LINE SMOOTH",
"551 903 OFFCURVE",
"560 904 OFFCURVE",
"570 904 CURVE SMOOTH",
"592.048 904 OFFCURVE",
"607.874 888.444 OFFCURVE",
"607.874 866.25 CURVE SMOOTH",
"607.874 863.278 OFFCURVE",
"607.59 860.188 OFFCURVE",
"607 857 CURVE SMOOTH",
"604 844 OFFCURVE",
"595 831 OFFCURVE",
"581 821 CURVE SMOOTH"
);
},
{
closed = 1;
nodes = (
"206 473 LINE",
"115 49 LINE SMOOTH",
"109 21 OFFCURVE",
"83 0 OFFCURVE",
"55 0 CURVE SMOOTH",
"32.268 0 OFFCURVE",
"14.887 17.582 OFFCURVE",
"14.887 39.378 CURVE SMOOTH",
"14.887 42.512 OFFCURVE",
"15.246 45.732 OFFCURVE",
"16 49 CURVE SMOOTH",
"141 632 LINE SMOOTH",
"146 658 OFFCURVE",
"170 681 OFFCURVE",
"199 681 CURVE SMOOTH",
"214 681 OFFCURVE",
"230 673 OFFCURVE",
"236 660 CURVE SMOOTH",
"452 207 LINE",
"543 632 LINE SMOOTH",
"549 659 OFFCURVE",
"575 682 OFFCURVE",
"603 682 CURVE SMOOTH",
"625.732 682 OFFCURVE",
"643.113 664.418 OFFCURVE",
"643.113 641.953 CURVE SMOOTH",
"643.113 638.724 OFFCURVE",
"642.754 635.394 OFFCURVE",
"642 632 CURVE SMOOTH",
"518 49 LINE SMOOTH",
"512 20 OFFCURVE",
"486 0 OFFCURVE",
"459 0 CURVE SMOOTH",
"444 0 OFFCURVE",
"429 8 OFFCURVE",
"422 22 CURVE SMOOTH"
);
}
);
userData = {
com.fontlab.hintData = {
hhints = (
{
position = 0;
width = 21;
},
{
position = 661;
width = 20;
}
);
};
};
width = 645;
}
);
unicode = 0147;
},
{
glyphname = Ntilde;
layers = (
{
layerId = master01;
paths = (
{
closed = 1;
nodes = (
"206 473 LINE",
"115 49 LINE SMOOTH",
"109 21 OFFCURVE",
"83 0 OFFCURVE",
"55 0 CURVE SMOOTH",
"32.268 0 OFFCURVE",
"14.887 17.582 OFFCURVE",
"14.887 39.378 CURVE SMOOTH",
"14.887 42.512 OFFCURVE",
"15.246 45.732 OFFCURVE",
"16 49 CURVE SMOOTH",
"141 632 LINE SMOOTH",
"146 658 OFFCURVE",
"170 681 OFFCURVE",
"199 681 CURVE SMOOTH",
"214 681 OFFCURVE",
"230 673 OFFCURVE",
"236 660 CURVE SMOOTH",
"452 207 LINE",
"543 632 LINE SMOOTH",
"549 659 OFFCURVE",
"575 682 OFFCURVE",
"603 682 CURVE SMOOTH",
"625.732 682 OFFCURVE",
"643.113 664.418 OFFCURVE",
"643.113 641.953 CURVE SMOOTH",
"643.113 638.724 OFFCURVE",
"642.754 635.394 OFFCURVE",
"642 632 CURVE SMOOTH",
"518 49 LINE SMOOTH",
"512 20 OFFCURVE",
"486 0 OFFCURVE",
"459 0 CURVE SMOOTH",
"444 0 OFFCURVE",
"429 8 OFFCURVE",
"422 22 CURVE SMOOTH"
);
},
{
closed = 1;
nodes = (
"586 886 OFFCURVE",
"599 893 OFFCURVE",
"614 893 CURVE SMOOTH",
"630.815 893 OFFCURVE",
"646.846 885.168 OFFCURVE",
"646.846 867.425 CURVE SMOOTH",
"646.846 865.119 OFFCURVE",
"646.575 862.646 OFFCURVE",
"646 860 CURVE SMOOTH",
"645 856 OFFCURVE",
"644 849 OFFCURVE",
"639 838 CURVE",
"622 807 OFFCURVE",
"565 705 OFFCURVE",
"464 705 CURVE SMOOTH",
"432 705 OFFCURVE",
"409 722 OFFCURVE",
"394 753 CURVE SMOOTH",
"382 776 OFFCURVE",
"374 788 OFFCURVE",
"359 788 CURVE SMOOTH",
"324 788 OFFCURVE",
"296 736 OFFCURVE",
"288 720 CURVE",
"279 705 OFFCURVE",
"269 698 OFFCURVE",
"254 698 CURVE SMOOTH",
"237.185 698 OFFCURVE",
"221.154 705.832 OFFCURVE",
"221.154 723.575 CURVE SMOOTH",
"221.154 725.881 OFFCURVE",
"221.425 728.354 OFFCURVE",
"222 731 CURVE SMOOTH",
"223 735 OFFCURVE",
"224 742 OFFCURVE",
"230 753 CURVE SMOOTH",
"259 810 OFFCURVE",
"312 877 OFFCURVE",
"390 877 CURVE SMOOTH",
"429 877 OFFCURVE",
"451 860 OFFCURVE",
"467 829 CURVE SMOOTH",
"478 807 OFFCURVE",
"486 793 OFFCURVE",
"501 793 CURVE SMOOTH",
"522 793 OFFCURVE",
"553 817 OFFCURVE",
"579 871 CURVE SMOOTH"
);
}
);
userData = {
com.fontlab.hintData = {
hhints = (
{
position = 0;
width = 21;
},
{
position = 661;
width = 20;
},
{
position = 705;
width = 88;
},
{
position = 788;
width = 89;
}
);
vhints = (
{
position = 579;
width = 68;
}
);
};
};
width = 645;
}
);
unicode = 00D1;
},
{
glyphname = O;
layers = (
{
layerId = master01;
paths = (
{
closed = 1;
nodes = (
"131.853 -2 OFFCURVE",
"59.079 99.357 OFFCURVE",
"59.079 232.08 CURVE SMOOTH",
"59.079 258.65 OFFCURVE",
"61.995 286.477 OFFCURVE",
"68 315 CURVE SMOOTH",
"111 514 OFFCURVE",
"283 682 OFFCURVE",
"440 682 CURVE SMOOTH",
"562.538 682 OFFCURVE",
"637.13 581.938 OFFCURVE",
"637.13 448.427 CURVE SMOOTH",
"637.13 421.774 OFFCURVE",
"634.157 393.789 OFFCURVE",
"628 365 CURVE SMOOTH",
"586 166 OFFCURVE",
"414 -2 OFFCURVE",
"256 -2 CURVE SMOOTH"
);
},
{
closed = 1;
nodes = (
"311 587 OFFCURVE",
"197 466 OFFCURVE",
"164 315 CURVE",
"159.396 292.719 OFFCURVE",
"157.166 271.116 OFFCURVE",
"157.166 250.697 CURVE SMOOTH",
"157.166 160.228 OFFCURVE",
"200.941 93 OFFCURVE",
"276 93 CURVE SMOOTH",
"379 93 OFFCURVE",
"501 216 OFFCURVE",
"532 361 CURVE SMOOTH",
"536.267 381.27 OFFCURVE",
"538.353 401.477 OFFCURVE",
"538.353 421.002 CURVE SMOOTH",
"538.353 511.288 OFFCURVE",
"493.753 587 OFFCURVE",
"414 587 CURVE SMOOTH"
);
}
);
userData = {
com.fontlab.hintData = {
hhints = (
{
position = -2;
width = 95;
},
{
position = 587;
width = 95;
}
);
vhints = (
{
position = 59;
width = 98;
},
{
position = 538;
width = 99;
}
);
};
};
width = 686;
}
);
unicode = 004F;
},
{
glyphname = Oacute;
layers = (
{
layerId = master01;
paths = (
{
closed = 1;
nodes = (
"131.853 -2 OFFCURVE",
"59.079 99.357 OFFCURVE",
"59.079 232.08 CURVE SMOOTH",
"59.079 258.65 OFFCURVE",
"61.995 286.477 OFFCURVE",
"68 315 CURVE SMOOTH",
"111 514 OFFCURVE",
"283 682 OFFCURVE",
"440 682 CURVE SMOOTH",
"562.538 682 OFFCURVE",
"637.13 581.938 OFFCURVE",
"637.13 448.427 CURVE SMOOTH",
"637.13 421.774 OFFCURVE",
"634.157 393.789 OFFCURVE",
"628 365 CURVE SMOOTH",
"586 166 OFFCURVE",
"414 -2 OFFCURVE",
"256 -2 CURVE SMOOTH"
);
},
{
closed = 1;
nodes = (
"311 587 OFFCURVE",
"197 466 OFFCURVE",
"164 315 CURVE",
"159.396 292.719 OFFCURVE",
"157.166 271.116 OFFCURVE",
"157.166 250.697 CURVE SMOOTH",
"157.166 160.228 OFFCURVE",
"200.941 93 OFFCURVE",
"276 93 CURVE SMOOTH",
"379 93 OFFCURVE",
"501 216 OFFCURVE",
"532 361 CURVE SMOOTH",
"536.267 381.27 OFFCURVE",
"538.353 401.477 OFFCURVE",
"538.353 421.002 CURVE SMOOTH",
"538.353 511.288 OFFCURVE",
"493.753 587 OFFCURVE",
"414 587 CURVE SMOOTH"
);
},
{
closed = 1;
nodes = (
"515 883 LINE SMOOTH",
"527 891 OFFCURVE",
"543 902 OFFCURVE",
"560 902 CURVE SMOOTH",
"586.125 902 OFFCURVE",
"603.15 883.8 OFFCURVE",
"603.15 858.626 CURVE SMOOTH",
"603.15 854.892 OFFCURVE",
"602.775 851.004 OFFCURVE",
"602 847 CURVE",
"598 832 OFFCURVE",
"590 817 OFFCURVE",
"574 807 CURVE SMOOTH",
"432 722 LINE SMOOTH",
"420 715 OFFCURVE",
"407 709 OFFCURVE",
"396 709 CURVE SMOOTH",
"374.842 709 OFFCURVE",
"359.124 725.321 OFFCURVE",
"359.124 747.686 CURVE SMOOTH",
"359.124 750.69 OFFCURVE",
"359.408 753.803 OFFCURVE",
"360 757 CURVE",
"363 768 OFFCURVE",
"368 781 OFFCURVE",
"380 790 CURVE SMOOTH"
);
}
);
userData = {
com.fontlab.hintData = {
hhints = (
{
position = -2;
width = 95;
},
{
position = 587;
width = 95;
}
);
vhints = (
{
position = 59;
width = 98;
},
{
position = 538;
width = 99;
}
);
};
};
width = 686;
}
);
unicode = 00D3;
},
{
glyphname = Ocircumflex;
layers = (
{
layerId = master01;
paths = (
{
closed = 1;
nodes = (
"131.853 -2 OFFCURVE",
"59.079 99.357 OFFCURVE",
"59.079 232.08 CURVE SMOOTH",
"59.079 258.65 OFFCURVE",
"61.995 286.477 OFFCURVE",
"68 315 CURVE SMOOTH",
"111 514 OFFCURVE",
"283 682 OFFCURVE",
"440 682 CURVE SMOOTH",
"562.538 682 OFFCURVE",
"637.13 581.938 OFFCURVE",
"637.13 448.427 CURVE SMOOTH",
"637.13 421.774 OFFCURVE",
"634.157 393.789 OFFCURVE",
"628 365 CURVE SMOOTH",
"586 166 OFFCURVE",
"414 -2 OFFCURVE",
"256 -2 CURVE SMOOTH"
);
},
{
closed = 1;
nodes = (
"311 587 OFFCURVE",
"197 466 OFFCURVE",
"164 315 CURVE",
"159.396 292.719 OFFCURVE",
"157.166 271.116 OFFCURVE",
"157.166 250.697 CURVE SMOOTH",
"157.166 160.228 OFFCURVE",
"200.941 93 OFFCURVE",
"276 93 CURVE SMOOTH",
"379 93 OFFCURVE",
"501 216 OFFCURVE",
"532 361 CURVE SMOOTH",
"536.267 381.27 OFFCURVE",
"538.353 401.477 OFFCURVE",
"538.353 421.002 CURVE SMOOTH",
"538.353 511.288 OFFCURVE",
"493.753 587 OFFCURVE",
"414 587 CURVE SMOOTH"
);
},
{
closed = 1;
nodes = (
"468 886 LINE SMOOTH",
"481 895 OFFCURVE",
"493 898 OFFCURVE",
"502 898 CURVE SMOOTH",
"514 898 OFFCURVE",
"527 892 OFFCURVE",
"537 880 CURVE SMOOTH",
"612 784 LINE SMOOTH",
"617.668 776.915 OFFCURVE",
"620.324 769.328 OFFCURVE",
"620.324 760.884 CURVE SMOOTH",
"620.324 757.409 OFFCURVE",
"619.875 753.79 OFFCURVE",
"619 750 CURVE SMOOTH",
"614 725 OFFCURVE",
"588 703 OFFCURVE",
"563 703 CURVE SMOOTH",
"551 703 OFFCURVE",
"541 705 OFFCURVE",
"532 715 CURVE SMOOTH",
"474 781 LINE",
"370 712 LINE SMOOTH",
"357 704 OFFCURVE",
"349 703 OFFCURVE",
"339 703 CURVE SMOOTH",
"317.277 703 OFFCURVE",
"300.839 718.1 OFFCURVE",
"300.839 739.772 CURVE SMOOTH",
"300.839 743.042 OFFCURVE",
"301.213 746.461 OFFCURVE",
"302 750 CURVE SMOOTH",
"305 763 OFFCURVE",
"313 776 OFFCURVE",
"328 786 CURVE SMOOTH"
);
}
);
userData = {
com.fontlab.hintData = {
hhints = (
{
position = -2;
width = 95;
},
{
position = 587;
width = 95;
}
);
vhints = (
{
position = 59;
width = 98;
},
{
position = 538;
width = 99;
}
);
};
};
width = 686;
}
);
unicode = 00D4;
},
{
glyphname = Odieresis;
layers = (
{
layerId = master01;
paths = (
{
closed = 1;
nodes = (
"436 732 OFFCURVE",
"399 703 OFFCURVE",
"359 703 CURVE SMOOTH",
"327.216 703 OFFCURVE",
"304.786 721.708 OFFCURVE",
"304.786 750.177 CURVE SMOOTH",
"304.786 753.953 OFFCURVE",
"305.18 757.901 OFFCURVE",
"306 762 CURVE",
"314 796 OFFCURVE",
"352 827 OFFCURVE",
"391 827 CURVE SMOOTH",
"420.445 827 OFFCURVE",
"445.114 806.3 OFFCURVE",
"445.114 777.686 CURVE SMOOTH",
"445.114 774.232 OFFCURVE",
"444.754 770.662 OFFCURVE",
"444 767 CURVE SMOOTH"
);
},
{
closed = 1;
nodes = (
"624 732 OFFCURVE",
"587 703 OFFCURVE",
"547 703 CURVE SMOOTH",
"515.216 703 OFFCURVE",
"492.786 721.708 OFFCURVE",
"492.786 750.177 CURVE SMOOTH",
"492.786 753.953 OFFCURVE",
"493.18 757.901 OFFCURVE",
"494 762 CURVE",
"502 796 OFFCURVE",
"540 827 OFFCURVE",
"579 827 CURVE SMOOTH",
"608.445 827 OFFCURVE",
"633.114 806.3 OFFCURVE",
"633.114 777.686 CURVE SMOOTH",
"633.114 774.232 OFFCURVE",
"632.754 770.662 OFFCURVE",
"632 767 CURVE SMOOTH"
);
},
{
closed = 1;
nodes = (
"131.853 -2 OFFCURVE",
"59.079 99.357 OFFCURVE",
"59.079 232.08 CURVE SMOOTH",
"59.079 258.65 OFFCURVE",
"61.995 286.477 OFFCURVE",
"68 315 CURVE SMOOTH",
"111 514 OFFCURVE",
"283 682 OFFCURVE",
"440 682 CURVE SMOOTH",
"562.538 682 OFFCURVE",
"637.13 581.938 OFFCURVE",
"637.13 448.427 CURVE SMOOTH",
"637.13 421.774 OFFCURVE",
"634.157 393.789 OFFCURVE",
"628 365 CURVE SMOOTH",
"586 166 OFFCURVE",
"414 -2 OFFCURVE",
"256 -2 CURVE SMOOTH"
);
},
{
closed = 1;
nodes = (
"311 587 OFFCURVE",
"197 466 OFFCURVE",
"164 315 CURVE",
"159.396 292.719 OFFCURVE",
"157.166 271.116 OFFCURVE",
"157.166 250.697 CURVE SMOOTH",
"157.166 160.228 OFFCURVE",
"200.941 93 OFFCURVE",
"276 93 CURVE SMOOTH",
"379 93 OFFCURVE",
"501 216 OFFCURVE",
"532 361 CURVE SMOOTH",
"536.267 381.27 OFFCURVE",
"538.353 401.477 OFFCURVE",
"538.353 421.002 CURVE SMOOTH",
"538.353 511.288 OFFCURVE",
"493.753 587 OFFCURVE",
"414 587 CURVE SMOOTH"
);
}
);
userData = {
com.fontlab.hintData = {
hhints = (
{
position = -2;
width = 95;
},
{
position = 587;
width = 95;
},
{
position = 703;
width = 124;
}
);
vhints = (
{
position = 59;
width = 98;
},
{
position = 305;
width = 140;
},
{
position = 493;
width = 140;
},
{
position = 538;
width = 99;
}
);
};
};
width = 686;
}
);
unicode = 00D6;
},
{
glyphname = Ograve;
layers = (
{
layerId = master01;
paths = (
{
closed = 1;
nodes = (
"131.853 -2 OFFCURVE",
"59.079 99.357 OFFCURVE",
"59.079 232.08 CURVE SMOOTH",
"59.079 258.65 OFFCURVE",
"61.995 286.477 OFFCURVE",
"68 315 CURVE SMOOTH",
"111 514 OFFCURVE",
"283 682 OFFCURVE",
"440 682 CURVE SMOOTH",
"562.538 682 OFFCURVE",
"637.13 581.938 OFFCURVE",
"637.13 448.427 CURVE SMOOTH",
"637.13 421.774 OFFCURVE",
"634.157 393.789 OFFCURVE",
"628 365 CURVE SMOOTH",
"586 166 OFFCURVE",
"414 -2 OFFCURVE",
"256 -2 CURVE SMOOTH"
);
},
{
closed = 1;
nodes = (
"311 587 OFFCURVE",
"197 466 OFFCURVE",
"164 315 CURVE",
"159.396 292.719 OFFCURVE",
"157.166 271.116 OFFCURVE",
"157.166 250.697 CURVE SMOOTH",
"157.166 160.228 OFFCURVE",
"200.941 93 OFFCURVE",
"276 93 CURVE SMOOTH",
"379 93 OFFCURVE",
"501 216 OFFCURVE",
"532 361 CURVE SMOOTH",
"536.267 381.27 OFFCURVE",
"538.353 401.477 OFFCURVE",
"538.353 421.002 CURVE SMOOTH",
"538.353 511.288 OFFCURVE",
"493.753 587 OFFCURVE",
"414 587 CURVE SMOOTH"
);
},
{
closed = 1;
nodes = (
"378 824 LINE SMOOTH",
"372.144 831.321 OFFCURVE",
"368.431 839.713 OFFCURVE",
"368.431 849.962 CURVE SMOOTH",
"368.431 853.713 OFFCURVE",
"368.928 857.713 OFFCURVE",
"370 862 CURVE SMOOTH",
"376 890 OFFCURVE",
"407 916 OFFCURVE",
"435 916 CURVE SMOOTH",
"453 916 OFFCURVE",
"467 906 OFFCURVE",
"475 894 CURVE",
"544 775 LINE SMOOTH",
"548.963 766.492 OFFCURVE",
"550.91 759.995 OFFCURVE",
"550.91 753.37 CURVE SMOOTH",
"550.91 750.651 OFFCURVE",
"550.582 747.91 OFFCURVE",
"550 745 CURVE SMOOTH",
"544 718 OFFCURVE",
"516 698 OFFCURVE",
"492 698 CURVE SMOOTH",
"477 698 OFFCURVE",
"467 704 OFFCURVE",
"461 713 CURVE SMOOTH"
);
}
);
userData = {
com.fontlab.hintData = {
hhints = (
{
position = -2;
width = 95;
},
{
position = 587;
width = 95;
}
);
vhints = (
{
position = 59;
width = 98;
},
{
position = 538;
width = 99;
}
);
};
};
width = 686;
}
);
unicode = 00D2;
},
{
glyphname = Ohungarumlaut;
layers = (
{
layerId = master01;
paths = (
{
closed = 1;
nodes = (
"131.853 -2 OFFCURVE",
"59.079 99.357 OFFCURVE",
"59.079 232.08 CURVE SMOOTH",
"59.079 258.65 OFFCURVE",
"61.995 286.477 OFFCURVE",
"68 315 CURVE SMOOTH",
"111 514 OFFCURVE",
"283 682 OFFCURVE",
"440 682 CURVE SMOOTH",
"562.727 682 OFFCURVE",
"638.056 581.629 OFFCURVE",
"638.056 447.809 CURVE SMOOTH",
"638.056 421.342 OFFCURVE",
"635.11 393.566 OFFCURVE",
"629 365 CURVE SMOOTH",
"587 166 OFFCURVE",
"414 -2 OFFCURVE",
"256 -2 CURVE SMOOTH"
);
},
{
closed = 1;
nodes = (
"311 587 OFFCURVE",
"197 466 OFFCURVE",
"164 315 CURVE",
"159.396 292.719 OFFCURVE",
"157.166 271.116 OFFCURVE",
"157.166 250.697 CURVE SMOOTH",
"157.166 160.228 OFFCURVE",
"200.941 93 OFFCURVE",
"276 93 CURVE SMOOTH",
"379 93 OFFCURVE",
"501 216 OFFCURVE",
"532 361 CURVE SMOOTH",
"536.267 381.27 OFFCURVE",
"538.353 401.477 OFFCURVE",
"538.353 421.002 CURVE SMOOTH",
"538.353 511.288 OFFCURVE",
"493.753 587 OFFCURVE",
"414 587 CURVE SMOOTH"
);
},
{
closed = 1;
nodes = (
"379 704 LINE SMOOTH",
"368 697 OFFCURVE",
"356 692 OFFCURVE",
"345 692 CURVE SMOOTH",
"324.156 692 OFFCURVE",
"307.837 707.841 OFFCURVE",
"307.837 729.695 CURVE SMOOTH",
"307.837 733.004 OFFCURVE",
"308.211 736.45 OFFCURVE",
"309 740 CURVE SMOOTH",
"311 751 OFFCURVE",
"317 763 OFFCURVE",
"330 772 CURVE SMOOTH",
"464 866 LINE",
"475 875 OFFCURVE",
"493 885 OFFCURVE",
"509 885 CURVE SMOOTH",
"534.791 885 OFFCURVE",
"552.452 867.262 OFFCURVE",
"552.452 842.587 CURVE SMOOTH",
"552.452 838.56 OFFCURVE",
"551.982 834.349 OFFCURVE",
"551 830 CURVE SMOOTH",
"548 815 OFFCURVE",
"539 799 OFFCURVE",
"523 790 CURVE SMOOTH"
);
},
{
closed = 1;
nodes = (
"584 704 LINE SMOOTH",
"573 697 OFFCURVE",
"561 692 OFFCURVE",
"550 692 CURVE SMOOTH",
"529.156 692 OFFCURVE",
"512.837 707.841 OFFCURVE",
"512.837 729.695 CURVE SMOOTH",
"512.837 733.004 OFFCURVE",
"513.211 736.45 OFFCURVE",
"514 740 CURVE SMOOTH",
"516 751 OFFCURVE",
"522 763 OFFCURVE",
"535 772 CURVE SMOOTH",
"669 866 LINE",
"680 875 OFFCURVE",
"698 885 OFFCURVE",
"714 885 CURVE SMOOTH",
"739.791 885 OFFCURVE",
"757.452 867.262 OFFCURVE",
"757.452 842.587 CURVE SMOOTH",
"757.452 838.56 OFFCURVE",
"756.982 834.349 OFFCURVE",
"756 830 CURVE SMOOTH",
"753 815 OFFCURVE",
"744 799 OFFCURVE",
"728 790 CURVE SMOOTH"
);
}
);
userData = {
com.fontlab.hintData = {
hhints = (
{
position = -2;
width = 95;
},
{
position = 587;
width = 95;
}
);
vhints = (
{
position = 59;
width = 98;
},
{
position = 538;
width = 100;
}
);
};
};
width = 686;
}
);
unicode = 0150;
},
{
glyphname = Oslash;
layers = (
{
layerId = master01;
paths = (
{
closed = 1;
nodes = (
"560 714 LINE SMOOTH",
"574 732 OFFCURVE",
"590 739 OFFCURVE",
"608 739 CURVE SMOOTH",
"627.409 739 OFFCURVE",
"646.039 724.991 OFFCURVE",
"646.039 701.779 CURVE SMOOTH",
"646.039 698.679 OFFCURVE",
"645.707 695.416 OFFCURVE",
"645 692 CURVE",
"643 686 OFFCURVE",
"641 677 OFFCURVE",
"634 668 CURVE SMOOTH",
"589 610 LINE",
"620.539 568.648 OFFCURVE",
"637.342 513.542 OFFCURVE",
"637.342 450.19 CURVE SMOOTH",
"637.342 423.153 OFFCURVE",
"634.282 394.613 OFFCURVE",
"628 365 CURVE SMOOTH",
"586 166 OFFCURVE",
"414 -2 OFFCURVE",
"256 -2 CURVE SMOOTH",
"213 -2 OFFCURVE",
"175 11 OFFCURVE",
"146 33 CURVE",
"116 -6 LINE SMOOTH",
"104 -21 OFFCURVE",
"88 -30 OFFCURVE",
"70 -30 CURVE SMOOTH",
"42.883 -30 OFFCURVE",
"30.846 -14.921 OFFCURVE",
"30.846 6.111 CURVE SMOOTH",
"30.846 9.899 OFFCURVE",
"31.237 13.88 OFFCURVE",
"32 18 CURVE",
"34 24 OFFCURVE",
"38 33 OFFCURVE",
"43 40 CURVE SMOOTH",
"88 100 LINE",
"68.705 136.018 OFFCURVE",
"58.924 180.31 OFFCURVE",
"58.924 229.416 CURVE SMOOTH",
"58.924 256.659 OFFCURVE",
"61.934 285.384 OFFCURVE",
"68 315 CURVE",
"111 514 OFFCURVE",
"283 682 OFFCURVE",
"440 682 CURVE SMOOTH",
"472 682 OFFCURVE",
"496 676 OFFCURVE",
"522 664 CURVE"
);
},
{
closed = 1;
nodes = (
"379 93 OFFCURVE",
"501 216 OFFCURVE",
"532 361 CURVE SMOOTH",
"536.743 382.159 OFFCURVE",
"539.089 402.918 OFFCURVE",
"539.089 422.842 CURVE SMOOTH",
"539.089 457.532 OFFCURVE",
"531.974 489.687 OFFCURVE",
"518 517 CURVE",
"210 115 LINE",
"229 100 OFFCURVE",
"249 93 OFFCURVE",
"276 93 CURVE SMOOTH"
);
},
{
closed = 1;
nodes = (
"311 587 OFFCURVE",
"197 466 OFFCURVE",
"164 315 CURVE SMOOTH",
"158.505 289.173 OFFCURVE",
"155.425 267.272 OFFCURVE",
"155.425 246.641 CURVE SMOOTH",
"155.425 229.727 OFFCURVE",
"157.495 213.668 OFFCURVE",
"162 197 CURVE",
"264 329 OFFCURVE",
"354 444 OFFCURVE",
"456 578 CURVE",
"445 584 OFFCURVE",
"428 587 OFFCURVE",
"414 587 CURVE SMOOTH"
);
}
);
userData = {
com.fontlab.hintData = {
hhints = (
{
position = -2;
width = 95;
},
{
position = 587;
width = 95;
}
);
vhints = (
{
position = 59;
width = 97;
},
{
position = 539;
width = 98;
}
);
};
};
width = 686;
}
);
unicode = 00D8;
},
{
glyphname = Otilde;
layers = (
{
layerId = master01;
paths = (
{
closed = 1;
nodes = (
"131.853 -2 OFFCURVE",
"59.079 99.357 OFFCURVE",
"59.079 232.08 CURVE SMOOTH",
"59.079 258.65 OFFCURVE",
"61.995 286.477 OFFCURVE",
"68 315 CURVE SMOOTH",
"111 514 OFFCURVE",
"283 682 OFFCURVE",
"440 682 CURVE SMOOTH",
"562.538 682 OFFCURVE",
"637.13 581.938 OFFCURVE",
"637.13 448.427 CURVE SMOOTH",
"637.13 421.774 OFFCURVE",
"634.157 393.789 OFFCURVE",
"628 365 CURVE SMOOTH",
"586 166 OFFCURVE",
"414 -2 OFFCURVE",
"256 -2 CURVE SMOOTH"
);
},
{
closed = 1;
nodes = (
"311 587 OFFCURVE",
"197 466 OFFCURVE",
"164 315 CURVE",
"159.396 292.719 OFFCURVE",
"157.166 271.116 OFFCURVE",
"157.166 250.697 CURVE SMOOTH",
"157.166 160.228 OFFCURVE",
"200.941 93 OFFCURVE",
"276 93 CURVE SMOOTH",
"379 93 OFFCURVE",
"501 216 OFFCURVE",
"532 361 CURVE SMOOTH",
"536.267 381.27 OFFCURVE",
"538.353 401.477 OFFCURVE",
"538.353 421.002 CURVE SMOOTH",
"538.353 511.288 OFFCURVE",
"493.753 587 OFFCURVE",
"414 587 CURVE SMOOTH"
);
},
{
closed = 1;
nodes = (
"631 886 OFFCURVE",
"644 893 OFFCURVE",
"659 893 CURVE SMOOTH",
"675.815 893 OFFCURVE",
"691.846 885.168 OFFCURVE",
"691.846 867.425 CURVE SMOOTH",
"691.846 865.119 OFFCURVE",
"691.575 862.646 OFFCURVE",
"691 860 CURVE SMOOTH",
"690 856 OFFCURVE",
"689 849 OFFCURVE",
"684 838 CURVE",
"667 807 OFFCURVE",
"610 705 OFFCURVE",
"509 705 CURVE SMOOTH",
"477 705 OFFCURVE",
"454 722 OFFCURVE",
"439 753 CURVE SMOOTH",
"427 776 OFFCURVE",
"419 788 OFFCURVE",
"404 788 CURVE SMOOTH",
"369 788 OFFCURVE",
"341 736 OFFCURVE",
"333 720 CURVE",
"324 705 OFFCURVE",
"314 698 OFFCURVE",
"299 698 CURVE SMOOTH",
"282.185 698 OFFCURVE",
"266.154 705.832 OFFCURVE",
"266.154 723.575 CURVE SMOOTH",
"266.154 725.881 OFFCURVE",
"266.425 728.354 OFFCURVE",
"267 731 CURVE SMOOTH",
"268 735 OFFCURVE",
"269 742 OFFCURVE",
"275 753 CURVE SMOOTH",
"304 810 OFFCURVE",
"357 877 OFFCURVE",
"435 877 CURVE SMOOTH",
"474 877 OFFCURVE",
"496 860 OFFCURVE",
"512 829 CURVE SMOOTH",
"523 807 OFFCURVE",
"531 793 OFFCURVE",
"546 793 CURVE SMOOTH",
"567 793 OFFCURVE",
"598 817 OFFCURVE",
"624 871 CURVE SMOOTH"
);
}
);
userData = {
com.fontlab.hintData = {
hhints = (
{
position = -2;
width = 95;
},
{
position = 587;
width = 95;
},
{
position = 705;
width = 88;
},
{
position = 788;
width = 89;
}
);
vhints = (
{
position = 59;
width = 98;
},
{
position = 538;
width = 99;
},
{
position = 624;
width = 68;
}
);
};
};
width = 686;
}
);
unicode = 00D5;
},
{
glyphname = OE;
layers = (
{
layerId = master01;
paths = (
{
closed = 1;
nodes = (
"937 100 LINE SMOOTH",
"961.056 100 OFFCURVE",
"976.254 83.762 OFFCURVE",
"976.254 61.431 CURVE SMOOTH",
"976.254 57.77 OFFCURVE",
"975.845 53.944 OFFCURVE",
"975 50 CURVE SMOOTH",
"969 22 OFFCURVE",
"944 0 OFFCURVE",
"916 0 CURVE SMOOTH",
"519 0 LINE SMOOTH",
"494.638 0 OFFCURVE",
"477.846 16.655 OFFCURVE",
"477.846 39.425 CURVE SMOOTH",
"477.846 42.826 OFFCURVE",
"478.22 46.362 OFFCURVE",
"479 50 CURVE SMOOTH",
"491 106 LINE",
"424 40 OFFCURVE",
"344 0 OFFCURVE",
"265 0 CURVE SMOOTH",
"140.657 0 OFFCURVE",
"67.152 101.677 OFFCURVE",
"67.152 234.71 CURVE SMOOTH",
"67.152 261.09 OFFCURVE",
"70.043 288.703 OFFCURVE",
"76 317 CURVE SMOOTH",
"118 516 OFFCURVE",
"291 684 OFFCURVE",
"449 684 CURVE SMOOTH",
"508 684 OFFCURVE",
"562 658 OFFCURVE",
"599 612 CURVE",
"603 632 LINE SMOOTH",
"609 660 OFFCURVE",
"635 682 OFFCURVE",
"663 682 CURVE SMOOTH",
"1062 682 LINE SMOOTH",
"1086.21 682 OFFCURVE",
"1102.2 665.547 OFFCURVE",
"1102.2 642.989 CURVE SMOOTH",
"1102.2 639.462 OFFCURVE",
"1101.81 635.786 OFFCURVE",
"1101 632 CURVE SMOOTH",
"1095 605 OFFCURVE",
"1069 582 OFFCURVE",
"1041 582 CURVE SMOOTH",
"691 582 LINE",
"653 401 LINE",
"957 401 LINE SMOOTH",
"981.056 401 OFFCURVE",
"996.254 385.5 OFFCURVE",
"996.254 363.378 CURVE SMOOTH",
"996.254 359.75 OFFCURVE",
"995.845 355.944 OFFCURVE",
"995 352 CURVE SMOOTH",
"989 324 OFFCURVE",
"964 302 OFFCURVE",
"936 302 CURVE SMOOTH",
"632 302 LINE",
"589 100 LINE"
);
},
{
closed = 1;
nodes = (
"410 95 OFFCURVE",
"516 250 OFFCURVE",
"540 363 CURVE SMOOTH",
"544.267 383.27 OFFCURVE",
"546.353 403.477 OFFCURVE",
"546.353 423.002 CURVE SMOOTH",
"546.353 513.288 OFFCURVE",
"501.753 589 OFFCURVE",
"422 589 CURVE SMOOTH",
"320 589 OFFCURVE",
"204 468 OFFCURVE",
"172 317 CURVE SMOOTH",
"167.148 294.421 OFFCURVE",
"164.804 272.539 OFFCURVE",
"164.804 251.879 CURVE SMOOTH",
"164.804 161.823 OFFCURVE",
"209.354 95 OFFCURVE",
"285 95 CURVE SMOOTH"
);
}
);
userData = {
com.fontlab.hintData = {
hhints = (
{
position = 0;
width = 100;
},
{
position = 302;
width = 99;
},
{
position = 582;
width = 100;
},
{
position = 589;
width = 95;
}
);
vhints = (
{
position = 67;
width = 98;
}
);
};
};
width = 1124;
}
);
unicode = 0152;
},
{
glyphname = P;
layers = (
{
layerId = master01;
paths = (
{
closed = 1;
nodes = (
"32.147 0 OFFCURVE",
"13.929 16.225 OFFCURVE",
"13.929 39.167 CURVE SMOOTH",
"13.929 42.325 OFFCURVE",
"14.274 45.611 OFFCURVE",
"15 49 CURVE SMOOTH",
"136 620 LINE SMOOTH",
"146 665 OFFCURVE",
"152 682 OFFCURVE",
"246 682 CURVE SMOOTH",
"469.791 682 OFFCURVE",
"576.724 620.789 OFFCURVE",
"576.724 510.417 CURVE SMOOTH",
"576.724 496.998 OFFCURVE",
"575.144 482.851 OFFCURVE",
"572 468 CURVE SMOOTH",
"533 286 OFFCURVE",
"294 228 OFFCURVE",
"151 223 CURVE",
"114 49 LINE SMOOTH",
"108 21 OFFCURVE",
"83 0 OFFCURVE",
"55 0 CURVE SMOOTH"
);
},
{
closed = 1;
nodes = (
"172 321 LINE",
"262 326 OFFCURVE",
"449 355 OFFCURVE",
"473 468 CURVE SMOOTH",
"474.29 473.968 OFFCURVE",
"474.93 479.722 OFFCURVE",
"474.93 485.256 CURVE SMOOTH",
"474.93 548.347 OFFCURVE",
"391.773 583 OFFCURVE",
"241 583 CURVE SMOOTH",
"227 583 LINE"
);
}
);
userData = {
com.fontlab.hintData = {
hhints = (
{
position = 0;
width = 21;
},
{
position = 223;
width = 98;
},
{
position = 583;
width = 99;
}
);
vhints = (
{
position = 475;
width = 102;
}
);
};
};
width = 573;
}
);
unicode = 0050;
},
{
glyphname = Thorn;
layers = (
{
layerId = master01;
paths = (
{
closed = 1;
nodes = (
"223 579 LINE",
"354.104 577.179 OFFCURVE",
"515.879 554.635 OFFCURVE",
"515.879 417.033 CURVE SMOOTH",
"515.879 403.499 OFFCURVE",
"514.313 388.851 OFFCURVE",
"511 373 CURVE SMOOTH",
"474 198 OFFCURVE",
"269 142 OFFCURVE",
"127 134 CURVE",
"108 47 LINE",
"103 20 OFFCURVE",
"78 0 OFFCURVE",
"51 0 CURVE SMOOTH",
"28.538 0 OFFCURVE",
"12.793 14.928 OFFCURVE",
"12.793 37.045 CURVE SMOOTH",
"12.793 40.528 OFFCURVE",
"13.184 44.19 OFFCURVE",
"14 48 CURVE SMOOTH",
"140 633 LINE SMOOTH",
"146 660 OFFCURVE",
"171 680 OFFCURVE",
"197 680 CURVE SMOOTH",
"218.723 680 OFFCURVE",
"235.161 664.9 OFFCURVE",
"235.161 642.572 CURVE SMOOTH",
"235.161 639.203 OFFCURVE",
"234.787 635.67 OFFCURVE",
"234 632 CURVE SMOOTH"
);
},
{
closed = 1;
nodes = (
"241 238 OFFCURVE",
"395 270 OFFCURVE",
"417 373 CURVE SMOOTH",
"418.112 378.478 OFFCURVE",
"418.662 383.78 OFFCURVE",
"418.662 388.899 CURVE SMOOTH",
"418.662 448.252 OFFCURVE",
"344.646 483 OFFCURVE",
"213 483 CURVE SMOOTH",
"202 483 LINE",
"202 483 OFFCURVE",
"166 316 OFFCURVE",
"148 232 CURVE"
);
}
);
userData = {
com.fontlab.hintData = {
hhints = (
{
position = 0;
width = 21;
},
{
position = 134;
width = 98;
},
{
position = 483;
width = 96;
}
);
vhints = (
{
position = 419;
width = 97;
}
);
};
};
width = 573;
}
);
unicode = 00DE;
},
{
glyphname = Q;
layers = (
{
layerId = master01;
paths = (
{
closed = 1;
nodes = (
"604 68 LINE SMOOTH",
"614.022 60.842 OFFCURVE",
"617.382 50.609 OFFCURVE",
"617.382 39.502 CURVE SMOOTH",
"617.382 35.093 OFFCURVE",
"616.852 30.547 OFFCURVE",
"616 26 CURVE SMOOTH",
"609 -5 OFFCURVE",
"581 -22 OFFCURVE",
"557 -22 CURVE SMOOTH",
"547 -22 OFFCURVE",
"538 -20 OFFCURVE",
"531 -15 CURVE SMOOTH",
"452 48 LINE",
"396 16 OFFCURVE",
"337 -2 OFFCURVE",
"279 -2 CURVE SMOOTH",
"137.604 -2 OFFCURVE",
"52.074 103.202 OFFCURVE",
"52.074 239.447 CURVE SMOOTH",
"52.074 263.155 OFFCURVE",
"54.664 287.803 OFFCURVE",
"60 313 CURVE SMOOTH",
"103 513 OFFCURVE",
"292 680 OFFCURVE",
"468 680 CURVE SMOOTH",
"608.705 680 OFFCURVE",
"694.87 575.284 OFFCURVE",
"694.87 437.787 CURVE SMOOTH",
"694.87 414.045 OFFCURVE",
"692.301 389.326 OFFCURVE",
"687 364 CURVE SMOOTH",
"666 266 OFFCURVE",
"615 180 OFFCURVE",
"542 114 CURVE"
);
},
{
closed = 1;
nodes = (
"336 135 LINE SMOOTH",
"324.835 144.072 OFFCURVE",
"321.461 152.657 OFFCURVE",
"321.461 162.454 CURVE SMOOTH",
"321.461 166.696 OFFCURVE",
"322.093 171.165 OFFCURVE",
"323 176 CURVE SMOOTH",
"329 204 OFFCURVE",
"356 225 OFFCURVE",
"381 225 CURVE SMOOTH",
"392 225 OFFCURVE",
"403 222 OFFCURVE",
"411 215 CURVE SMOOTH",
"470 170 LINE",
"523 219 OFFCURVE",
"568 288 OFFCURVE",
"583 361 CURVE SMOOTH",
"586.652 378.193 OFFCURVE",
"588.428 395.293 OFFCURVE",
"588.428 411.931 CURVE SMOOTH",
"588.428 504.645 OFFCURVE",
"533.264 583 OFFCURVE",
"440 583 CURVE SMOOTH",
"324 583 OFFCURVE",
"195 464 OFFCURVE",
"164 317 CURVE SMOOTH",
"159.742 296.693 OFFCURVE",
"157.683 277.082 OFFCURVE",
"157.683 258.486 CURVE SMOOTH",
"157.683 163.53 OFFCURVE",
"211.36 95 OFFCURVE",
"300 95 CURVE SMOOTH",
"324 95 OFFCURVE",
"348 100 OFFCURVE",
"370 108 CURVE"
);
}
);
userData = {
com.fontlab.hintData = {
hhints = (
{
position = -2;
width = 97;
},
{
position = 583;
width = 97;
}
);
vhints = (
{
position = 52;
width = 106;
},
{
position = 588;
width = 106;
}
);
};
};
width = 740;
}
);
unicode = 0051;
},
{
glyphname = R;
layers = (
{
layerId = master01;
paths = (
{
closed = 1;
nodes = (
"512 64 OFFCURVE",
"511 56 OFFCURVE",
"510 49 CURVE SMOOTH",
"505 24 OFFCURVE",
"481 0 OFFCURVE",
"451 0 CURVE SMOOTH",
"432 0 OFFCURVE",
"419 10 OFFCURVE",
"412 26 CURVE",
"337 225 OFFCURVE",
"255 233 OFFCURVE",
"220 233 CURVE SMOOTH",
"201 233 OFFCURVE",
"177 231 OFFCURVE",
"152 227 CURVE",
"114 49 LINE SMOOTH",
"108 21 OFFCURVE",
"81 0 OFFCURVE",
"55 0 CURVE SMOOTH",
"30.786 0 OFFCURVE",
"14.798 15.705 OFFCURVE",
"14.798 38.061 CURVE SMOOTH",
"14.798 41.557 OFFCURVE",
"15.189 45.214 OFFCURVE",
"16 49 CURVE SMOOTH",
"139 627 LINE SMOOTH",
"151.212 685.242 OFFCURVE",
"167.837 687.007 OFFCURVE",
"255.192 687.007 CURVE SMOOTH",
"260.827 687.007 OFFCURVE",
"266.758 687 OFFCURVE",
"273 687 CURVE SMOOTH",
"472.598 687 OFFCURVE",
"580.887 623.481 OFFCURVE",
"580.887 512.007 CURVE SMOOTH",
"580.887 498.379 OFFCURVE",
"579.268 484.033 OFFCURVE",
"576 469 CURVE SMOOTH",
"555 368 OFFCURVE",
"473 310 OFFCURVE",
"387 275 CURVE",
"426 238 OFFCURVE",
"480 171 OFFCURVE",
"510 72 CURVE SMOOTH"
);
},
{
closed = 1;
nodes = (
"172 324 LINE",
"296 332 OFFCURVE",
"457 374 OFFCURVE",
"477 469 CURVE SMOOTH",
"478.433 475.658 OFFCURVE",
"479.141 482.045 OFFCURVE",
"479.141 488.161 CURVE SMOOTH",
"479.141 554.619 OFFCURVE",
"395.516 589 OFFCURVE",
"249 589 CURVE SMOOTH",
"229 589 LINE"
);
}
);
userData = {
com.fontlab.hintData = {
hhints = (
{
position = 0;
width = 21;
},
{
position = 233;
width = 91;
},
{
position = 589;
width = 98;
}
);
vhints = (
{
position = 412;
width = 98;
},
{
position = 479;
width = 102;
}
);
};
};
width = 623;
}
);
unicode = 0052;
},
{
glyphname = Racute;
layers = (
{
layerId = master01;
paths = (
{
closed = 1;
nodes = (
"512 64 OFFCURVE",
"511 56 OFFCURVE",
"510 49 CURVE SMOOTH",
"505 24 OFFCURVE",
"481 0 OFFCURVE",
"451 0 CURVE SMOOTH",
"432 0 OFFCURVE",
"419 10 OFFCURVE",
"412 26 CURVE",
"337 225 OFFCURVE",
"255 233 OFFCURVE",
"220 233 CURVE SMOOTH",
"201 233 OFFCURVE",
"177 231 OFFCURVE",
"152 227 CURVE",
"114 49 LINE SMOOTH",
"108 21 OFFCURVE",
"81 0 OFFCURVE",
"55 0 CURVE SMOOTH",
"30.786 0 OFFCURVE",
"14.798 15.705 OFFCURVE",
"14.798 38.061 CURVE SMOOTH",
"14.798 41.557 OFFCURVE",
"15.189 45.214 OFFCURVE",
"16 49 CURVE SMOOTH",
"139 627 LINE SMOOTH",
"151.212 685.242 OFFCURVE",
"167.837 687.007 OFFCURVE",
"255.192 687.007 CURVE SMOOTH",
"260.827 687.007 OFFCURVE",
"266.758 687 OFFCURVE",
"273 687 CURVE SMOOTH",
"472.598 687 OFFCURVE",
"580.887 623.481 OFFCURVE",
"580.887 512.007 CURVE SMOOTH",
"580.887 498.379 OFFCURVE",
"579.268 484.033 OFFCURVE",
"576 469 CURVE SMOOTH",
"555 368 OFFCURVE",
"473 310 OFFCURVE",
"387 275 CURVE",
"426 238 OFFCURVE",
"480 171 OFFCURVE",
"510 72 CURVE SMOOTH"
);
},
{
closed = 1;
nodes = (
"172 324 LINE",
"296 332 OFFCURVE",
"457 374 OFFCURVE",
"477 469 CURVE SMOOTH",
"478.433 475.658 OFFCURVE",
"479.141 482.045 OFFCURVE",
"479.141 488.161 CURVE SMOOTH",
"479.141 554.619 OFFCURVE",
"395.516 589 OFFCURVE",
"249 589 CURVE SMOOTH",
"229 589 LINE"
);
},
{
closed = 1;
nodes = (
"465 883 LINE SMOOTH",
"477 891 OFFCURVE",
"493 902 OFFCURVE",
"510 902 CURVE SMOOTH",
"536.125 902 OFFCURVE",
"553.15 883.8 OFFCURVE",
"553.15 858.626 CURVE SMOOTH",
"553.15 854.892 OFFCURVE",
"552.775 851.004 OFFCURVE",
"552 847 CURVE",
"548 832 OFFCURVE",
"540 817 OFFCURVE",
"524 807 CURVE SMOOTH",
"382 722 LINE SMOOTH",
"370 715 OFFCURVE",
"357 709 OFFCURVE",
"346 709 CURVE SMOOTH",
"324.842 709 OFFCURVE",
"309.124 725.321 OFFCURVE",
"309.124 747.686 CURVE SMOOTH",
"309.124 750.69 OFFCURVE",
"309.408 753.803 OFFCURVE",
"310 757 CURVE",
"313 768 OFFCURVE",
"318 781 OFFCURVE",
"330 790 CURVE SMOOTH"
);
}
);
userData = {
com.fontlab.hintData = {
hhints = (
{
position = 0;
width = 21;
},
{
position = 233;
width = 91;
},
{
position = 589;
width = 98;
}
);
vhints = (
{
position = 412;
width = 98;
},
{
position = 479;
width = 102;
}
);
};
};
width = 623;
}
);
unicode = 0154;
},
{
glyphname = Rcaron;
layers = (
{
layerId = master01;
paths = (
{
closed = 1;
nodes = (
"420 721 LINE SMOOTH",
"407 712 OFFCURVE",
"394 709 OFFCURVE",
"385 709 CURVE SMOOTH",
"373 709 OFFCURVE",
"360 715 OFFCURVE",
"351 727 CURVE SMOOTH",
"275 823 LINE SMOOTH",
"270.1 830 OFFCURVE",
"267.65 837.49 OFFCURVE",
"267.65 845.813 CURVE SMOOTH",
"267.65 849.38 OFFCURVE",
"268.1 853.1 OFFCURVE",
"269 857 CURVE SMOOTH",
"274 882 OFFCURVE",
"300 904 OFFCURVE",
"325 904 CURVE SMOOTH",
"337 904 OFFCURVE",
"346 902 OFFCURVE",
"355 892 CURVE SMOOTH",
"414 826 LINE",
"518 895 LINE SMOOTH",
"530 903 OFFCURVE",
"539 904 OFFCURVE",
"549 904 CURVE SMOOTH",
"571.048 904 OFFCURVE",
"586.874 888.444 OFFCURVE",
"586.874 866.25 CURVE SMOOTH",
"586.874 863.278 OFFCURVE",
"586.59 860.188 OFFCURVE",
"586 857 CURVE SMOOTH",
"583 844 OFFCURVE",
"574 831 OFFCURVE",
"560 821 CURVE SMOOTH"
);
},
{
closed = 1;
nodes = (
"512 64 OFFCURVE",
"511 56 OFFCURVE",
"510 49 CURVE SMOOTH",
"505 24 OFFCURVE",
"481 0 OFFCURVE",
"451 0 CURVE SMOOTH",
"432 0 OFFCURVE",
"419 10 OFFCURVE",
"412 26 CURVE",
"337 225 OFFCURVE",
"255 233 OFFCURVE",
"220 233 CURVE SMOOTH",
"201 233 OFFCURVE",
"177 231 OFFCURVE",
"152 227 CURVE",
"114 49 LINE SMOOTH",
"108 21 OFFCURVE",
"81 0 OFFCURVE",
"55 0 CURVE SMOOTH",
"30.786 0 OFFCURVE",
"14.798 15.705 OFFCURVE",
"14.798 38.061 CURVE SMOOTH",
"14.798 41.557 OFFCURVE",
"15.189 45.214 OFFCURVE",
"16 49 CURVE SMOOTH",
"139 627 LINE SMOOTH",
"151.212 685.242 OFFCURVE",
"167.837 687.007 OFFCURVE",
"255.192 687.007 CURVE SMOOTH",
"260.827 687.007 OFFCURVE",
"266.758 687 OFFCURVE",
"273 687 CURVE SMOOTH",
"472.598 687 OFFCURVE",
"580.887 623.481 OFFCURVE",
"580.887 512.007 CURVE SMOOTH",
"580.887 498.379 OFFCURVE",
"579.268 484.033 OFFCURVE",
"576 469 CURVE SMOOTH",
"555 368 OFFCURVE",
"473 310 OFFCURVE",
"387 275 CURVE",
"426 238 OFFCURVE",
"480 171 OFFCURVE",
"510 72 CURVE SMOOTH"
);
},
{
closed = 1;
nodes = (
"172 324 LINE",
"296 332 OFFCURVE",
"457 374 OFFCURVE",
"477 469 CURVE SMOOTH",
"478.433 475.658 OFFCURVE",
"479.141 482.045 OFFCURVE",
"479.141 488.161 CURVE SMOOTH",
"479.141 554.619 OFFCURVE",
"395.516 589 OFFCURVE",
"249 589 CURVE SMOOTH",
"229 589 LINE"
);
}
);
userData = {
com.fontlab.hintData = {
hhints = (
{
position = 0;
width = 21;
},
{
position = 233;
width = 91;
},
{
position = 589;
width = 98;
}
);
vhints = (
{
position = 412;
width = 98;
},
{
position = 479;
width = 102;
}
);
};
};
width = 623;
}
);
unicode = 0158;
},
{
glyphname = S;
layers = (
{
layerId = master01;
paths = (
{
closed = 1;
nodes = (
"227.288 332.403 OFFCURVE",
"135.473 376.873 OFFCURVE",
"135.473 467.935 CURVE SMOOTH",
"135.473 478.038 OFFCURVE",
"136.603 488.715 OFFCURVE",
"139 500 CURVE SMOOTH",
"169 640 OFFCURVE",
"299 682 OFFCURVE",
"417 682 CURVE SMOOTH",
"487.355 682 OFFCURVE",
"605.296 659.459 OFFCURVE",
"605.296 564.033 CURVE SMOOTH",
"605.296 555.019 OFFCURVE",
"604.244 545.356 OFFCURVE",
"602 535 CURVE SMOOTH",
"596 505 OFFCURVE",
"570 483 OFFCURVE",
"542 483 CURVE SMOOTH",
"514.912 483 OFFCURVE",
"503.053 502.812 OFFCURVE",
"503.053 527.211 CURVE SMOOTH",
"503.053 567.772 OFFCURVE",
"449.026 589 OFFCURVE",
"395 589 CURVE SMOOTH",
"326 589 OFFCURVE",
"260 566 OFFCURVE",
"247 504 CURVE SMOOTH",
"245.954 499.397 OFFCURVE",
"245.433 494.957 OFFCURVE",
"245.433 490.671 CURVE SMOOTH",
"245.433 453.987 OFFCURVE",
"283.579 428.489 OFFCURVE",
"357 407 CURVE SMOOTH",
"477.756 371.381 OFFCURVE",
"538.134 316.14 OFFCURVE",
"538.134 237.997 CURVE SMOOTH",
"538.134 226.191 OFFCURVE",
"536.756 213.863 OFFCURVE",
"534 201 CURVE SMOOTH",
"505 63 OFFCURVE",
"358 0 OFFCURVE",
"251 0 CURVE SMOOTH",
"139 0 OFFCURVE",
"55 62 OFFCURVE",
"36 145 CURVE SMOOTH",
"35 152 OFFCURVE",
"35 162 OFFCURVE",
"37 170 CURVE SMOOTH",
"42 197 OFFCURVE",
"69 220 OFFCURVE",
"98 220 CURVE SMOOTH",
"123 220 OFFCURVE",
"137 205 OFFCURVE",
"140 183 CURVE SMOOTH",
"149 123 OFFCURVE",
"213 96 OFFCURVE",
"270 96 CURVE SMOOTH",
"330 96 OFFCURVE",
"412 127 OFFCURVE",
"427 196 CURVE SMOOTH",
"428.381 202.511 OFFCURVE",
"429.529 209.489 OFFCURVE",
"429.529 216.765 CURVE SMOOTH",
"429.529 246.368 OFFCURVE",
"410.535 280.906 OFFCURVE",
"311 309 CURVE SMOOTH"
);
}
);
userData = {
com.fontlab.hintData = {
hhints = (
{
position = 0;
width = 96;
},
{
position = 589;
width = 93;
}
);
vhints = (
{
position = 37;
width = 103;
},
{
position = 135;
width = 110;
},
{
position = 430;
width = 109;
},
{
position = 503;
width = 102;
}
);
};
};
width = 624;
}
);
unicode = 0053;
},
{
glyphname = Sacute;
layers = (
{
layerId = master01;
paths = (
{
closed = 1;
nodes = (
"227.288 332.403 OFFCURVE",
"135.473 376.873 OFFCURVE",
"135.473 467.935 CURVE SMOOTH",
"135.473 478.038 OFFCURVE",
"136.603 488.715 OFFCURVE",
"139 500 CURVE SMOOTH",
"169 640 OFFCURVE",
"299 682 OFFCURVE",
"417 682 CURVE SMOOTH",
"487.355 682 OFFCURVE",
"605.296 659.459 OFFCURVE",
"605.296 564.033 CURVE SMOOTH",
"605.296 555.019 OFFCURVE",
"604.244 545.356 OFFCURVE",
"602 535 CURVE SMOOTH",
"596 505 OFFCURVE",
"570 483 OFFCURVE",
"542 483 CURVE SMOOTH",
"514.912 483 OFFCURVE",
"503.053 502.812 OFFCURVE",
"503.053 527.211 CURVE SMOOTH",
"503.053 567.772 OFFCURVE",
"449.026 589 OFFCURVE",
"395 589 CURVE SMOOTH",
"326 589 OFFCURVE",
"260 566 OFFCURVE",
"247 504 CURVE SMOOTH",
"245.954 499.397 OFFCURVE",
"245.433 494.957 OFFCURVE",
"245.433 490.671 CURVE SMOOTH",
"245.433 453.987 OFFCURVE",
"283.579 428.489 OFFCURVE",
"357 407 CURVE SMOOTH",
"477.756 371.381 OFFCURVE",
"538.134 316.14 OFFCURVE",
"538.134 237.997 CURVE SMOOTH",
"538.134 226.191 OFFCURVE",
"536.756 213.863 OFFCURVE",
"534 201 CURVE SMOOTH",
"505 63 OFFCURVE",
"358 0 OFFCURVE",
"251 0 CURVE SMOOTH",
"139 0 OFFCURVE",
"55 62 OFFCURVE",
"36 145 CURVE SMOOTH",
"35 152 OFFCURVE",
"35 162 OFFCURVE",
"37 170 CURVE SMOOTH",
"42 197 OFFCURVE",
"69 220 OFFCURVE",
"98 220 CURVE SMOOTH",
"123 220 OFFCURVE",
"137 205 OFFCURVE",
"140 183 CURVE SMOOTH",
"149 123 OFFCURVE",
"213 96 OFFCURVE",
"270 96 CURVE SMOOTH",
"330 96 OFFCURVE",
"412 127 OFFCURVE",
"427 196 CURVE SMOOTH",
"428.381 202.511 OFFCURVE",
"429.529 209.489 OFFCURVE",
"429.529 216.765 CURVE SMOOTH",
"429.529 246.368 OFFCURVE",
"410.535 280.906 OFFCURVE",
"311 309 CURVE SMOOTH"
);
},
{
closed = 1;
nodes = (
"487 883 LINE SMOOTH",
"499 891 OFFCURVE",
"515 902 OFFCURVE",
"532 902 CURVE SMOOTH",
"558.125 902 OFFCURVE",
"575.15 883.8 OFFCURVE",
"575.15 858.626 CURVE SMOOTH",
"575.15 854.892 OFFCURVE",
"574.775 851.004 OFFCURVE",
"574 847 CURVE",
"570 832 OFFCURVE",
"562 817 OFFCURVE",
"546 807 CURVE SMOOTH",
"404 722 LINE SMOOTH",
"392 715 OFFCURVE",
"379 709 OFFCURVE",
"368 709 CURVE SMOOTH",
"346.842 709 OFFCURVE",
"331.124 725.321 OFFCURVE",
"331.124 747.686 CURVE SMOOTH",
"331.124 750.69 OFFCURVE",
"331.408 753.803 OFFCURVE",
"332 757 CURVE",
"335 768 OFFCURVE",
"340 781 OFFCURVE",
"352 790 CURVE SMOOTH"
);
}
);
userData = {
com.fontlab.hintData = {
hhints = (
{
position = 0;
width = 96;
},
{
position = 589;
width = 93;
}
);
vhints = (
{
position = 37;
width = 103;
},
{
position = 135;
width = 110;
},
{
position = 430;
width = 109;
},
{
position = 503;
width = 102;
}
);
};
};
width = 624;
}
);
unicode = 015A;
},
{
glyphname = Scaron;
layers = (
{
layerId = master01;
paths = (
{
closed = 1;
nodes = (
"227.288 332.403 OFFCURVE",
"135.473 376.873 OFFCURVE",
"135.473 467.935 CURVE SMOOTH",
"135.473 478.038 OFFCURVE",
"136.603 488.715 OFFCURVE",
"139 500 CURVE SMOOTH",
"169 640 OFFCURVE",
"299 682 OFFCURVE",
"417 682 CURVE SMOOTH",
"487.355 682 OFFCURVE",
"605.296 659.459 OFFCURVE",
"605.296 564.033 CURVE SMOOTH",
"605.296 555.019 OFFCURVE",
"604.244 545.356 OFFCURVE",
"602 535 CURVE SMOOTH",
"596 505 OFFCURVE",
"570 483 OFFCURVE",
"542 483 CURVE SMOOTH",
"514.912 483 OFFCURVE",
"503.053 502.812 OFFCURVE",
"503.053 527.211 CURVE SMOOTH",
"503.053 567.772 OFFCURVE",
"449.026 589 OFFCURVE",
"395 589 CURVE SMOOTH",
"326 589 OFFCURVE",
"260 566 OFFCURVE",
"247 504 CURVE SMOOTH",
"245.954 499.397 OFFCURVE",
"245.433 494.957 OFFCURVE",
"245.433 490.671 CURVE SMOOTH",
"245.433 453.987 OFFCURVE",
"283.579 428.489 OFFCURVE",
"357 407 CURVE SMOOTH",
"477.756 371.381 OFFCURVE",
"538.134 316.14 OFFCURVE",
"538.134 237.997 CURVE SMOOTH",
"538.134 226.191 OFFCURVE",
"536.756 213.863 OFFCURVE",
"534 201 CURVE SMOOTH",
"505 63 OFFCURVE",
"358 0 OFFCURVE",
"251 0 CURVE SMOOTH",
"139 0 OFFCURVE",
"55 62 OFFCURVE",
"36 145 CURVE SMOOTH",
"35 152 OFFCURVE",
"35 162 OFFCURVE",
"37 170 CURVE SMOOTH",
"42 197 OFFCURVE",
"69 220 OFFCURVE",
"98 220 CURVE SMOOTH",
"123 220 OFFCURVE",
"137 205 OFFCURVE",
"140 183 CURVE SMOOTH",
"149 123 OFFCURVE",
"213 96 OFFCURVE",
"270 96 CURVE SMOOTH",
"330 96 OFFCURVE",
"412 127 OFFCURVE",
"427 196 CURVE SMOOTH",
"428.381 202.511 OFFCURVE",
"429.529 209.489 OFFCURVE",
"429.529 216.765 CURVE SMOOTH",
"429.529 246.368 OFFCURVE",
"410.535 280.906 OFFCURVE",
"311 309 CURVE SMOOTH"
);
},
{
closed = 1;
nodes = (
"453 721 LINE SMOOTH",
"440 712 OFFCURVE",
"427 709 OFFCURVE",
"418 709 CURVE SMOOTH",
"406 709 OFFCURVE",
"393 715 OFFCURVE",
"384 727 CURVE SMOOTH",
"308 823 LINE SMOOTH",
"303.1 830 OFFCURVE",
"300.65 837.49 OFFCURVE",
"300.65 845.813 CURVE SMOOTH",
"300.65 849.38 OFFCURVE",
"301.1 853.1 OFFCURVE",
"302 857 CURVE SMOOTH",
"307 882 OFFCURVE",
"333 904 OFFCURVE",
"358 904 CURVE SMOOTH",
"370 904 OFFCURVE",
"379 902 OFFCURVE",
"388 892 CURVE SMOOTH",
"447 826 LINE",
"551 895 LINE SMOOTH",
"563 903 OFFCURVE",
"572 904 OFFCURVE",
"582 904 CURVE SMOOTH",
"604.048 904 OFFCURVE",
"619.874 888.444 OFFCURVE",
"619.874 866.25 CURVE SMOOTH",
"619.874 863.278 OFFCURVE",
"619.59 860.188 OFFCURVE",
"619 857 CURVE SMOOTH",
"616 844 OFFCURVE",
"607 831 OFFCURVE",
"593 821 CURVE SMOOTH"
);
}
);
userData = {
com.fontlab.hintData = {
hhints = (
{
position = 0;
width = 96;
},
{
position = 589;
width = 93;
}
);
vhints = (
{
position = 37;
width = 103;
},
{
position = 135;
width = 110;
},
{
position = 430;
width = 109;
},
{
position = 503;
width = 102;
}
);
};
};
width = 624;
}
);
unicode = 0160;
},
{
glyphname = Scedilla;
layers = (
{
layerId = master01;
paths = (
{
closed = 1;
nodes = (
"219 -130 OFFCURVE",
"224 -132 OFFCURVE",
"233 -132 CURVE SMOOTH",
"249 -132 OFFCURVE",
"259 -118 OFFCURVE",
"262 -106 CURVE SMOOTH",
"262.457 -104.172 OFFCURVE",
"262.682 -102.437 OFFCURVE",
"262.682 -100.798 CURVE SMOOTH",
"262.682 -91.679 OFFCURVE",
"255.715 -85.543 OFFCURVE",
"243 -83 CURVE SMOOTH",
"196 -73 LINE SMOOTH",
"185.801 -70.734 OFFCURVE",
"181.702 -64.614 OFFCURVE",
"181.702 -56.462 CURVE SMOOTH",
"181.702 -50.226 OFFCURVE",
"184.1 -42.801 OFFCURVE",
"188 -35 CURVE SMOOTH",
"195 -20 OFFCURVE",
"201 -7 OFFCURVE",
"207 3 CURVE",
"117 17 OFFCURVE",
"52 73 OFFCURVE",
"36 145 CURVE SMOOTH",
"35 152 OFFCURVE",
"35 162 OFFCURVE",
"37 170 CURVE SMOOTH",
"42 197 OFFCURVE",
"69 220 OFFCURVE",
"98 220 CURVE SMOOTH",
"123 220 OFFCURVE",
"137 205 OFFCURVE",
"140 183 CURVE SMOOTH",
"149 123 OFFCURVE",
"213 96 OFFCURVE",
"270 96 CURVE SMOOTH",
"330 96 OFFCURVE",
"412 127 OFFCURVE",
"427 196 CURVE SMOOTH",
"428.381 202.511 OFFCURVE",
"429.529 209.489 OFFCURVE",
"429.529 216.765 CURVE SMOOTH",
"429.529 246.368 OFFCURVE",
"410.535 280.906 OFFCURVE",
"311 309 CURVE SMOOTH",
"227.288 332.403 OFFCURVE",
"135.473 376.873 OFFCURVE",
"135.473 467.935 CURVE SMOOTH",
"135.473 478.038 OFFCURVE",
"136.603 488.715 OFFCURVE",
"139 500 CURVE SMOOTH",
"169 640 OFFCURVE",
"299 682 OFFCURVE",
"417 682 CURVE SMOOTH",
"487.355 682 OFFCURVE",
"605.296 659.459 OFFCURVE",
"605.296 564.033 CURVE SMOOTH",
"605.296 555.019 OFFCURVE",
"604.244 545.356 OFFCURVE",
"602 535 CURVE SMOOTH",
"596 505 OFFCURVE",
"570 483 OFFCURVE",
"542 483 CURVE SMOOTH",
"514.912 483 OFFCURVE",
"503.053 502.812 OFFCURVE",
"503.053 527.211 CURVE SMOOTH",
"503.053 567.772 OFFCURVE",
"449.026 589 OFFCURVE",
"395 589 CURVE SMOOTH",
"326 589 OFFCURVE",
"260 566 OFFCURVE",
"247 504 CURVE SMOOTH",
"245.954 499.397 OFFCURVE",
"245.433 494.957 OFFCURVE",
"245.433 490.671 CURVE SMOOTH",
"245.433 453.987 OFFCURVE",
"283.579 428.489 OFFCURVE",
"357 407 CURVE SMOOTH",
"477.756 371.381 OFFCURVE",
"538.134 316.14 OFFCURVE",
"538.134 237.997 CURVE SMOOTH",
"538.134 226.191 OFFCURVE",
"536.756 213.863 OFFCURVE",
"534 201 CURVE SMOOTH",
"506 68 OFFCURVE",
"369 5 OFFCURVE",
"263 0 CURVE",
"262 -9 OFFCURVE",
"260 -20 OFFCURVE",
"259 -27 CURVE",
"308.29 -35.498 OFFCURVE",
"334.469 -54.107 OFFCURVE",
"334.469 -89.579 CURVE SMOOTH",
"334.469 -95.847 OFFCURVE",
"333.652 -102.642 OFFCURVE",
"332 -110 CURVE SMOOTH",
"320 -168 OFFCURVE",
"267 -196 OFFCURVE",
"209 -196 CURVE SMOOTH",
"174.08 -196 OFFCURVE",
"139.161 -182.489 OFFCURVE",
"139.161 -155.467 CURVE SMOOTH",
"139.161 -153.083 OFFCURVE",
"139.433 -150.594 OFFCURVE",
"140 -148 CURVE SMOOTH",
"144 -131 OFFCURVE",
"161 -109 OFFCURVE",
"184 -109 CURVE SMOOTH",
"201 -109 OFFCURVE",
"206 -118 OFFCURVE",
"215 -126 CURVE SMOOTH"
);
}
);
userData = {
com.fontlab.hintData = {
hhints = (
{
position = -196;
width = 64;
},
{
position = 0;
width = 96;
},
{
position = 589;
width = 93;
}
);
vhints = (
{
position = 37;
width = 103;
},
{
position = 135;
width = 110;
},
{
position = 263;
width = 72;
},
{
position = 430;
width = 109;
},
{
position = 503;
width = 102;
}
);
};
};
width = 624;
}
);
unicode = 015E;
},
{
glyphname = Scircumflex;
layers = (
{
layerId = master01;
paths = (
{
closed = 1;
nodes = (
"227.288 332.403 OFFCURVE",
"135.473 376.873 OFFCURVE",
"135.473 467.935 CURVE SMOOTH",
"135.473 478.038 OFFCURVE",
"136.603 488.715 OFFCURVE",
"139 500 CURVE SMOOTH",
"169 640 OFFCURVE",
"299 682 OFFCURVE",
"417 682 CURVE SMOOTH",
"487.355 682 OFFCURVE",
"605.296 659.459 OFFCURVE",
"605.296 564.033 CURVE SMOOTH",
"605.296 555.019 OFFCURVE",
"604.244 545.356 OFFCURVE",
"602 535 CURVE SMOOTH",
"596 505 OFFCURVE",
"570 483 OFFCURVE",
"542 483 CURVE SMOOTH",
"517.786 483 OFFCURVE",
"502.953 500.824 OFFCURVE",
"502.953 522.843 CURVE SMOOTH",
"502.953 566.902 OFFCURVE",
"453.283 589 OFFCURVE",
"395 589 CURVE SMOOTH",
"326 589 OFFCURVE",
"260 566 OFFCURVE",
"247 504 CURVE SMOOTH",
"245.954 499.397 OFFCURVE",
"245.433 494.957 OFFCURVE",
"245.433 490.671 CURVE SMOOTH",
"245.433 453.987 OFFCURVE",
"283.579 428.489 OFFCURVE",
"357 407 CURVE SMOOTH",
"477.756 371.381 OFFCURVE",
"538.134 316.14 OFFCURVE",
"538.134 237.997 CURVE SMOOTH",
"538.134 226.191 OFFCURVE",
"536.756 213.863 OFFCURVE",
"534 201 CURVE SMOOTH",
"505 63 OFFCURVE",
"358 0 OFFCURVE",
"251 0 CURVE SMOOTH",
"139 0 OFFCURVE",
"55 62 OFFCURVE",
"36 145 CURVE SMOOTH",
"35 152 OFFCURVE",
"35 162 OFFCURVE",
"37 170 CURVE SMOOTH",
"42 197 OFFCURVE",
"69 220 OFFCURVE",
"98 220 CURVE SMOOTH",
"123 220 OFFCURVE",
"137 205 OFFCURVE",
"140 183 CURVE SMOOTH",
"149 123 OFFCURVE",
"213 96 OFFCURVE",
"270 96 CURVE SMOOTH",
"330 96 OFFCURVE",
"412 127 OFFCURVE",
"427 196 CURVE SMOOTH",
"428.381 202.511 OFFCURVE",
"429.529 209.489 OFFCURVE",
"429.529 216.765 CURVE SMOOTH",
"429.529 246.368 OFFCURVE",
"410.535 280.906 OFFCURVE",
"311 309 CURVE SMOOTH"
);
},
{
closed = 1;
nodes = (
"438 886 LINE SMOOTH",
"451 895 OFFCURVE",
"463 898 OFFCURVE",
"472 898 CURVE SMOOTH",
"484 898 OFFCURVE",
"497 892 OFFCURVE",
"507 880 CURVE SMOOTH",
"582 784 LINE SMOOTH",
"587.668 776.915 OFFCURVE",
"590.324 769.328 OFFCURVE",
"590.324 760.884 CURVE SMOOTH",
"590.324 757.409 OFFCURVE",
"589.875 753.79 OFFCURVE",
"589 750 CURVE SMOOTH",
"584 725 OFFCURVE",
"558 703 OFFCURVE",
"533 703 CURVE SMOOTH",
"521 703 OFFCURVE",
"511 705 OFFCURVE",
"502 715 CURVE SMOOTH",
"444 781 LINE",
"340 712 LINE SMOOTH",
"327 704 OFFCURVE",
"319 703 OFFCURVE",
"309 703 CURVE SMOOTH",
"287.277 703 OFFCURVE",
"270.839 718.1 OFFCURVE",
"270.839 739.772 CURVE SMOOTH",
"270.839 743.042 OFFCURVE",
"271.213 746.461 OFFCURVE",
"272 750 CURVE SMOOTH",
"275 763 OFFCURVE",
"283 776 OFFCURVE",
"298 786 CURVE SMOOTH"
);
}
);
userData = {
com.fontlab.hintData = {
hhints = (
{
position = 0;
width = 96;
},
{
position = 589;
width = 93;
}
);
vhints = (
{
position = 37;
width = 103;
},
{
position = 135;
width = 110;
},
{
position = 430;
width = 109;
},
{
position = 503;
width = 102;
}
);
};
};
width = 624;
}
);
unicode = 015C;
},
{
glyphname = T;
layers = (
{
layerId = master01;
paths = (
{
closed = 1;
nodes = (
"585.214 681 OFFCURVE",
"601.202 665.295 OFFCURVE",
"601.202 642.939 CURVE SMOOTH",
"601.202 639.443 OFFCURVE",
"600.811 635.786 OFFCURVE",
"600 632 CURVE SMOOTH",
"594 605 OFFCURVE",
"568 582 OFFCURVE",
"540 582 CURVE SMOOTH",
"376 582 LINE",
"263 49 LINE SMOOTH",
"257 23 OFFCURVE",
"231 0 OFFCURVE",
"204 0 CURVE SMOOTH",
"180.384 0 OFFCURVE",
"162.889 17.596 OFFCURVE",
"162.889 39.404 CURVE SMOOTH",
"162.889 42.529 OFFCURVE",
"163.248 45.741 OFFCURVE",
"164 49 CURVE SMOOTH",
"277 582 LINE",
"126 582 LINE SMOOTH",
"103.398 582 OFFCURVE",
"86.842 599.381 OFFCURVE",
"86.842 621.661 CURVE SMOOTH",
"86.842 625.011 OFFCURVE",
"87.216 628.471 OFFCURVE",
"88 632 CURVE SMOOTH",
"94 660 OFFCURVE",
"121 681 OFFCURVE",
"147 681 CURVE SMOOTH",
"561 681 LINE"
);
}
);
userData = {
com.fontlab.hintData = {
hhints = (
{
position = 0;
width = 21;
},
{
position = 582;
width = 99;
}
);
};
};
width = 548;
}
);
unicode = 0054;
},
{
glyphname = Tcaron;
layers = (
{
layerId = master01;
paths = (
{
closed = 1;
nodes = (
"393 721 LINE SMOOTH",
"380 712 OFFCURVE",
"367 709 OFFCURVE",
"358 709 CURVE SMOOTH",
"346 709 OFFCURVE",
"333 715 OFFCURVE",
"324 727 CURVE SMOOTH",
"248 823 LINE SMOOTH",
"243.1 830 OFFCURVE",
"240.65 837.49 OFFCURVE",
"240.65 845.813 CURVE SMOOTH",
"240.65 849.38 OFFCURVE",
"241.1 853.1 OFFCURVE",
"242 857 CURVE SMOOTH",
"247 882 OFFCURVE",
"273 904 OFFCURVE",
"298 904 CURVE SMOOTH",
"310 904 OFFCURVE",
"319 902 OFFCURVE",
"328 892 CURVE SMOOTH",
"387 826 LINE",
"491 895 LINE SMOOTH",
"503 903 OFFCURVE",
"512 904 OFFCURVE",
"522 904 CURVE SMOOTH",
"544.048 904 OFFCURVE",
"559.874 888.444 OFFCURVE",
"559.874 866.25 CURVE SMOOTH",
"559.874 863.278 OFFCURVE",
"559.59 860.188 OFFCURVE",
"559 857 CURVE SMOOTH",
"556 844 OFFCURVE",
"547 831 OFFCURVE",
"533 821 CURVE SMOOTH"
);
},
{
closed = 1;
nodes = (
"585.214 681 OFFCURVE",
"601.202 665.295 OFFCURVE",
"601.202 642.939 CURVE SMOOTH",
"601.202 639.443 OFFCURVE",
"600.811 635.786 OFFCURVE",
"600 632 CURVE SMOOTH",
"594 605 OFFCURVE",
"568 582 OFFCURVE",
"540 582 CURVE SMOOTH",
"376 582 LINE",
"263 49 LINE SMOOTH",
"257 23 OFFCURVE",
"231 0 OFFCURVE",
"204 0 CURVE SMOOTH",
"180.384 0 OFFCURVE",
"162.889 17.596 OFFCURVE",
"162.889 39.404 CURVE SMOOTH",
"162.889 42.529 OFFCURVE",
"163.248 45.741 OFFCURVE",
"164 49 CURVE SMOOTH",
"277 582 LINE",
"126 582 LINE SMOOTH",
"103.398 582 OFFCURVE",
"86.842 599.381 OFFCURVE",
"86.842 621.661 CURVE SMOOTH",
"86.842 625.011 OFFCURVE",
"87.216 628.471 OFFCURVE",
"88 632 CURVE SMOOTH",
"94 660 OFFCURVE",
"121 681 OFFCURVE",
"147 681 CURVE SMOOTH",
"561 681 LINE"
);
}
);
userData = {
com.fontlab.hintData = {
hhints = (
{
position = 0;
width = 21;
},
{
position = 582;
width = 99;
}
);
};
};
width = 548;
}
);
unicode = 0164;
},
{
glyphname = U;
layers = (
{
layerId = master01;
paths = (
{
closed = 1;
nodes = (
"678 507 OFFCURVE",
"661 400 OFFCURVE",
"616 270 CURVE SMOOTH",
"561 110 OFFCURVE",
"456 0 OFFCURVE",
"279 0 CURVE SMOOTH",
"142.189 0 OFFCURVE",
"74.844 98.957 OFFCURVE",
"74.844 251.247 CURVE SMOOTH",
"74.844 287.077 OFFCURVE",
"78.572 325.86 OFFCURVE",
"86 367 CURVE SMOOTH",
"105 474 OFFCURVE",
"123 549 OFFCURVE",
"142 634 CURVE SMOOTH",
"146 650 OFFCURVE",
"163 681 OFFCURVE",
"204 681 CURVE SMOOTH",
"236 681 OFFCURVE",
"243.04 660.52 OFFCURVE",
"243.04 644.136 CURVE SMOOTH",
"243.04 640.04 OFFCURVE",
"242.6 636.2 OFFCURVE",
"242 633 CURVE",
"221 544 OFFCURVE",
"205 474 OFFCURVE",
"188 381 CURVE",
"180.941 340.059 OFFCURVE",
"176.354 299.197 OFFCURVE",
"176.354 261.634 CURVE SMOOTH",
"176.354 166.162 OFFCURVE",
"205.988 92 OFFCURVE",
"300 92 CURVE SMOOTH",
"383 92 OFFCURVE",
"473 139 OFFCURVE",
"518 277 CURVE SMOOTH",
"557 397 OFFCURVE",
"573 498 OFFCURVE",
"602 631 CURVE SMOOTH",
"605 647 OFFCURVE",
"619 681 OFFCURVE",
"662 681 CURVE SMOOTH",
"695.374 681 OFFCURVE",
"702.243 661.121 OFFCURVE",
"702.243 645.207 CURVE SMOOTH",
"702.243 640.618 OFFCURVE",
"701.672 636.358 OFFCURVE",
"701 633 CURVE SMOOTH"
);
}
);
userData = {
com.fontlab.hintData = {
hhints = (
{
position = 0;
width = 92;
},
{
position = 661;
width = 20;
}
);
vhints = (
{
position = 75;
width = 102;
}
);
};
};
width = 709;
}
);
unicode = 0055;
},
{
glyphname = Uacute;
layers = (
{
layerId = master01;
paths = (
{
closed = 1;
nodes = (
"678 507 OFFCURVE",
"661 400 OFFCURVE",
"616 270 CURVE SMOOTH",
"561 110 OFFCURVE",
"456 0 OFFCURVE",
"279 0 CURVE SMOOTH",
"142.189 0 OFFCURVE",
"74.844 98.957 OFFCURVE",
"74.844 251.247 CURVE SMOOTH",
"74.844 287.077 OFFCURVE",
"78.572 325.86 OFFCURVE",
"86 367 CURVE SMOOTH",
"105 474 OFFCURVE",
"123 549 OFFCURVE",
"142 634 CURVE SMOOTH",
"146 650 OFFCURVE",
"163 681 OFFCURVE",
"204 681 CURVE SMOOTH",
"236 681 OFFCURVE",
"243.04 660.52 OFFCURVE",
"243.04 644.136 CURVE SMOOTH",
"243.04 640.04 OFFCURVE",
"242.6 636.2 OFFCURVE",
"242 633 CURVE",
"221 544 OFFCURVE",
"205 474 OFFCURVE",
"188 381 CURVE",
"180.941 340.059 OFFCURVE",
"176.354 299.197 OFFCURVE",
"176.354 261.634 CURVE SMOOTH",
"176.354 166.162 OFFCURVE",
"205.988 92 OFFCURVE",
"300 92 CURVE SMOOTH",
"383 92 OFFCURVE",
"473 139 OFFCURVE",
"518 277 CURVE SMOOTH",
"557 397 OFFCURVE",
"573 498 OFFCURVE",
"602 631 CURVE SMOOTH",
"605 647 OFFCURVE",
"619 681 OFFCURVE",
"662 681 CURVE SMOOTH",
"695.374 681 OFFCURVE",
"702.243 661.121 OFFCURVE",
"702.243 645.207 CURVE SMOOTH",
"702.243 640.618 OFFCURVE",
"701.672 636.358 OFFCURVE",
"701 633 CURVE SMOOTH"
);
},
{
closed = 1;
nodes = (
"515 883 LINE SMOOTH",
"527 891 OFFCURVE",
"543 902 OFFCURVE",
"560 902 CURVE SMOOTH",
"586.125 902 OFFCURVE",
"603.15 883.8 OFFCURVE",
"603.15 858.626 CURVE SMOOTH",
"603.15 854.892 OFFCURVE",
"602.775 851.004 OFFCURVE",
"602 847 CURVE",
"598 832 OFFCURVE",
"590 817 OFFCURVE",
"574 807 CURVE SMOOTH",
"432 722 LINE SMOOTH",
"420 715 OFFCURVE",
"407 709 OFFCURVE",
"396 709 CURVE SMOOTH",
"374.842 709 OFFCURVE",
"359.124 725.321 OFFCURVE",
"359.124 747.686 CURVE SMOOTH",
"359.124 750.69 OFFCURVE",
"359.408 753.803 OFFCURVE",
"360 757 CURVE",
"363 768 OFFCURVE",
"368 781 OFFCURVE",
"380 790 CURVE SMOOTH"
);
}
);
userData = {
com.fontlab.hintData = {
hhints = (
{
position = 0;
width = 92;
},
{
position = 661;
width = 20;
}
);
vhints = (
{
position = 75;
width = 102;
}
);
};
};
width = 709;
}
);
unicode = 00DA;
},
{
glyphname = Ubreve;
layers = (
{
layerId = master01;
paths = (
{
closed = 1;
nodes = (
"678 507 OFFCURVE",
"661 400 OFFCURVE",
"616 270 CURVE SMOOTH",
"561 110 OFFCURVE",
"456 0 OFFCURVE",
"279 0 CURVE SMOOTH",
"142.189 0 OFFCURVE",
"74.844 98.957 OFFCURVE",
"74.844 251.247 CURVE SMOOTH",
"74.844 287.077 OFFCURVE",
"78.572 325.86 OFFCURVE",
"86 367 CURVE SMOOTH",
"105 474 OFFCURVE",
"123 549 OFFCURVE",
"142 634 CURVE SMOOTH",
"146 650 OFFCURVE",
"163 681 OFFCURVE",
"204 681 CURVE SMOOTH",
"236 681 OFFCURVE",
"243.04 660.52 OFFCURVE",
"243.04 644.136 CURVE SMOOTH",
"243.04 640.04 OFFCURVE",
"242.6 636.2 OFFCURVE",
"242 633 CURVE SMOOTH",
"221 544 OFFCURVE",
"205 474 OFFCURVE",
"188 381 CURVE SMOOTH",
"180.941 340.059 OFFCURVE",
"176.354 299.197 OFFCURVE",
"176.354 261.634 CURVE SMOOTH",
"176.354 166.162 OFFCURVE",
"205.988 92 OFFCURVE",
"300 92 CURVE SMOOTH",
"383 92 OFFCURVE",
"473 139 OFFCURVE",
"518 277 CURVE SMOOTH",
"557 397 OFFCURVE",
"573 498 OFFCURVE",
"602 631 CURVE SMOOTH",
"605 647 OFFCURVE",
"619 681 OFFCURVE",
"662 681 CURVE SMOOTH",
"695.374 681 OFFCURVE",
"702.243 661.121 OFFCURVE",
"702.243 645.207 CURVE SMOOTH",
"702.243 640.618 OFFCURVE",
"701.672 636.358 OFFCURVE",
"701 633 CURVE SMOOTH"
);
},
{
closed = 1;
nodes = (
"289 851 OFFCURVE",
"296 873 OFFCURVE",
"333 873 CURVE SMOOTH",
"354 873 OFFCURVE",
"363 856 OFFCURVE",
"367 844 CURVE SMOOTH",
"376 808 OFFCURVE",
"418 796 OFFCURVE",
"446 796 CURVE SMOOTH",
"482 796 OFFCURVE",
"510 810 OFFCURVE",
"531 844 CURVE SMOOTH",
"543 863 OFFCURVE",
"554 878 OFFCURVE",
"580 878 CURVE SMOOTH",
"597.689 878 OFFCURVE",
"610.684 863.92 OFFCURVE",
"610.684 846.829 CURVE SMOOTH",
"610.684 844.596 OFFCURVE",
"610.462 842.311 OFFCURVE",
"610 840 CURVE SMOOTH",
"600 791 OFFCURVE",
"526 709 OFFCURVE",
"425 709 CURVE SMOOTH",
"311.889 709 OFFCURVE",
"285.315 793.04 OFFCURVE",
"285.315 827.534 CURVE SMOOTH",
"285.315 830.855 OFFCURVE",
"285.561 833.717 OFFCURVE",
"286 836 CURVE SMOOTH"
);
}
);
userData = {
com.fontlab.hintData = {
hhints = (
{
position = 0;
width = 92;
},
{
position = 661;
width = 20;
},
{
position = 709;
width = 87;
}
);
vhints = (
{
position = 75;
width = 102;
},
{
position = 286;
width = 81;
}
);
};
};
width = 709;
}
);
unicode = 016C;
},
{
glyphname = Ucircumflex;
layers = (
{
layerId = master01;
paths = (
{
closed = 1;
nodes = (
"678 507 OFFCURVE",
"661 400 OFFCURVE",
"616 270 CURVE SMOOTH",
"561 110 OFFCURVE",
"456 0 OFFCURVE",
"279 0 CURVE SMOOTH",
"142.189 0 OFFCURVE",
"74.844 98.957 OFFCURVE",
"74.844 251.247 CURVE SMOOTH",
"74.844 287.077 OFFCURVE",
"78.572 325.86 OFFCURVE",
"86 367 CURVE SMOOTH",
"105 474 OFFCURVE",
"123 549 OFFCURVE",
"142 634 CURVE SMOOTH",
"146 650 OFFCURVE",
"163 681 OFFCURVE",
"204 681 CURVE SMOOTH",
"236 681 OFFCURVE",
"243.04 660.52 OFFCURVE",
"243.04 644.136 CURVE SMOOTH",
"243.04 640.04 OFFCURVE",
"242.6 636.2 OFFCURVE",
"242 633 CURVE",
"221 544 OFFCURVE",
"205 474 OFFCURVE",
"188 381 CURVE",
"180.941 340.059 OFFCURVE",
"176.354 299.197 OFFCURVE",
"176.354 261.634 CURVE SMOOTH",
"176.354 166.162 OFFCURVE",
"205.988 92 OFFCURVE",
"300 92 CURVE SMOOTH",
"383 92 OFFCURVE",
"473 139 OFFCURVE",
"518 277 CURVE SMOOTH",
"557 397 OFFCURVE",
"573 498 OFFCURVE",
"602 631 CURVE SMOOTH",
"605 647 OFFCURVE",
"619 681 OFFCURVE",
"662 681 CURVE SMOOTH",
"695.374 681 OFFCURVE",
"702.243 661.121 OFFCURVE",
"702.243 645.207 CURVE SMOOTH",
"702.243 640.618 OFFCURVE",
"701.672 636.358 OFFCURVE",
"701 633 CURVE SMOOTH"
);
},
{
closed = 1;
nodes = (
"463 886 LINE SMOOTH",
"476 895 OFFCURVE",
"488 898 OFFCURVE",
"497 898 CURVE SMOOTH",
"509 898 OFFCURVE",
"522 892 OFFCURVE",
"532 880 CURVE SMOOTH",
"607 784 LINE SMOOTH",
"612.668 776.915 OFFCURVE",
"615.324 769.328 OFFCURVE",
"615.324 760.884 CURVE SMOOTH",
"615.324 757.409 OFFCURVE",
"614.875 753.79 OFFCURVE",
"614 750 CURVE SMOOTH",
"609 725 OFFCURVE",
"583 703 OFFCURVE",
"558 703 CURVE SMOOTH",
"546 703 OFFCURVE",
"536 705 OFFCURVE",
"527 715 CURVE SMOOTH",
"469 781 LINE",
"365 712 LINE SMOOTH",
"352 704 OFFCURVE",
"344 703 OFFCURVE",
"334 703 CURVE SMOOTH",
"312.277 703 OFFCURVE",
"295.839 718.1 OFFCURVE",
"295.839 739.772 CURVE SMOOTH",
"295.839 743.042 OFFCURVE",
"296.213 746.461 OFFCURVE",
"297 750 CURVE SMOOTH",
"300 763 OFFCURVE",
"308 776 OFFCURVE",
"323 786 CURVE SMOOTH"
);
}
);
userData = {
com.fontlab.hintData = {
hhints = (
{
position = 0;
width = 92;
},
{
position = 661;
width = 20;
}
);
vhints = (
{
position = 75;
width = 102;
}
);
};
};
width = 709;
}
);
unicode = 00DB;
},
{
glyphname = Udieresis;
layers = (
{
layerId = master01;
paths = (
{
closed = 1;
nodes = (
"419 732 OFFCURVE",
"382 703 OFFCURVE",
"342 703 CURVE SMOOTH",
"310.216 703 OFFCURVE",
"287.786 721.708 OFFCURVE",
"287.786 750.177 CURVE SMOOTH",
"287.786 753.953 OFFCURVE",
"288.18 757.901 OFFCURVE",
"289 762 CURVE",
"297 796 OFFCURVE",
"334 827 OFFCURVE",
"373 827 CURVE SMOOTH",
"403.344 827 OFFCURVE",
"428.112 806.291 OFFCURVE",
"428.112 777.668 CURVE SMOOTH",
"428.112 774.22 OFFCURVE",
"427.753 770.656 OFFCURVE",
"427 767 CURVE SMOOTH"
);
},
{
closed = 1;
nodes = (
"607 732 OFFCURVE",
"570 703 OFFCURVE",
"530 703 CURVE SMOOTH",
"498.216 703 OFFCURVE",
"475.786 721.708 OFFCURVE",
"475.786 750.177 CURVE SMOOTH",
"475.786 753.953 OFFCURVE",
"476.18 757.901 OFFCURVE",
"477 762 CURVE",
"485 796 OFFCURVE",
"522 827 OFFCURVE",
"562 827 CURVE SMOOTH",
"591.445 827 OFFCURVE",
"616.114 806.3 OFFCURVE",
"616.114 777.686 CURVE SMOOTH",
"616.114 774.232 OFFCURVE",
"615.754 770.662 OFFCURVE",
"615 767 CURVE SMOOTH"
);
},
{
closed = 1;
nodes = (
"678 507 OFFCURVE",
"661 400 OFFCURVE",
"616 270 CURVE SMOOTH",
"561 110 OFFCURVE",
"456 0 OFFCURVE",
"279 0 CURVE SMOOTH",
"142.189 0 OFFCURVE",
"74.844 98.957 OFFCURVE",
"74.844 251.247 CURVE SMOOTH",
"74.844 287.077 OFFCURVE",
"78.572 325.86 OFFCURVE",
"86 367 CURVE SMOOTH",
"105 474 OFFCURVE",
"123 549 OFFCURVE",
"142 634 CURVE SMOOTH",
"146 650 OFFCURVE",
"163 681 OFFCURVE",
"204 681 CURVE SMOOTH",
"236 681 OFFCURVE",
"243.04 660.52 OFFCURVE",
"243.04 644.136 CURVE SMOOTH",
"243.04 640.04 OFFCURVE",
"242.6 636.2 OFFCURVE",
"242 633 CURVE",
"221 544 OFFCURVE",
"205 474 OFFCURVE",
"188 381 CURVE",
"180.941 340.059 OFFCURVE",
"176.354 299.197 OFFCURVE",
"176.354 261.634 CURVE SMOOTH",
"176.354 166.162 OFFCURVE",
"205.988 92 OFFCURVE",
"300 92 CURVE SMOOTH",
"383 92 OFFCURVE",
"473 139 OFFCURVE",
"518 277 CURVE SMOOTH",
"557 397 OFFCURVE",
"573 498 OFFCURVE",
"602 631 CURVE SMOOTH",
"605 647 OFFCURVE",
"619 681 OFFCURVE",
"662 681 CURVE SMOOTH",
"695.374 681 OFFCURVE",
"702.243 661.121 OFFCURVE",
"702.243 645.207 CURVE SMOOTH",
"702.243 640.618 OFFCURVE",
"701.672 636.358 OFFCURVE",
"701 633 CURVE SMOOTH"
);
}
);
userData = {
com.fontlab.hintData = {
hhints = (
{
position = 0;
width = 92;
},
{
position = 661;
width = 20;
},
{
position = 703;
width = 124;
}
);
vhints = (
{
position = 75;
width = 102;
},
{
position = 288;
width = 140;
},
{
position = 476;
width = 140;
}
);
};
};
width = 709;
}
);
unicode = 00DC;
},
{
glyphname = Ugrave;
layers = (
{
layerId = master01;
paths = (
{
closed = 1;
nodes = (
"358 824 LINE SMOOTH",
"352.144 831.321 OFFCURVE",
"348.431 839.713 OFFCURVE",
"348.431 849.962 CURVE SMOOTH",
"348.431 853.713 OFFCURVE",
"348.928 857.713 OFFCURVE",
"350 862 CURVE SMOOTH",
"356 890 OFFCURVE",
"387 916 OFFCURVE",
"415 916 CURVE SMOOTH",
"433 916 OFFCURVE",
"447 906 OFFCURVE",
"455 894 CURVE",
"524 775 LINE SMOOTH",
"528.963 766.492 OFFCURVE",
"530.91 759.995 OFFCURVE",
"530.91 753.37 CURVE SMOOTH",
"530.91 750.651 OFFCURVE",
"530.582 747.91 OFFCURVE",
"530 745 CURVE SMOOTH",
"524 718 OFFCURVE",
"496 698 OFFCURVE",
"472 698 CURVE SMOOTH",
"457 698 OFFCURVE",
"447 704 OFFCURVE",
"441 713 CURVE SMOOTH"
);
},
{
closed = 1;
nodes = (
"678 507 OFFCURVE",
"661 400 OFFCURVE",
"616 270 CURVE SMOOTH",
"561 110 OFFCURVE",
"456 0 OFFCURVE",
"279 0 CURVE SMOOTH",
"142.189 0 OFFCURVE",
"74.844 98.957 OFFCURVE",
"74.844 251.247 CURVE SMOOTH",
"74.844 287.077 OFFCURVE",
"78.572 325.86 OFFCURVE",
"86 367 CURVE SMOOTH",
"105 474 OFFCURVE",
"123 549 OFFCURVE",
"142 634 CURVE SMOOTH",
"146 650 OFFCURVE",
"163 681 OFFCURVE",
"204 681 CURVE SMOOTH",
"236 681 OFFCURVE",
"243.04 660.52 OFFCURVE",
"243.04 644.136 CURVE SMOOTH",
"243.04 640.04 OFFCURVE",
"242.6 636.2 OFFCURVE",
"242 633 CURVE",
"221 544 OFFCURVE",
"205 474 OFFCURVE",
"188 381 CURVE",
"180.941 340.059 OFFCURVE",
"176.354 299.197 OFFCURVE",
"176.354 261.634 CURVE SMOOTH",
"176.354 166.162 OFFCURVE",
"205.988 92 OFFCURVE",
"300 92 CURVE SMOOTH",
"383 92 OFFCURVE",
"473 139 OFFCURVE",
"518 277 CURVE SMOOTH",
"557 397 OFFCURVE",
"573 498 OFFCURVE",
"602 631 CURVE SMOOTH",
"605 647 OFFCURVE",
"619 681 OFFCURVE",
"662 681 CURVE SMOOTH",
"695.374 681 OFFCURVE",
"702.243 661.121 OFFCURVE",
"702.243 645.207 CURVE SMOOTH",
"702.243 640.618 OFFCURVE",
"701.672 636.358 OFFCURVE",
"701 633 CURVE SMOOTH"
);
}
);
userData = {
com.fontlab.hintData = {
hhints = (
{
position = 0;
width = 92;
},
{
position = 661;
width = 20;
}
);
vhints = (
{
position = 75;
width = 102;
}
);
};
};
width = 709;
}
);
unicode = 00D9;
},
{
glyphname = Uhungarumlaut;
layers = (
{
layerId = master01;
paths = (
{
closed = 1;
nodes = (
"678 507 OFFCURVE",
"661 400 OFFCURVE",
"616 270 CURVE SMOOTH",
"561 110 OFFCURVE",
"456 0 OFFCURVE",
"279 0 CURVE SMOOTH",
"142.189 0 OFFCURVE",
"74.844 98.957 OFFCURVE",
"74.844 251.247 CURVE SMOOTH",
"74.844 287.077 OFFCURVE",
"78.572 325.86 OFFCURVE",
"86 367 CURVE SMOOTH",
"105 474 OFFCURVE",
"123 549 OFFCURVE",
"142 634 CURVE SMOOTH",
"146 650 OFFCURVE",
"163 681 OFFCURVE",
"204 681 CURVE SMOOTH",
"236 681 OFFCURVE",
"243.04 660.52 OFFCURVE",
"243.04 644.136 CURVE SMOOTH",
"243.04 640.04 OFFCURVE",
"242.6 636.2 OFFCURVE",
"242 633 CURVE",
"221 544 OFFCURVE",
"205 474 OFFCURVE",
"188 381 CURVE",
"180.941 340.059 OFFCURVE",
"176.354 299.197 OFFCURVE",
"176.354 261.634 CURVE SMOOTH",
"176.354 166.162 OFFCURVE",
"205.988 92 OFFCURVE",
"300 92 CURVE SMOOTH",
"383 92 OFFCURVE",
"473 139 OFFCURVE",
"518 277 CURVE SMOOTH",
"557 397 OFFCURVE",
"573 498 OFFCURVE",
"602 631 CURVE SMOOTH",
"605 647 OFFCURVE",
"619 681 OFFCURVE",
"662 681 CURVE SMOOTH",
"695.374 681 OFFCURVE",
"702.243 661.121 OFFCURVE",
"702.243 645.207 CURVE SMOOTH",
"702.243 640.618 OFFCURVE",
"701.672 636.358 OFFCURVE",
"701 633 CURVE SMOOTH"
);
},
{
closed = 1;
nodes = (
"339 704 LINE SMOOTH",
"328 697 OFFCURVE",
"316 692 OFFCURVE",
"305 692 CURVE SMOOTH",
"284.156 692 OFFCURVE",
"267.837 707.841 OFFCURVE",
"267.837 729.695 CURVE SMOOTH",
"267.837 733.004 OFFCURVE",
"268.211 736.45 OFFCURVE",
"269 740 CURVE SMOOTH",
"271 751 OFFCURVE",
"277 763 OFFCURVE",
"290 772 CURVE SMOOTH",
"424 866 LINE",
"435 875 OFFCURVE",
"453 885 OFFCURVE",
"469 885 CURVE SMOOTH",
"494.791 885 OFFCURVE",
"512.452 867.262 OFFCURVE",
"512.452 842.587 CURVE SMOOTH",
"512.452 838.56 OFFCURVE",
"511.982 834.349 OFFCURVE",
"511 830 CURVE SMOOTH",
"508 815 OFFCURVE",
"499 799 OFFCURVE",
"483 790 CURVE SMOOTH"
);
},
{
closed = 1;
nodes = (
"544 704 LINE SMOOTH",
"533 697 OFFCURVE",
"521 692 OFFCURVE",
"510 692 CURVE SMOOTH",
"489.156 692 OFFCURVE",
"472.837 707.841 OFFCURVE",
"472.837 729.695 CURVE SMOOTH",
"472.837 733.004 OFFCURVE",
"473.211 736.45 OFFCURVE",
"474 740 CURVE SMOOTH",
"476 751 OFFCURVE",
"482 763 OFFCURVE",
"495 772 CURVE SMOOTH",
"629 866 LINE",
"640 875 OFFCURVE",
"658 885 OFFCURVE",
"674 885 CURVE SMOOTH",
"699.791 885 OFFCURVE",
"717.452 867.262 OFFCURVE",
"717.452 842.587 CURVE SMOOTH",
"717.452 838.56 OFFCURVE",
"716.982 834.349 OFFCURVE",
"716 830 CURVE SMOOTH",
"713 815 OFFCURVE",
"704 799 OFFCURVE",
"688 790 CURVE SMOOTH"
);
}
);
userData = {
com.fontlab.hintData = {
hhints = (
{
position = 0;
width = 92;
},
{
position = 661;
width = 20;
}
);
vhints = (
{
position = 75;
width = 102;
}
);
};
};
width = 709;
}
);
unicode = 0170;
},
{
glyphname = Uring;
layers = (
{
layerId = master01;
paths = (
{
closed = 1;
nodes = (
"678 507 OFFCURVE",
"661 400 OFFCURVE",
"616 270 CURVE SMOOTH",
"561 110 OFFCURVE",
"456 0 OFFCURVE",
"279 0 CURVE SMOOTH",
"142.189 0 OFFCURVE",
"74.844 98.957 OFFCURVE",
"74.844 251.247 CURVE SMOOTH",
"74.844 287.077 OFFCURVE",
"78.572 325.86 OFFCURVE",
"86 367 CURVE SMOOTH",
"105 474 OFFCURVE",
"123 549 OFFCURVE",
"142 634 CURVE SMOOTH",
"146 650 OFFCURVE",
"163 681 OFFCURVE",
"204 681 CURVE SMOOTH",
"236 681 OFFCURVE",
"243.04 660.52 OFFCURVE",
"243.04 644.136 CURVE SMOOTH",
"243.04 640.04 OFFCURVE",
"242.6 636.2 OFFCURVE",
"242 633 CURVE",
"221 544 OFFCURVE",
"205 474 OFFCURVE",
"188 381 CURVE",
"180.941 340.059 OFFCURVE",
"176.354 299.197 OFFCURVE",
"176.354 261.634 CURVE SMOOTH",
"176.354 166.162 OFFCURVE",
"205.988 92 OFFCURVE",
"300 92 CURVE SMOOTH",
"383 92 OFFCURVE",
"473 139 OFFCURVE",
"518 277 CURVE SMOOTH",
"557 397 OFFCURVE",
"573 498 OFFCURVE",
"602 631 CURVE SMOOTH",
"605 647 OFFCURVE",
"619 681 OFFCURVE",
"662 681 CURVE SMOOTH",
"695.374 681 OFFCURVE",
"702.243 661.121 OFFCURVE",
"702.243 645.207 CURVE SMOOTH",
"702.243 640.618 OFFCURVE",
"701.672 636.358 OFFCURVE",
"701 633 CURVE SMOOTH"
);
},
{
closed = 1;
nodes = (
"373.074 712 OFFCURVE",
"326.644 744.991 OFFCURVE",
"326.644 798.441 CURVE SMOOTH",
"326.644 805.299 OFFCURVE",
"327.408 812.495 OFFCURVE",
"329 820 CURVE SMOOTH",
"345 897 OFFCURVE",
"430 942 OFFCURVE",
"505 942 CURVE SMOOTH",
"565.472 942 OFFCURVE",
"613.291 908.784 OFFCURVE",
"613.291 854.309 CURVE SMOOTH",
"613.291 847.528 OFFCURVE",
"612.55 840.417 OFFCURVE",
"611 833 CURVE SMOOTH",
"594 755 OFFCURVE",
"509 712 OFFCURVE",
"436 712 CURVE SMOOTH"
);
},
{
closed = 1;
nodes = (
"448 862 OFFCURVE",
"419 838 OFFCURVE",
"415 820 CURVE SMOOTH",
"414.658 818.462 OFFCURVE",
"414.492 816.974 OFFCURVE",
"414.492 815.541 CURVE SMOOTH",
"414.492 800.2 OFFCURVE",
"433.564 791 OFFCURVE",
"461 791 CURVE SMOOTH",
"482.922 791 OFFCURVE",
"524.359 806.608 OFFCURVE",
"524.359 834.624 CURVE SMOOTH",
"524.359 848.467 OFFCURVE",
"508.832 862 OFFCURVE",
"484 862 CURVE SMOOTH"
);
}
);
userData = {
com.fontlab.hintData = {
hhints = (
{
position = 0;
width = 92;
},
{
position = 661;
width = 20;
},
{
position = 712;
width = 79;
},
{
position = 862;
width = 80;
}
);
vhints = (
{
position = 75;
width = 102;
},
{
position = 327;
width = 88;
},
{
position = 524;
width = 89;
}
);
};
};
width = 709;
}
);
unicode = 016E;
},
{
glyphname = V;
layers = (
{
layerId = master01;
paths = (
{
closed = 1;
nodes = (
"87 610 LINE SMOOTH",
"86 619 OFFCURVE",
"87 628 OFFCURVE",
"88 633 CURVE SMOOTH",
"94 660 OFFCURVE",
"118 680 OFFCURVE",
"149 680 CURVE SMOOTH",
"168 680 OFFCURVE",
"185 669 OFFCURVE",
"188 646 CURVE SMOOTH",
"245 193 LINE",
"245 193 OFFCURVE",
"430 498 OFFCURVE",
"521 649 CURVE",
"535 669 OFFCURVE",
"554 680 OFFCURVE",
"574 680 CURVE SMOOTH",
"599.304 680 OFFCURVE",
"613.95 662.489 OFFCURVE",
"613.95 641.417 CURVE SMOOTH",
"613.95 638.339 OFFCURVE",
"613.637 635.186 OFFCURVE",
"613 632 CURVE SMOOTH",
"612 627 OFFCURVE",
"609 620 OFFCURVE",
"605 613 CURVE SMOOTH",
"252 31 LINE SMOOTH",
"238 8 OFFCURVE",
"220 0 OFFCURVE",
"200 0 CURVE SMOOTH",
"179 0 OFFCURVE",
"162 11 OFFCURVE",
"160 33 CURVE"
);
}
);
userData = {
com.fontlab.hintData = {
hhints = (
{
position = 0;
width = 21;
}
);
vhints = (
{
position = 88;
width = 100;
}
);
};
};
width = 561;
}
);
unicode = 0056;
},
{
glyphname = W;
layers = (
{
layerId = master01;
paths = (
{
closed = 1;
nodes = (
"839 657 LINE SMOOTH",
"852 679 OFFCURVE",
"871 692 OFFCURVE",
"895 692 CURVE SMOOTH",
"918.338 692 OFFCURVE",
"934.204 677.805 OFFCURVE",
"934.204 657.809 CURVE SMOOTH",
"934.204 654.671 OFFCURVE",
"933.814 651.391 OFFCURVE",
"933 648 CURVE",
"932 640 OFFCURVE",
"930 631 OFFCURVE",
"921 616 CURVE SMOOTH",
"586 32 LINE SMOOTH",
"575 12 OFFCURVE",
"556 0 OFFCURVE",
"535 0 CURVE SMOOTH",
"509 0 OFFCURVE",
"495 13 OFFCURVE",
"494 36 CURVE SMOOTH",
"467 458 LINE",
"240 34 LINE SMOOTH",
"225 7 OFFCURVE",
"208 0 OFFCURVE",
"185 0 CURVE SMOOTH",
"160 0 OFFCURVE",
"148 12 OFFCURVE",
"146 34 CURVE SMOOTH",
"93 605 LINE",
"92.732 609.823 OFFCURVE",
"92.608 613.785 OFFCURVE",
"92.608 617.154 CURVE SMOOTH",
"92.608 626.359 OFFCURVE",
"93.536 631.144 OFFCURVE",
"95 637 CURVE SMOOTH",
"100 662 OFFCURVE",
"125 681 OFFCURVE",
"152 681 CURVE SMOOTH",
"176 681 OFFCURVE",
"190 668 OFFCURVE",
"193 646 CURVE",
"232 215 LINE",
"464 647 LINE SMOOTH",
"477 671 OFFCURVE",
"496 681 OFFCURVE",
"519 681 CURVE SMOOTH",
"541 681 OFFCURVE",
"556 670 OFFCURVE",
"558 646 CURVE SMOOTH",
"585 214 LINE"
);
}
);
userData = {
com.fontlab.hintData = {
hhints = (
{
position = 0;
width = 21;
},
{
position = 661;
width = 20;
}
);
vhints = (
{
position = 95;
width = 98;
}
);
};
};
width = 893;
}
);
unicode = 0057;
},
{
glyphname = X;
layers = (
{
layerId = master01;
paths = (
{
closed = 1;
nodes = (
"582 79 LINE SMOOTH",
"588 69 OFFCURVE",
"587 60 OFFCURVE",
"585 49 CURVE SMOOTH",
"579 23 OFFCURVE",
"554 0 OFFCURVE",
"527 0 CURVE SMOOTH",
"512 0 OFFCURVE",
"499 6 OFFCURVE",
"491 18 CURVE",
"345 266 LINE",
"83 18 LINE SMOOTH",
"68 4 OFFCURVE",
"57 0 OFFCURVE",
"43 0 CURVE SMOOTH",
"16.811 0 OFFCURVE",
"2.053 18.29 OFFCURVE",
"2.053 39.569 CURVE SMOOTH",
"2.053 42.665 OFFCURVE",
"2.365 45.825 OFFCURVE",
"3 49 CURVE SMOOTH",
"5 61 OFFCURVE",
"13 74 OFFCURVE",
"21 81 CURVE SMOOTH",
"300 346 LINE",
"151 601 LINE SMOOTH",
"147.976 607.047 OFFCURVE",
"144.953 614.238 OFFCURVE",
"144.953 623.003 CURVE SMOOTH",
"144.953 625.833 OFFCURVE",
"145.268 628.827 OFFCURVE",
"146 632 CURVE SMOOTH",
"152 660 OFFCURVE",
"181 681 OFFCURVE",
"207 681 CURVE SMOOTH",
"221 681 OFFCURVE",
"234 675 OFFCURVE",
"241 663 CURVE SMOOTH",
"382 424 LINE",
"633 663 LINE SMOOTH",
"646 675 OFFCURVE",
"661 681 OFFCURVE",
"675 681 CURVE SMOOTH",
"698.184 681 OFFCURVE",
"715.802 662.713 OFFCURVE",
"715.802 640.318 CURVE SMOOTH",
"715.802 637.598 OFFCURVE",
"715.542 634.816 OFFCURVE",
"715 632 CURVE SMOOTH",
"712 620 OFFCURVE",
"704 608 OFFCURVE",
"696 600 CURVE SMOOTH",
"428 345 LINE"
);
}
);
userData = {
com.fontlab.hintData = {
hhints = (
{
position = 0;
width = 21;
},
{
position = 661;
width = 20;
}
);
};
};
width = 707;
}
);
unicode = 0058;
},
{
glyphname = Y;
layers = (
{
layerId = master01;
paths = (
{
closed = 1;
nodes = (
"590 657 LINE SMOOTH",
"603 673 OFFCURVE",
"620 681 OFFCURVE",
"638 681 CURVE SMOOTH",
"659.187 681 OFFCURVE",
"678.036 664.635 OFFCURVE",
"678.036 641.535 CURVE SMOOTH",
"678.036 638.468 OFFCURVE",
"677.703 635.282 OFFCURVE",
"677 632 CURVE SMOOTH",
"674 621 OFFCURVE",
"672 615 OFFCURVE",
"660 600 CURVE SMOOTH",
"196 25 LINE SMOOTH",
"183 9 OFFCURVE",
"166 0 OFFCURVE",
"148 0 CURVE SMOOTH",
"123.423 0 OFFCURVE",
"108.091 18.491 OFFCURVE",
"108.091 39.918 CURVE SMOOTH",
"108.091 42.902 OFFCURVE",
"108.389 45.944 OFFCURVE",
"109 49 CURVE SMOOTH",
"111 59 OFFCURVE",
"113 64 OFFCURVE",
"123 77 CURVE SMOOTH",
"241 223 LINE",
"100 603 LINE SMOOTH",
"96 614 OFFCURVE",
"96 623 OFFCURVE",
"98 632 CURVE SMOOTH",
"103 658 OFFCURVE",
"130 681 OFFCURVE",
"158 681 CURVE SMOOTH",
"175 681 OFFCURVE",
"189 672 OFFCURVE",
"195 656 CURVE SMOOTH",
"320 321 LINE"
);
}
);
userData = {
com.fontlab.hintData = {
hhints = (
{
position = 0;
width = 21;
},
{
position = 661;
width = 20;
}
);
};
};
width = 619;
}
);
unicode = 0059;
},
{
glyphname = Yacute;
layers = (
{
layerId = master01;
paths = (
{
closed = 1;
nodes = (
"590 657 LINE SMOOTH",
"603 673 OFFCURVE",
"620 681 OFFCURVE",
"638 681 CURVE SMOOTH",
"659.187 681 OFFCURVE",
"678.036 664.635 OFFCURVE",
"678.036 641.535 CURVE SMOOTH",
"678.036 638.468 OFFCURVE",
"677.703 635.282 OFFCURVE",
"677 632 CURVE SMOOTH",
"674 621 OFFCURVE",
"672 615 OFFCURVE",
"660 600 CURVE SMOOTH",
"196 25 LINE SMOOTH",
"183 9 OFFCURVE",
"166 0 OFFCURVE",
"148 0 CURVE SMOOTH",
"123.423 0 OFFCURVE",
"108.091 18.491 OFFCURVE",
"108.091 39.918 CURVE SMOOTH",
"108.091 42.902 OFFCURVE",
"108.389 45.944 OFFCURVE",
"109 49 CURVE SMOOTH",
"111 59 OFFCURVE",
"113 64 OFFCURVE",
"123 77 CURVE SMOOTH",
"241 223 LINE",
"100 603 LINE SMOOTH",
"96 614 OFFCURVE",
"96 623 OFFCURVE",
"98 632 CURVE SMOOTH",
"103 658 OFFCURVE",
"130 681 OFFCURVE",
"158 681 CURVE SMOOTH",
"175 681 OFFCURVE",
"189 672 OFFCURVE",
"195 656 CURVE SMOOTH",
"320 321 LINE"
);
},
{
closed = 1;
nodes = (
"470 883 LINE SMOOTH",
"482 891 OFFCURVE",
"498 902 OFFCURVE",
"515 902 CURVE SMOOTH",
"541.125 902 OFFCURVE",
"558.15 883.8 OFFCURVE",
"558.15 858.626 CURVE SMOOTH",
"558.15 854.892 OFFCURVE",
"557.775 851.004 OFFCURVE",
"557 847 CURVE",
"553 832 OFFCURVE",
"545 817 OFFCURVE",
"529 807 CURVE SMOOTH",
"387 722 LINE SMOOTH",
"375 715 OFFCURVE",
"362 709 OFFCURVE",
"351 709 CURVE SMOOTH",
"329.842 709 OFFCURVE",
"314.124 725.321 OFFCURVE",
"314.124 747.686 CURVE SMOOTH",
"314.124 750.69 OFFCURVE",
"314.408 753.803 OFFCURVE",
"315 757 CURVE",
"318 768 OFFCURVE",
"323 781 OFFCURVE",
"335 790 CURVE SMOOTH"
);
}
);
userData = {
com.fontlab.hintData = {
hhints = (
{
position = 0;
width = 21;
},
{
position = 661;
width = 20;
}
);
};
};
width = 619;
}
);
unicode = 00DD;
},
{
glyphname = Ydieresis;
layers = (
{
layerId = master01;
paths = (
{
closed = 1;
nodes = (
"378 722 OFFCURVE",
"341 693 OFFCURVE",
"301 693 CURVE SMOOTH",
"269.691 693 OFFCURVE",
"247.458 711.909 OFFCURVE",
"247.458 739.86 CURVE SMOOTH",
"247.458 744.048 OFFCURVE",
"247.958 748.439 OFFCURVE",
"249 753 CURVE SMOOTH",
"256 787 OFFCURVE",
"294 817 OFFCURVE",
"333 817 CURVE SMOOTH",
"362.445 817 OFFCURVE",
"387.114 796.3 OFFCURVE",
"387.114 768.397 CURVE SMOOTH",
"387.114 765.028 OFFCURVE",
"386.754 761.555 OFFCURVE",
"386 758 CURVE SMOOTH"
);
},
{
closed = 1;
nodes = (
"566 722 OFFCURVE",
"530 693 OFFCURVE",
"489 693 CURVE SMOOTH",
"457.691 693 OFFCURVE",
"435.458 711.909 OFFCURVE",
"435.458 739.86 CURVE SMOOTH",
"435.458 744.048 OFFCURVE",
"435.958 748.439 OFFCURVE",
"437 753 CURVE SMOOTH",
"444 787 OFFCURVE",
"482 817 OFFCURVE",
"521 817 CURVE SMOOTH",
"551.236 817 OFFCURVE",
"575.145 796.438 OFFCURVE",
"575.145 768.676 CURVE SMOOTH",
"575.145 765.221 OFFCURVE",
"574.775 761.653 OFFCURVE",
"574 758 CURVE SMOOTH"
);
},
{
closed = 1;
nodes = (
"590 657 LINE SMOOTH",
"603 673 OFFCURVE",
"620 681 OFFCURVE",
"638 681 CURVE SMOOTH",
"659.187 681 OFFCURVE",
"678.036 664.635 OFFCURVE",
"678.036 641.535 CURVE SMOOTH",
"678.036 638.468 OFFCURVE",
"677.703 635.282 OFFCURVE",
"677 632 CURVE SMOOTH",
"674 621 OFFCURVE",
"672 615 OFFCURVE",
"660 600 CURVE SMOOTH",
"196 25 LINE SMOOTH",
"183 9 OFFCURVE",
"166 0 OFFCURVE",
"148 0 CURVE SMOOTH",
"123.423 0 OFFCURVE",
"108.091 18.491 OFFCURVE",
"108.091 39.918 CURVE SMOOTH",
"108.091 42.902 OFFCURVE",
"108.389 45.944 OFFCURVE",
"109 49 CURVE SMOOTH",
"111 59 OFFCURVE",
"113 64 OFFCURVE",
"123 77 CURVE SMOOTH",
"241 223 LINE",
"100 603 LINE SMOOTH",
"96 614 OFFCURVE",
"96 623 OFFCURVE",
"98 632 CURVE SMOOTH",
"103 658 OFFCURVE",
"130 681 OFFCURVE",
"158 681 CURVE SMOOTH",
"175 681 OFFCURVE",
"189 672 OFFCURVE",
"195 656 CURVE SMOOTH",
"320 321 LINE"
);
}
);
userData = {
com.fontlab.hintData = {
hhints = (
{
position = 0;
width = 21;
},
{
position = 661;
width = 20;
},
{
position = 693;
width = 124;
}
);
vhints = (
{
position = 247;
width = 140;
},
{
position = 435;
width = 140;
}
);
};
};
width = 619;
}
);
unicode = 0178;
},
{
glyphname = Z;
layers = (
{
layerId = master01;
paths = (
{
closed = 1;
nodes = (
"496 102 LINE SMOOTH",
"519.9 102 OFFCURVE",
"536.514 85.971 OFFCURVE",
"536.514 63.242 CURVE SMOOTH",
"536.514 59.343 OFFCURVE",
"536.025 55.247 OFFCURVE",
"535 51 CURVE",
"530 24 OFFCURVE",
"503 0 OFFCURVE",
"475 0 CURVE SMOOTH",
"44 0 LINE SMOOTH",
"13.366 0 OFFCURVE",
"-0.817 15.767 OFFCURVE",
"-0.817 39.922 CURVE SMOOTH",
"-0.817 44.941 OFFCURVE",
"-0.204 50.323 OFFCURVE",
"1 56 CURVE SMOOTH",
"3 65 OFFCURVE",
"10 78 OFFCURVE",
"20 88 CURVE SMOOTH",
"518 577 LINE",
"178 577 LINE SMOOTH",
"154.518 577 OFFCURVE",
"137.844 594.396 OFFCURVE",
"137.844 618.007 CURVE SMOOTH",
"137.844 621.544 OFFCURVE",
"138.218 625.221 OFFCURVE",
"139 629 CURVE SMOOTH",
"145 656 OFFCURVE",
"173 680 OFFCURVE",
"200 680 CURVE SMOOTH",
"631 680 LINE SMOOTH",
"657.27 680 OFFCURVE",
"675.106 662.364 OFFCURVE",
"675.106 637.834 CURVE SMOOTH",
"675.106 634.351 OFFCURVE",
"674.746 630.73 OFFCURVE",
"674 627 CURVE SMOOTH",
"670 611 OFFCURVE",
"667 605 OFFCURVE",
"658 596 CURVE SMOOTH",
"156 102 LINE"
);
}
);
userData = {
com.fontlab.hintData = {
hhints = (
{
position = 0;
width = 102;
},
{
position = 577;
width = 103;
}
);
};
};
width = 665;
}
);
unicode = 005A;
},
{
glyphname = Zacute;
layers = (
{
layerId = master01;
paths = (
{
closed = 1;
nodes = (
"496 102 LINE SMOOTH",
"519.9 102 OFFCURVE",
"536.514 85.971 OFFCURVE",
"536.514 63.242 CURVE SMOOTH",
"536.514 59.343 OFFCURVE",
"536.025 55.247 OFFCURVE",
"535 51 CURVE",
"530 24 OFFCURVE",
"503 0 OFFCURVE",
"475 0 CURVE SMOOTH",
"44 0 LINE SMOOTH",
"13.366 0 OFFCURVE",
"-0.817 15.767 OFFCURVE",
"-0.817 39.922 CURVE SMOOTH",
"-0.817 44.941 OFFCURVE",
"-0.204 50.323 OFFCURVE",
"1 56 CURVE SMOOTH",
"3 65 OFFCURVE",
"10 78 OFFCURVE",
"20 88 CURVE SMOOTH",
"518 577 LINE",
"178 577 LINE SMOOTH",
"154.518 577 OFFCURVE",
"137.844 594.396 OFFCURVE",
"137.844 618.007 CURVE SMOOTH",
"137.844 621.544 OFFCURVE",
"138.218 625.221 OFFCURVE",
"139 629 CURVE SMOOTH",
"145 656 OFFCURVE",
"173 680 OFFCURVE",
"200 680 CURVE SMOOTH",
"631 680 LINE SMOOTH",
"657.27 680 OFFCURVE",
"675.106 662.364 OFFCURVE",
"675.106 637.834 CURVE SMOOTH",
"675.106 634.351 OFFCURVE",
"674.746 630.73 OFFCURVE",
"674 627 CURVE SMOOTH",
"670 611 OFFCURVE",
"667 605 OFFCURVE",
"658 596 CURVE SMOOTH",
"156 102 LINE"
);
},
{
closed = 1;
nodes = (
"497 883 LINE SMOOTH",
"509 891 OFFCURVE",
"525 902 OFFCURVE",
"542 902 CURVE SMOOTH",
"568.125 902 OFFCURVE",
"585.15 883.8 OFFCURVE",
"585.15 858.626 CURVE SMOOTH",
"585.15 854.892 OFFCURVE",
"584.775 851.004 OFFCURVE",
"584 847 CURVE",
"580 832 OFFCURVE",
"572 817 OFFCURVE",
"556 807 CURVE SMOOTH",
"414 722 LINE SMOOTH",
"402 715 OFFCURVE",
"389 709 OFFCURVE",
"378 709 CURVE SMOOTH",
"356.842 709 OFFCURVE",
"341.124 725.321 OFFCURVE",
"341.124 747.686 CURVE SMOOTH",
"341.124 750.69 OFFCURVE",
"341.408 753.803 OFFCURVE",
"342 757 CURVE",
"345 768 OFFCURVE",
"350 781 OFFCURVE",
"362 790 CURVE SMOOTH"
);
}
);
userData = {
com.fontlab.hintData = {
hhints = (
{
position = 0;
width = 102;
},
{
position = 577;
width = 103;
}
);
};
};
width = 665;
}
);
unicode = 0179;
},
{
glyphname = Zcaron;
layers = (
{
layerId = master01;
paths = (
{
closed = 1;
nodes = (
"444 721 LINE SMOOTH",
"431 712 OFFCURVE",
"418 709 OFFCURVE",
"409 709 CURVE SMOOTH",
"397 709 OFFCURVE",
"384 715 OFFCURVE",
"375 727 CURVE SMOOTH",
"299 823 LINE SMOOTH",
"294.1 830 OFFCURVE",
"291.65 837.49 OFFCURVE",
"291.65 845.813 CURVE SMOOTH",
"291.65 849.38 OFFCURVE",
"292.1 853.1 OFFCURVE",
"293 857 CURVE SMOOTH",
"298 882 OFFCURVE",
"324 904 OFFCURVE",
"349 904 CURVE SMOOTH",
"361 904 OFFCURVE",
"370 902 OFFCURVE",
"379 892 CURVE SMOOTH",
"438 826 LINE",
"542 895 LINE SMOOTH",
"554 903 OFFCURVE",
"563 904 OFFCURVE",
"573 904 CURVE SMOOTH",
"595.048 904 OFFCURVE",
"610.874 888.444 OFFCURVE",
"610.874 866.25 CURVE SMOOTH",
"610.874 863.278 OFFCURVE",
"610.59 860.188 OFFCURVE",
"610 857 CURVE SMOOTH",
"607 844 OFFCURVE",
"598 831 OFFCURVE",
"584 821 CURVE SMOOTH"
);
},
{
closed = 1;
nodes = (
"496 102 LINE SMOOTH",
"519.9 102 OFFCURVE",
"536.514 85.971 OFFCURVE",
"536.514 63.242 CURVE SMOOTH",
"536.514 59.343 OFFCURVE",
"536.025 55.247 OFFCURVE",
"535 51 CURVE",
"530 24 OFFCURVE",
"503 0 OFFCURVE",
"475 0 CURVE SMOOTH",
"44 0 LINE SMOOTH",
"13.366 0 OFFCURVE",
"-0.817 15.767 OFFCURVE",
"-0.817 39.922 CURVE SMOOTH",
"-0.817 44.941 OFFCURVE",
"-0.204 50.323 OFFCURVE",
"1 56 CURVE SMOOTH",
"3 65 OFFCURVE",
"10 78 OFFCURVE",
"20 88 CURVE SMOOTH",
"518 577 LINE",
"178 577 LINE SMOOTH",
"154.518 577 OFFCURVE",
"137.844 594.396 OFFCURVE",
"137.844 618.007 CURVE SMOOTH",
"137.844 621.544 OFFCURVE",
"138.218 625.221 OFFCURVE",
"139 629 CURVE SMOOTH",
"145 656 OFFCURVE",
"173 680 OFFCURVE",
"200 680 CURVE SMOOTH",
"631 680 LINE SMOOTH",
"657.27 680 OFFCURVE",
"675.106 662.364 OFFCURVE",
"675.106 637.834 CURVE SMOOTH",
"675.106 634.351 OFFCURVE",
"674.746 630.73 OFFCURVE",
"674 627 CURVE SMOOTH",
"670 611 OFFCURVE",
"667 605 OFFCURVE",
"658 596 CURVE SMOOTH",
"156 102 LINE"
);
}
);
userData = {
com.fontlab.hintData = {
hhints = (
{
position = 0;
width = 102;
},
{
position = 577;
width = 103;
}
);
};
};
width = 665;
}
);
unicode = 017D;
},
{
glyphname = Zdotaccent;
layers = (
{
layerId = master01;
paths = (
{
closed = 1;
nodes = (
"503 732 OFFCURVE",
"466 703 OFFCURVE",
"426 703 CURVE SMOOTH",
"394.216 703 OFFCURVE",
"371.786 721.708 OFFCURVE",
"371.786 750.177 CURVE SMOOTH",
"371.786 753.953 OFFCURVE",
"372.18 757.901 OFFCURVE",
"373 762 CURVE",
"381 796 OFFCURVE",
"419 827 OFFCURVE",
"458 827 CURVE SMOOTH",
"487.445 827 OFFCURVE",
"512.114 806.3 OFFCURVE",
"512.114 777.686 CURVE SMOOTH",
"512.114 774.232 OFFCURVE",
"511.754 770.662 OFFCURVE",
"511 767 CURVE SMOOTH"
);
},
{
closed = 1;
nodes = (
"496 102 LINE SMOOTH",
"519.9 102 OFFCURVE",
"536.514 85.971 OFFCURVE",
"536.514 63.242 CURVE SMOOTH",
"536.514 59.343 OFFCURVE",
"536.025 55.247 OFFCURVE",
"535 51 CURVE",
"530 24 OFFCURVE",
"503 0 OFFCURVE",
"475 0 CURVE SMOOTH",
"44 0 LINE SMOOTH",
"13.366 0 OFFCURVE",
"-0.817 15.767 OFFCURVE",
"-0.817 39.922 CURVE SMOOTH",
"-0.817 44.941 OFFCURVE",
"-0.204 50.323 OFFCURVE",
"1 56 CURVE SMOOTH",
"3 65 OFFCURVE",
"10 78 OFFCURVE",
"20 88 CURVE SMOOTH",
"518 577 LINE",
"178 577 LINE SMOOTH",
"154.518 577 OFFCURVE",
"137.844 594.396 OFFCURVE",
"137.844 618.007 CURVE SMOOTH",
"137.844 621.544 OFFCURVE",
"138.218 625.221 OFFCURVE",
"139 629 CURVE SMOOTH",
"145 656 OFFCURVE",
"173 680 OFFCURVE",
"200 680 CURVE SMOOTH",
"631 680 LINE SMOOTH",
"657.27 680 OFFCURVE",
"675.106 662.364 OFFCURVE",
"675.106 637.834 CURVE SMOOTH",
"675.106 634.351 OFFCURVE",
"674.746 630.73 OFFCURVE",
"674 627 CURVE SMOOTH",
"670 611 OFFCURVE",
"667 605 OFFCURVE",
"658 596 CURVE SMOOTH",
"156 102 LINE"
);
}
);
userData = {
com.fontlab.hintData = {
hhints = (
{
position = 0;
width = 102;
},
{
position = 577;
width = 103;
},
{
position = 703;
width = 124;
}
);
vhints = (
{
position = 372;
width = 140;
}
);
};
};
width = 665;
}
);
unicode = 017B;
},
{
glyphname = uni0162;
layers = (
{
layerId = master01;
paths = (
{
closed = 1;
nodes = (
"585.214 681 OFFCURVE",
"601.202 665.295 OFFCURVE",
"601.202 642.939 CURVE SMOOTH",
"601.202 639.443 OFFCURVE",
"600.811 635.786 OFFCURVE",
"600 632 CURVE SMOOTH",
"594 605 OFFCURVE",
"568 582 OFFCURVE",
"540 582 CURVE SMOOTH",
"376 582 LINE",
"263 49 LINE SMOOTH",
"257 23 OFFCURVE",
"231 0 OFFCURVE",
"204 0 CURVE SMOOTH",
"180.384 0 OFFCURVE",
"162.889 17.596 OFFCURVE",
"162.889 39.404 CURVE SMOOTH",
"162.889 42.529 OFFCURVE",
"163.248 45.741 OFFCURVE",
"164 49 CURVE SMOOTH",
"277 582 LINE",
"126 582 LINE SMOOTH",
"103.398 582 OFFCURVE",
"86.842 599.381 OFFCURVE",
"86.842 621.661 CURVE SMOOTH",
"86.842 625.011 OFFCURVE",
"87.216 628.471 OFFCURVE",
"88 632 CURVE SMOOTH",
"94 660 OFFCURVE",
"121 681 OFFCURVE",
"147 681 CURVE SMOOTH",
"561 681 LINE"
);
},
{
closed = 1;
nodes = (
"244 -102 OFFCURVE",
"215 -152 OFFCURVE",
"191 -190 CURVE SMOOTH",
"178 -211 OFFCURVE",
"163 -229 OFFCURVE",
"137 -229 CURVE SMOOTH",
"115.229 -229 OFFCURVE",
"101.042 -214.591 OFFCURVE",
"101.042 -195.68 CURVE SMOOTH",
"101.042 -192.875 OFFCURVE",
"101.354 -189.971 OFFCURVE",
"102 -187 CURVE SMOOTH",
"103 -180 OFFCURVE",
"105 -176 OFFCURVE",
"108 -171 CURVE SMOOTH",
"136 -124 LINE",
"134.257 -118.77 OFFCURVE",
"133.189 -113.202 OFFCURVE",
"133.189 -107.1 CURVE SMOOTH",
"133.189 -102.702 OFFCURVE",
"133.743 -98.026 OFFCURVE",
"135 -93 CURVE SMOOTH",
"142 -60 OFFCURVE",
"176 -30 OFFCURVE",
"207 -30 CURVE SMOOTH",
"232.243 -30 OFFCURVE",
"249.152 -47.427 OFFCURVE",
"249.152 -70.409 CURVE SMOOTH",
"249.152 -73.829 OFFCURVE",
"248.777 -77.373 OFFCURVE",
"248 -81 CURVE SMOOTH"
);
}
);
userData = {
com.fontlab.hintData = {
hhints = (
{
position = 0;
width = 21;
},
{
position = 582;
width = 99;
}
);
vhints = (
{
position = 133;
width = 116;
}
);
};
};
width = 548;
}
);
unicode = 0162;
},
{
glyphname = a;
layers = (
{
layerId = master01;
paths = (
{
closed = 1;
nodes = (
"402 50 LINE SMOOTH",
"397 24 OFFCURVE",
"372 0 OFFCURVE",
"344 0 CURVE SMOOTH",
"318 0 OFFCURVE",
"305 15 OFFCURVE",
"304 35 CURVE",
"268 20 OFFCURVE",
"226 7 OFFCURVE",
"186 7 CURVE SMOOTH",
"93.43 7 OFFCURVE",
"33.437 69.322 OFFCURVE",
"33.437 167.147 CURVE SMOOTH",
"33.437 185.566 OFFCURVE",
"35.563 205.243 OFFCURVE",
"40 226 CURVE SMOOTH",
"61 329 OFFCURVE",
"165 512 OFFCURVE",
"340 512 CURVE SMOOTH",
"412 512 OFFCURVE",
"474 475 OFFCURVE",
"491 466 CURVE"
);
},
{
closed = 1;
nodes = (
"383 405 LINE",
"367 412 OFFCURVE",
"343 417 OFFCURVE",
"322 417 CURVE SMOOTH",
"215 417 OFFCURVE",
"151 295 OFFCURVE",
"137 228 CURVE SMOOTH",
"134.265 215.695 OFFCURVE",
"132.673 202.506 OFFCURVE",
"132.673 189.476 CURVE SMOOTH",
"132.673 145.328 OFFCURVE",
"150.952 103 OFFCURVE",
"205 103 CURVE SMOOTH",
"245 103 OFFCURVE",
"296 128 OFFCURVE",
"324 144 CURVE"
);
}
);
userData = {
com.fontlab.hintData = {
hhints = (
{
position = 0;
width = 21;
},
{
position = 7;
width = 96;
},
{
position = 417;
width = 95;
}
);
vhints = (
{
position = 33;
width = 99;
}
);
};
};
width = 531;
}
);
unicode = 0061;
},
{
glyphname = aacute;
layers = (
{
layerId = master01;
paths = (
{
closed = 1;
nodes = (
"400 40 LINE SMOOTH",
"394 14 OFFCURVE",
"369 -10 OFFCURVE",
"341 -10 CURVE SMOOTH",
"315 -10 OFFCURVE",
"303 5 OFFCURVE",
"302 25 CURVE",
"266 10 OFFCURVE",
"224 -3 OFFCURVE",
"184 -3 CURVE SMOOTH",
"90.966 -3 OFFCURVE",
"30.836 59.948 OFFCURVE",
"30.836 158.62 CURVE SMOOTH",
"30.836 176.614 OFFCURVE",
"32.836 195.795 OFFCURVE",
"37 216 CURVE SMOOTH",
"59 319 OFFCURVE",
"163 502 OFFCURVE",
"338 502 CURVE SMOOTH",
"410 502 OFFCURVE",
"472 465 OFFCURVE",
"488 456 CURVE"
);
},
{
closed = 1;
nodes = (
"380 395 LINE",
"365 402 OFFCURVE",
"341 407 OFFCURVE",
"320 407 CURVE SMOOTH",
"213 407 OFFCURVE",
"149 285 OFFCURVE",
"135 218 CURVE SMOOTH",
"132.265 205.695 OFFCURVE",
"130.673 192.506 OFFCURVE",
"130.673 179.476 CURVE SMOOTH",
"130.673 135.328 OFFCURVE",
"148.952 93 OFFCURVE",
"203 93 CURVE SMOOTH",
"243 93 OFFCURVE",
"294 118 OFFCURVE",
"322 134 CURVE"
);
},
{
closed = 1;
nodes = (
"432 703 LINE SMOOTH",
"444 711 OFFCURVE",
"460 722 OFFCURVE",
"477 722 CURVE SMOOTH",
"502.635 722 OFFCURVE",
"519.508 704.476 OFFCURVE",
"519.508 680.035 CURVE SMOOTH",
"519.508 675.873 OFFCURVE",
"519.019 671.511 OFFCURVE",
"518 667 CURVE SMOOTH",
"515 652 OFFCURVE",
"507 637 OFFCURVE",
"491 627 CURVE SMOOTH",
"349 542 LINE SMOOTH",
"337 535 OFFCURVE",
"324 529 OFFCURVE",
"313 529 CURVE SMOOTH",
"292.156 529 OFFCURVE",
"275.837 544.841 OFFCURVE",
"275.837 566.695 CURVE SMOOTH",
"275.837 570.004 OFFCURVE",
"276.211 573.45 OFFCURVE",
"277 577 CURVE SMOOTH",
"279 588 OFFCURVE",
"284 601 OFFCURVE",
"297 610 CURVE SMOOTH"
);
}
);
userData = {
com.fontlab.hintData = {
hhints = (
{
position = -3;
width = 96;
},
{
position = 407;
width = 95;
}
);
vhints = (
{
position = 31;
width = 100;
}
);
};
};
width = 531;
}
);
unicode = 00E1;
},
{
glyphname = abreve;
layers = (
{
layerId = master01;
paths = (
{
closed = 1;
nodes = (
"400 40 LINE SMOOTH",
"394 14 OFFCURVE",
"369 -10 OFFCURVE",
"341 -10 CURVE SMOOTH",
"315 -10 OFFCURVE",
"303 5 OFFCURVE",
"302 25 CURVE",
"266 10 OFFCURVE",
"224 -3 OFFCURVE",
"184 -3 CURVE SMOOTH",
"90.966 -3 OFFCURVE",
"30.836 59.948 OFFCURVE",
"30.836 158.62 CURVE SMOOTH",
"30.836 176.614 OFFCURVE",
"32.836 195.795 OFFCURVE",
"37 216 CURVE SMOOTH",
"59 319 OFFCURVE",
"163 502 OFFCURVE",
"338 502 CURVE SMOOTH",
"410 502 OFFCURVE",
"472 465 OFFCURVE",
"488 456 CURVE"
);
},
{
closed = 1;
nodes = (
"380 395 LINE",
"365 402 OFFCURVE",
"341 407 OFFCURVE",
"320 407 CURVE SMOOTH",
"213 407 OFFCURVE",
"149 285 OFFCURVE",
"135 218 CURVE SMOOTH",
"132.265 205.695 OFFCURVE",
"130.673 192.506 OFFCURVE",
"130.673 179.476 CURVE SMOOTH",
"130.673 135.328 OFFCURVE",
"148.952 93 OFFCURVE",
"203 93 CURVE SMOOTH",
"243 93 OFFCURVE",
"294 118 OFFCURVE",
"322 134 CURVE"
);
},
{
closed = 1;
nodes = (
"204 670 OFFCURVE",
"211 692 OFFCURVE",
"248 692 CURVE SMOOTH",
"269 692 OFFCURVE",
"278 675 OFFCURVE",
"281 663 CURVE SMOOTH",
"291 627 OFFCURVE",
"332 615 OFFCURVE",
"360 615 CURVE SMOOTH",
"396 615 OFFCURVE",
"424 629 OFFCURVE",
"445 663 CURVE SMOOTH",
"457 682 OFFCURVE",
"469 697 OFFCURVE",
"495 697 CURVE SMOOTH",
"512.689 697 OFFCURVE",
"525.684 682.92 OFFCURVE",
"525.684 665.829 CURVE SMOOTH",
"525.684 663.596 OFFCURVE",
"525.462 661.311 OFFCURVE",
"525 659 CURVE SMOOTH",
"514 610 OFFCURVE",
"441 528 OFFCURVE",
"340 528 CURVE SMOOTH",
"228.113 528 OFFCURVE",
"200.085 610.232 OFFCURVE",
"200.085 645.398 CURVE SMOOTH",
"200.085 649.205 OFFCURVE",
"200.414 652.46 OFFCURVE",
"201 655 CURVE SMOOTH"
);
}
);
userData = {
com.fontlab.hintData = {
hhints = (
{
position = -3;
width = 96;
},
{
position = 407;
width = 95;
},
{
position = 528;
width = 87;
}
);
vhints = (
{
position = 31;
width = 100;
},
{
position = 201;
width = 80;
}
);
};
};
width = 531;
}
);
unicode = 0103;
},
{
glyphname = acircumflex;
layers = (
{
layerId = master01;
paths = (
{
closed = 1;
nodes = (
"400 40 LINE SMOOTH",
"394 14 OFFCURVE",
"369 -10 OFFCURVE",
"341 -10 CURVE SMOOTH",
"315 -10 OFFCURVE",
"303 5 OFFCURVE",
"302 25 CURVE",
"266 10 OFFCURVE",
"224 -3 OFFCURVE",
"184 -3 CURVE SMOOTH",
"90.966 -3 OFFCURVE",
"30.836 59.948 OFFCURVE",
"30.836 158.62 CURVE SMOOTH",
"30.836 176.614 OFFCURVE",
"32.836 195.795 OFFCURVE",
"37 216 CURVE SMOOTH",
"59 319 OFFCURVE",
"163 502 OFFCURVE",
"338 502 CURVE SMOOTH",
"410 502 OFFCURVE",
"472 465 OFFCURVE",
"488 456 CURVE"
);
},
{
closed = 1;
nodes = (
"380 395 LINE",
"365 402 OFFCURVE",
"341 407 OFFCURVE",
"320 407 CURVE SMOOTH",
"213 407 OFFCURVE",
"149 285 OFFCURVE",
"135 218 CURVE SMOOTH",
"132.265 205.695 OFFCURVE",
"130.673 192.506 OFFCURVE",
"130.673 179.476 CURVE SMOOTH",
"130.673 135.328 OFFCURVE",
"148.952 93 OFFCURVE",
"203 93 CURVE SMOOTH",
"243 93 OFFCURVE",
"294 118 OFFCURVE",
"322 134 CURVE"
);
},
{
closed = 1;
nodes = (
"369 726 LINE SMOOTH",
"382 735 OFFCURVE",
"394 738 OFFCURVE",
"403 738 CURVE SMOOTH",
"415 738 OFFCURVE",
"428 732 OFFCURVE",
"438 720 CURVE SMOOTH",
"513 624 LINE SMOOTH",
"518.668 616.915 OFFCURVE",
"521.324 609.328 OFFCURVE",
"521.324 600.884 CURVE SMOOTH",
"521.324 597.409 OFFCURVE",
"520.875 593.79 OFFCURVE",
"520 590 CURVE SMOOTH",
"515 565 OFFCURVE",
"489 543 OFFCURVE",
"464 543 CURVE SMOOTH",
"452 543 OFFCURVE",
"442 545 OFFCURVE",
"433 555 CURVE SMOOTH",
"374 621 LINE",
"271 552 LINE SMOOTH",
"258 544 OFFCURVE",
"250 543 OFFCURVE",
"240 543 CURVE SMOOTH",
"218.277 543 OFFCURVE",
"201.839 558.1 OFFCURVE",
"201.839 579.772 CURVE SMOOTH",
"201.839 583.042 OFFCURVE",
"202.213 586.461 OFFCURVE",
"203 590 CURVE SMOOTH",
"206 603 OFFCURVE",
"214 616 OFFCURVE",
"229 626 CURVE SMOOTH"
);
}
);
userData = {
com.fontlab.hintData = {
hhints = (
{
position = -3;
width = 96;
},
{
position = 407;
width = 95;
}
);
vhints = (
{
position = 31;
width = 100;
}
);
};
};
width = 531;
}
);
unicode = 00E2;
},
{
glyphname = adieresis;
layers = (
{
layerId = master01;
paths = (
{
closed = 1;
nodes = (
"323 571 OFFCURVE",
"287 543 OFFCURVE",
"248 543 CURVE SMOOTH",
"216.349 543 OFFCURVE",
"194.747 561.552 OFFCURVE",
"194.747 589.141 CURVE SMOOTH",
"194.747 592.931 OFFCURVE",
"195.154 596.893 OFFCURVE",
"196 601 CURVE SMOOTH",
"203 634 OFFCURVE",
"241 664 OFFCURVE",
"279 664 CURVE SMOOTH",
"308.229 664 OFFCURVE",
"331.182 644.387 OFFCURVE",
"331.182 616.974 CURVE SMOOTH",
"331.182 613.437 OFFCURVE",
"330.8 609.771 OFFCURVE",
"330 606 CURVE SMOOTH"
);
},
{
closed = 1;
nodes = (
"507 571 OFFCURVE",
"471 543 OFFCURVE",
"432 543 CURVE SMOOTH",
"401.237 543 OFFCURVE",
"379.745 561.541 OFFCURVE",
"379.745 589.116 CURVE SMOOTH",
"379.745 592.914 OFFCURVE",
"380.153 596.884 OFFCURVE",
"381 601 CURVE SMOOTH",
"388 634 OFFCURVE",
"425 664 OFFCURVE",
"464 664 CURVE SMOOTH",
"492.336 664 OFFCURVE",
"515.183 644.397 OFFCURVE",
"515.183 616.995 CURVE SMOOTH",
"515.183 613.452 OFFCURVE",
"514.801 609.778 OFFCURVE",
"514 606 CURVE SMOOTH"
);
},
{
closed = 1;
nodes = (
"400 40 LINE SMOOTH",
"394 14 OFFCURVE",
"369 -10 OFFCURVE",
"341 -10 CURVE SMOOTH",
"315 -10 OFFCURVE",
"303 5 OFFCURVE",
"302 25 CURVE",
"266 10 OFFCURVE",
"224 -3 OFFCURVE",
"184 -3 CURVE SMOOTH",
"90.966 -3 OFFCURVE",
"30.836 59.948 OFFCURVE",
"30.836 158.62 CURVE SMOOTH",
"30.836 176.614 OFFCURVE",
"32.836 195.795 OFFCURVE",
"37 216 CURVE SMOOTH",
"59 319 OFFCURVE",
"163 502 OFFCURVE",
"338 502 CURVE SMOOTH",
"410 502 OFFCURVE",
"472 465 OFFCURVE",
"488 456 CURVE"
);
},
{
closed = 1;
nodes = (
"380 395 LINE",
"365 402 OFFCURVE",
"341 407 OFFCURVE",
"320 407 CURVE SMOOTH",
"213 407 OFFCURVE",
"149 285 OFFCURVE",
"135 218 CURVE SMOOTH",
"132.265 205.695 OFFCURVE",
"130.673 192.506 OFFCURVE",
"130.673 179.476 CURVE SMOOTH",
"130.673 135.328 OFFCURVE",
"148.952 93 OFFCURVE",
"203 93 CURVE SMOOTH",
"243 93 OFFCURVE",
"294 118 OFFCURVE",
"322 134 CURVE"
);
}
);
userData = {
com.fontlab.hintData = {
hhints = (
{
position = -3;
width = 96;
},
{
position = 407;
width = 95;
},
{
position = 543;
width = 121;
}
);
vhints = (
{
position = 31;
width = 100;
},
{
position = 195;
width = 136;
},
{
position = 380;
width = 135;
}
);
};
};
width = 531;
}
);
unicode = 00E4;
},
{
glyphname = agrave;
layers = (
{
layerId = master01;
paths = (
{
closed = 1;
nodes = (
"400 40 LINE SMOOTH",
"394 14 OFFCURVE",
"369 -10 OFFCURVE",
"341 -10 CURVE SMOOTH",
"315 -10 OFFCURVE",
"303 5 OFFCURVE",
"302 25 CURVE",
"266 10 OFFCURVE",
"224 -3 OFFCURVE",
"184 -3 CURVE SMOOTH",
"90.966 -3 OFFCURVE",
"30.836 59.948 OFFCURVE",
"30.836 158.62 CURVE SMOOTH",
"30.836 176.614 OFFCURVE",
"32.836 195.795 OFFCURVE",
"37 216 CURVE SMOOTH",
"59 319 OFFCURVE",
"163 502 OFFCURVE",
"338 502 CURVE SMOOTH",
"410 502 OFFCURVE",
"472 465 OFFCURVE",
"488 456 CURVE"
);
},
{
closed = 1;
nodes = (
"380 395 LINE",
"365 402 OFFCURVE",
"341 407 OFFCURVE",
"320 407 CURVE SMOOTH",
"213 407 OFFCURVE",
"149 285 OFFCURVE",
"135 218 CURVE SMOOTH",
"132.265 205.695 OFFCURVE",
"130.673 192.506 OFFCURVE",
"130.673 179.476 CURVE SMOOTH",
"130.673 135.328 OFFCURVE",
"148.952 93 OFFCURVE",
"203 93 CURVE SMOOTH",
"243 93 OFFCURVE",
"294 118 OFFCURVE",
"322 134 CURVE"
);
},
{
closed = 1;
nodes = (
"282 654 LINE SMOOTH",
"276.144 661.321 OFFCURVE",
"272.431 669.713 OFFCURVE",
"272.431 679.962 CURVE SMOOTH",
"272.431 683.713 OFFCURVE",
"272.928 687.713 OFFCURVE",
"274 692 CURVE SMOOTH",
"280 720 OFFCURVE",
"311 746 OFFCURVE",
"339 746 CURVE SMOOTH",
"357 746 OFFCURVE",
"371 736 OFFCURVE",
"378 724 CURVE SMOOTH",
"448 605 LINE SMOOTH",
"452.963 596.492 OFFCURVE",
"454.91 589.995 OFFCURVE",
"454.91 583.37 CURVE SMOOTH",
"454.91 580.651 OFFCURVE",
"454.582 577.91 OFFCURVE",
"454 575 CURVE SMOOTH",
"448 548 OFFCURVE",
"420 528 OFFCURVE",
"396 528 CURVE SMOOTH",
"381 528 OFFCURVE",
"371 534 OFFCURVE",
"365 543 CURVE SMOOTH"
);
}
);
userData = {
com.fontlab.hintData = {
hhints = (
{
position = -3;
width = 96;
},
{
position = 407;
width = 95;
}
);
vhints = (
{
position = 31;
width = 100;
}
);
};
};
width = 531;
}
);
unicode = 00E0;
},
{
glyphname = aogonek;
layers = (
{
layerId = master01;
paths = (
{
closed = 1;
nodes = (
"230.447 -196 OFFCURVE",
"191.913 -159.669 OFFCURVE",
"191.913 -106.16 CURVE SMOOTH",
"191.913 -97.527 OFFCURVE",
"192.916 -88.447 OFFCURVE",
"195 -79 CURVE SMOOTH",
"208 -18 OFFCURVE",
"260 11 OFFCURVE",
"310 37 CURVE",
"309 44 OFFCURVE",
"308 50 OFFCURVE",
"308 55 CURVE",
"270 32 OFFCURVE",
"228 17 OFFCURVE",
"188 17 CURVE SMOOTH",
"95.089 17 OFFCURVE",
"33.569 72.647 OFFCURVE",
"33.569 168.877 CURVE SMOOTH",
"33.569 186.576 OFFCURVE",
"35.65 205.648 OFFCURVE",
"40 226 CURVE SMOOTH",
"61 329 OFFCURVE",
"165 512 OFFCURVE",
"340 512 CURVE SMOOTH",
"412 512 OFFCURVE",
"474 475 OFFCURVE",
"491 466 CURVE",
"402 50 LINE SMOOTH",
"394 11 OFFCURVE",
"370 -4 OFFCURVE",
"343 -21 CURVE SMOOTH",
"322.186 -34.245 OFFCURVE",
"284.505 -55.733 OFFCURVE",
"284.505 -84.793 CURVE SMOOTH",
"284.505 -96.897 OFFCURVE",
"294.674 -104 OFFCURVE",
"308 -104 CURVE SMOOTH",
"321 -104 OFFCURVE",
"337 -100 OFFCURVE",
"351 -90 CURVE SMOOTH",
"364 -82 OFFCURVE",
"372 -80 OFFCURVE",
"382 -80 CURVE SMOOTH",
"400.697 -80 OFFCURVE",
"417.808 -97.439 OFFCURVE",
"417.808 -118.202 CURVE SMOOTH",
"417.808 -120.759 OFFCURVE",
"417.548 -123.368 OFFCURVE",
"417 -126 CURVE SMOOTH",
"408 -168 OFFCURVE",
"328 -196 OFFCURVE",
"289 -196 CURVE SMOOTH"
);
},
{
closed = 1;
nodes = (
"383 405 LINE",
"367 412 OFFCURVE",
"343 417 OFFCURVE",
"322 417 CURVE SMOOTH",
"215 417 OFFCURVE",
"151 295 OFFCURVE",
"137 228 CURVE SMOOTH",
"134.463 216.584 OFFCURVE",
"133.044 204.856 OFFCURVE",
"133.044 193.457 CURVE SMOOTH",
"133.044 150.935 OFFCURVE",
"152.798 113 OFFCURVE",
"208 113 CURVE SMOOTH",
"248 113 OFFCURVE",
"298 138 OFFCURVE",
"326 154 CURVE"
);
}
);
userData = {
com.fontlab.hintData = {
hhints = (
{
position = -196;
width = 92;
},
{
position = 17;
width = 96;
},
{
position = 417;
width = 95;
}
);
vhints = (
{
position = 34;
width = 99;
},
{
position = 192;
width = 93;
}
);
};
};
width = 531;
}
);
unicode = 0105;
},
{
glyphname = aring;
layers = (
{
layerId = master01;
paths = (
{
closed = 1;
nodes = (
"285.362 531 OFFCURVE",
"242.488 570.387 OFFCURVE",
"242.488 624.05 CURVE SMOOTH",
"242.488 631.45 OFFCURVE",
"243.303 639.122 OFFCURVE",
"245 647 CURVE SMOOTH",
"261 722 OFFCURVE",
"345 776 OFFCURVE",
"418 776 CURVE SMOOTH",
"477.234 776 OFFCURVE",
"522.399 736.138 OFFCURVE",
"522.399 681.98 CURVE SMOOTH",
"522.399 674.88 OFFCURVE",
"521.623 667.534 OFFCURVE",
"520 660 CURVE SMOOTH",
"503 583 OFFCURVE",
"418 531 OFFCURVE",
"346 531 CURVE SMOOTH"
);
},
{
closed = 1;
nodes = (
"361 688 OFFCURVE",
"333 664 OFFCURVE",
"329 647 CURVE SMOOTH",
"328.658 645.544 OFFCURVE",
"328.491 644.133 OFFCURVE",
"328.491 642.768 CURVE SMOOTH",
"328.491 628.197 OFFCURVE",
"347.483 619 OFFCURVE",
"374 619 CURVE SMOOTH",
"394.883 619 OFFCURVE",
"435.379 633.658 OFFCURVE",
"435.379 661.591 CURVE SMOOTH",
"435.379 674.596 OFFCURVE",
"420.797 688 OFFCURVE",
"397 688 CURVE SMOOTH"
);
},
{
closed = 1;
nodes = (
"400 40 LINE SMOOTH",
"394 14 OFFCURVE",
"369 -10 OFFCURVE",
"341 -10 CURVE SMOOTH",
"315 -10 OFFCURVE",
"303 5 OFFCURVE",
"302 25 CURVE",
"266 10 OFFCURVE",
"224 -3 OFFCURVE",
"184 -3 CURVE SMOOTH",
"90.966 -3 OFFCURVE",
"30.836 59.948 OFFCURVE",
"30.836 158.62 CURVE SMOOTH",
"30.836 176.614 OFFCURVE",
"32.836 195.795 OFFCURVE",
"37 216 CURVE SMOOTH",
"59 319 OFFCURVE",
"163 502 OFFCURVE",
"338 502 CURVE SMOOTH",
"410 502 OFFCURVE",
"472 465 OFFCURVE",
"488 456 CURVE"
);
},
{
closed = 1;
nodes = (
"380 395 LINE",
"365 402 OFFCURVE",
"341 407 OFFCURVE",
"320 407 CURVE SMOOTH",
"213 407 OFFCURVE",
"149 285 OFFCURVE",
"135 218 CURVE SMOOTH",
"132.265 205.695 OFFCURVE",
"130.673 192.506 OFFCURVE",
"130.673 179.476 CURVE SMOOTH",
"130.673 135.328 OFFCURVE",
"148.952 93 OFFCURVE",
"203 93 CURVE SMOOTH",
"243 93 OFFCURVE",
"294 118 OFFCURVE",
"322 134 CURVE"
);
}
);
userData = {
com.fontlab.hintData = {
hhints = (
{
position = -3;
width = 96;
},
{
position = 407;
width = 95;
},
{
position = 531;
width = 88;
},
{
position = 688;
width = 88;
}
);
vhints = (
{
position = 31;
width = 100;
},
{
position = 242;
width = 86;
},
{
position = 435;
width = 87;
}
);
};
};
width = 531;
}
);
unicode = 00E5;
},
{
glyphname = atilde;
layers = (
{
layerId = master01;
paths = (
{
closed = 1;
nodes = (
"400 40 LINE SMOOTH",
"394 14 OFFCURVE",
"369 -10 OFFCURVE",
"341 -10 CURVE SMOOTH",
"315 -10 OFFCURVE",
"303 5 OFFCURVE",
"302 25 CURVE",
"266 10 OFFCURVE",
"224 -3 OFFCURVE",
"184 -3 CURVE SMOOTH",
"90.966 -3 OFFCURVE",
"30.836 59.948 OFFCURVE",
"30.836 158.62 CURVE SMOOTH",
"30.836 176.614 OFFCURVE",
"32.836 195.795 OFFCURVE",
"37 216 CURVE SMOOTH",
"59 319 OFFCURVE",
"163 502 OFFCURVE",
"338 502 CURVE SMOOTH",
"410 502 OFFCURVE",
"472 465 OFFCURVE",
"488 456 CURVE"
);
},
{
closed = 1;
nodes = (
"380 395 LINE",
"365 402 OFFCURVE",
"341 407 OFFCURVE",
"320 407 CURVE SMOOTH",
"213 407 OFFCURVE",
"149 285 OFFCURVE",
"135 218 CURVE SMOOTH",
"132.265 205.695 OFFCURVE",
"130.673 192.506 OFFCURVE",
"130.673 179.476 CURVE SMOOTH",
"130.673 135.328 OFFCURVE",
"148.952 93 OFFCURVE",
"203 93 CURVE SMOOTH",
"243 93 OFFCURVE",
"294 118 OFFCURVE",
"322 134 CURVE"
);
},
{
closed = 1;
nodes = (
"498 706 OFFCURVE",
"511 713 OFFCURVE",
"526 713 CURVE SMOOTH",
"542.815 713 OFFCURVE",
"558.846 705.168 OFFCURVE",
"558.846 687.425 CURVE SMOOTH",
"558.846 685.119 OFFCURVE",
"558.575 682.646 OFFCURVE",
"558 680 CURVE SMOOTH",
"557 676 OFFCURVE",
"556 669 OFFCURVE",
"550 658 CURVE SMOOTH",
"534 627 OFFCURVE",
"477 525 OFFCURVE",
"376 525 CURVE SMOOTH",
"344 525 OFFCURVE",
"321 542 OFFCURVE",
"305 573 CURVE SMOOTH",
"294 596 OFFCURVE",
"286 608 OFFCURVE",
"271 608 CURVE SMOOTH",
"236 608 OFFCURVE",
"208 556 OFFCURVE",
"199 540 CURVE SMOOTH",
"191 525 OFFCURVE",
"181 518 OFFCURVE",
"166 518 CURVE SMOOTH",
"149.185 518 OFFCURVE",
"133.154 525.832 OFFCURVE",
"133.154 543.575 CURVE SMOOTH",
"133.154 545.881 OFFCURVE",
"133.425 548.354 OFFCURVE",
"134 551 CURVE",
"134 555 OFFCURVE",
"136 562 OFFCURVE",
"141 573 CURVE SMOOTH",
"170 630 OFFCURVE",
"224 697 OFFCURVE",
"302 697 CURVE SMOOTH",
"341 697 OFFCURVE",
"363 680 OFFCURVE",
"378 649 CURVE",
"390 627 OFFCURVE",
"398 613 OFFCURVE",
"413 613 CURVE SMOOTH",
"434 613 OFFCURVE",
"465 637 OFFCURVE",
"490 691 CURVE"
);
}
);
userData = {
com.fontlab.hintData = {
hhints = (
{
position = -3;
width = 96;
},
{
position = 407;
width = 95;
},
{
position = 525;
width = 88;
},
{
position = 608;
width = 89;
}
);
vhints = (
{
position = 31;
width = 100;
},
{
position = 490;
width = 69;
}
);
};
};
width = 531;
}
);
unicode = 00E3;
},
{
glyphname = ae;
layers = (
{
layerId = master01;
paths = (
{
closed = 1;
nodes = (
"666 33 OFFCURVE",
"595 0 OFFCURVE",
"533 0 CURVE SMOOTH",
"476 0 OFFCURVE",
"431 15 OFFCURVE",
"397 44 CURVE",
"390 23 OFFCURVE",
"364 0 OFFCURVE",
"340 0 CURVE SMOOTH",
"317 0 OFFCURVE",
"302 16 OFFCURVE",
"301 34 CURVE",
"268 20 OFFCURVE",
"227 7 OFFCURVE",
"190 7 CURVE SMOOTH",
"99.145 7 OFFCURVE",
"39.429 62.909 OFFCURVE",
"39.429 158.651 CURVE SMOOTH",
"39.429 176.718 OFFCURVE",
"41.555 196.204 OFFCURVE",
"46 217 CURVE SMOOTH",
"81 382 OFFCURVE",
"212 498 OFFCURVE",
"332 498 CURVE SMOOTH",
"395 498 OFFCURVE",
"457 469 OFFCURVE",
"473 455 CURVE",
"468 429 LINE",
"516 468 OFFCURVE",
"574 484 OFFCURVE",
"620 484 CURVE SMOOTH",
"731.995 484 OFFCURVE",
"775.468 408.136 OFFCURVE",
"775.468 358.818 CURVE SMOOTH",
"775.468 353.532 OFFCURVE",
"774.968 348.55 OFFCURVE",
"774 344 CURVE SMOOTH",
"770 327 OFFCURVE",
"754 310 OFFCURVE",
"732 298 CURVE SMOOTH",
"440 148 LINE",
"461 112 OFFCURVE",
"505 93 OFFCURVE",
"558 93 CURVE SMOOTH",
"591 93 OFFCURVE",
"630 112 OFFCURVE",
"656 135 CURVE SMOOTH",
"667 145 OFFCURVE",
"679 151 OFFCURVE",
"695 151 CURVE SMOOTH",
"717.653 151 OFFCURVE",
"731.956 135.818 OFFCURVE",
"731.956 114.051 CURVE SMOOTH",
"731.956 110.835 OFFCURVE",
"731.644 107.476 OFFCURVE",
"731 104 CURVE SMOOTH",
"728 92 OFFCURVE",
"722 82 OFFCURVE",
"712 74 CURVE SMOOTH"
);
},
{
closed = 1;
nodes = (
"378 392 LINE",
"363 398 OFFCURVE",
"339 404 OFFCURVE",
"319 404 CURVE SMOOTH",
"216 404 OFFCURVE",
"154 285 OFFCURVE",
"140 220 CURVE SMOOTH",
"137.331 207.416 OFFCURVE",
"136.006 195.305 OFFCURVE",
"136.006 183.944 CURVE SMOOTH",
"136.006 135.716 OFFCURVE",
"159.868 101 OFFCURVE",
"206 101 CURVE SMOOTH",
"242 101 OFFCURVE",
"292 123 OFFCURVE",
"319 140 CURVE"
);
},
{
closed = 1;
nodes = (
"680 359 LINE",
"668 381 OFFCURVE",
"642 392 OFFCURVE",
"596 392 CURVE SMOOTH",
"519 392 OFFCURVE",
"450 322 OFFCURVE",
"427 234 CURVE"
);
}
);
userData = {
com.fontlab.hintData = {
hhints = (
{
position = 0;
width = 93;
},
{
position = 7;
width = 94;
},
{
position = 392;
width = 92;
},
{
position = 404;
width = 94;
}
);
vhints = (
{
position = 39;
width = 97;
}
);
};
};
width = 858;
}
);
unicode = 00E6;
},
{
glyphname = b;
layers = (
{
layerId = master01;
paths = (
{
closed = 1;
nodes = (
"451.341 491 OFFCURVE",
"488.2 417.271 OFFCURVE",
"488.2 335.006 CURVE SMOOTH",
"488.2 313.199 OFFCURVE",
"485.61 290.792 OFFCURVE",
"481 269 CURVE SMOOTH",
"450 124 OFFCURVE",
"361 6 OFFCURVE",
"205 6 CURVE SMOOTH",
"167 6 OFFCURVE",
"129 15 OFFCURVE",
"101 24 CURVE",
"90 11 OFFCURVE",
"70 1 OFFCURVE",
"53 1 CURVE SMOOTH",
"30.198 1 OFFCURVE",
"15.088 17.151 OFFCURVE",
"15.088 37.313 CURVE SMOOTH",
"15.088 40.141 OFFCURVE",
"15.385 43.048 OFFCURVE",
"16 46 CURVE SMOOTH",
"140 627 LINE SMOOTH",
"146 654 OFFCURVE",
"171 672 OFFCURVE",
"197 672 CURVE SMOOTH",
"218.081 672 OFFCURVE",
"236.075 658.113 OFFCURVE",
"236.075 636.438 CURVE SMOOTH",
"236.075 633.436 OFFCURVE",
"235.73 630.284 OFFCURVE",
"235 627 CURVE SMOOTH",
"196 446 LINE",
"244 476 OFFCURVE",
"294 491 OFFCURVE",
"347 491 CURVE SMOOTH"
);
},
{
closed = 1;
nodes = (
"316 100 OFFCURVE",
"365 167 OFFCURVE",
"387 269 CURVE SMOOTH",
"389.943 283.181 OFFCURVE",
"391.884 298.794 OFFCURVE",
"391.884 314.058 CURVE SMOOTH",
"391.884 355.839 OFFCURVE",
"377.34 395 OFFCURVE",
"329 395 CURVE SMOOTH",
"247 395 OFFCURVE",
"175 348 OFFCURVE",
"163 290 CURVE SMOOTH",
"126 117 LINE",
"146 110 OFFCURVE",
"181 100 OFFCURVE",
"218 100 CURVE SMOOTH"
);
}
);
userData = {
com.fontlab.hintData = {
hhints = (
{
position = 6;
width = 94;
},
{
position = 395;
width = 96;
}
);
vhints = (
{
position = 392;
width = 96;
}
);
};
};
width = 550;
}
);
unicode = 0062;
},
